<?xml version="1.0" standalone="no"?>
<!DOCTYPE svg PUBLIC "-//W3C//DTD SVG 1.1//EN" "http://www.w3.org/Graphics/SVG/1.1/DTD/svg11.dtd" >
<svg xmlns="http://www.w3.org/2000/svg">
<metadata>
Created by FontPrep 20130207 at Mon Dec 22 11:42:23 2014
 By Wil Wilsman
Copyright (c) 1981, 1982, 1983, 1989 and 1993, Linotype Library GmbH or its affiliated Linotype-Hell companies. All rights reserved.

The digitally encoded machine readable software for producing the Typefaces licensed to you is now the property of Heidelberger Druckmaschinen AG and its licensors, and may not be reproduced, used, displayed, modified, disclosed or transferred without the express written approval of Heidelberger Druckmaschinen AG.

Copyright (c) 1988, 1990, 1993 Adobe Systems Incorporated. All Rights Reserved.
</metadata>
<defs>
<font id="a68121ef2e891aed38ff01110987f27a" horiz-adv-x='1024' >
  <font-face 
    font-family="HelveticaNeue"
    font-weight="400"
    font-stretch="normal"
    units-per-em="2048"
    panose-1="2 0 5 3 0 0 0 2 0 4"
    ascent="1638"
    descent="-410"
    x-height="1059"
    cap-height="1462"
    bbox="-1948 -985 2961 2206"
    underline-thickness="102"
    underline-position="-153"
    unicode-range="U+0008-FFA7"
  />
<missing-glyph horiz-adv-x="1024" 
d="M942 1458v-1456h-838v1456h838zM838 1364h-629v-1268h629v1268z" />
    <glyph glyph-name="fi" unicode="fi" horiz-adv-x="1060" 
d="M507 1325q-60 0 -95 -25t-35 -94v-147h205v-154h-205v-905h-174v905h-178v154h178v158q0 129 75 195t218 67q67 0 112 -17v-151q-41 14 -101 14zM748 1249v213h174v-213h-174zM748 0v1059h174v-1059h-174z" />
    <glyph glyph-name="fl" unicode="fl" horiz-adv-x="1060" 
d="M507 1325q-60 0 -95 -25t-35 -94v-147h205v-154h-205v-905h-174v905h-178v154h178v158q0 129 75 195t218 67q67 0 112 -17v-151q-41 14 -101 14zM748 1462h174v-1462h-174v1462z" />
    <glyph glyph-name=".notdef" horiz-adv-x="1024" 
d="M942 1458v-1456h-838v1456h838zM838 1364h-629v-1268h629v1268z" />
    <glyph glyph-name=".null" horiz-adv-x="0" 
 />
    <glyph glyph-name=".null" horiz-adv-x="0" 
 />
    <glyph glyph-name="nonmarkingreturn" horiz-adv-x="681" 
 />
    <glyph glyph-name="controlBS" horiz-adv-x="0" 
 />
    <glyph glyph-name="controlHT" unicode="&#x9;" horiz-adv-x="569" 
 />
    <glyph glyph-name="uni000A" unicode="&#xa;" horiz-adv-x="569" 
 />
    <glyph glyph-name="controlCR" unicode="&#xd;" horiz-adv-x="569" 
 />
    <glyph glyph-name="controlGS" horiz-adv-x="0" 
 />
    <glyph glyph-name="space" unicode=" " horiz-adv-x="569" 
 />
    <glyph glyph-name="exclam" unicode="!" horiz-adv-x="530" 
d="M168 1462h194v-450l-51 -637h-92l-51 637v450zM152 227h227v-227h-227v227z" />
    <glyph glyph-name="quotedbl" unicode="&#x22;" horiz-adv-x="872" 
d="M223 1462h139v-528h-139v528zM510 1462h139v-528h-139v528z" />
    <glyph glyph-name="numbersign" unicode="#" 
d="M70 422v139h219l43 307h-209v140h227l60 419h141l-59 -419h253l60 419h141l-59 -419h182v-140h-201l-43 -307h187v-139h-207l-60 -422h-141l60 422h-254l-60 -422h-141l59 422h-198zM473 868l-43 -307h254l43 307h-254z" />
    <glyph glyph-name="dollar" unicode="$" 
d="M514 1333q-98 -10 -167 -70t-69 -170t60 -158q59 -47 176 -81v479zM627 129q260 18 264 262q0 154 -160 216q-49 19 -104 36v-514zM213 1366q119 119 301 131v135h113v-137q166 -21 264 -123t139 -282h-174q-41 203 -229 237v-504l123 -32q112 -27 202 -107
q123 -109 123 -287q0 -179 -123 -297q-123 -117 -325 -133v-168h-113v168q-205 21 -326 143t-137 336h174q4 -137 85 -217t204 -100v543q-226 56 -323 138t-97 260q0 177 119 296z" />
    <glyph glyph-name="percent" unicode="%" horiz-adv-x="2048" 
d="M1487 1479h174l-1100 -1522h-176zM1532 797q323 0 328 -410q0 -279 -177 -376q-61 -34 -152 -34t-155 32q-176 89 -176 375t174 379q62 34 158 34zM1526 88q180 0 180 298t-174 298q-99 0 -147 -103q-31 -72 -31 -196q0 -297 172 -297zM520 1452q328 0 328 -410
q0 -275 -176 -376q-60 -35 -152 -35q-171 0 -252 112q-80 112 -80 293q0 288 174 382q63 34 158 34zM520 1339q-178 0 -178 -298t172 -298q180 0 180 299q0 300 -174 297z" />
    <glyph glyph-name="ampersand" unicode="&#x26;" horiz-adv-x="1290" 
d="M252 382q0 -116 85 -184q85 -69 189 -69q201 0 316 174l-336 404q-51 -29 -97 -60q-157 -106 -157 -265zM932 1163q0 -221 -275 -379l265 -321q41 115 47 227h166q-16 -174 -60 -273q-16 -38 -39 -87l285 -330h-227l-156 182q-66 -102 -180 -153t-247 -51q-134 0 -224 44
q-219 111 -219 344q0 232 210 372q62 42 132 79q-31 43 -79 108t-66 123q-17 58 -17 115q0 123 89 212t241 87q235 0 324 -169q30 -56 30 -130zM598 1309q-70 0 -122 -38q-54 -38 -54 -108t47 -140q20 -32 45 -62l49 -62q31 20 66 45q127 91 129 217q0 55 -45 101t-115 47z
" />
    <glyph glyph-name="quotesingle" unicode="'" horiz-adv-x="569" 
d="M215 1462h139v-528h-139v528z" />
    <glyph glyph-name="parenleft" unicode="(" horiz-adv-x="530" 
d="M96 553q0 241 81 487t241 457h133q-147 -233 -209 -463t-61 -484q0 -254 62 -486t208 -467h-133q-154 239 -215 407q-62 168 -84 291q-23 123 -23 258z" />
    <glyph glyph-name="parenright" unicode=")" horiz-adv-x="530" 
d="M-18 -403q145 231 206 461q62 230 62 484q1 511 -268 955h131q324 -504 321 -958q0 -242 -81 -487t-240 -455h-131z" />
    <glyph glyph-name="asterisk" unicode="*" horiz-adv-x="720" 
d="M303 1462h109v-231l219 82l41 -99l-223 -77l135 -187l-84 -63l-142 196l-133 -196l-92 63l133 187l-217 77l37 99l217 -82v231z" />
    <glyph glyph-name="plus" unicode="+" horiz-adv-x="1228" 
d="M684 588h446v-139h-446v-449h-139v449h-447v139h447v448h139v-448z" />
    <glyph glyph-name="comma" unicode="," horiz-adv-x="569" 
d="M170 227h227v-207q0 -253 -225 -319v102q62 21 93 82q31 60 26 115h-121v227z" />
    <glyph glyph-name="hyphen" unicode="-" horiz-adv-x="796" 
d="M102 651h592v-164h-592v164z" />
    <glyph glyph-name="period" unicode="." horiz-adv-x="569" 
d="M170 227h227v-227h-227v227z" />
    <glyph glyph-name="slash" unicode="/" horiz-adv-x="681" 
d="M569 1497h150l-606 -1530h-148z" />
    <glyph glyph-name="zero" unicode="0" 
d="M569 1452q307 0 412 -250q57 -136 68 -323q4 -86 4 -233q-1 -147 -21 -248q-41 -205 -135 -302q-115 -119 -328 -119q-306 0 -411 247q-57 134 -68 323q-4 86 -4 233t20 248q42 206 136 303q117 121 327 121zM275 532q11 -229 122 -342q61 -61 172 -61t172 61t94 166
t33 317q0 211 -10 282q-23 162 -79 240q-77 105 -210 103q-74 0 -125 -28q-102 -58 -136 -182q-38 -137 -38 -296q0 -158 5 -260z" />
    <glyph glyph-name="one" unicode="1" 
d="M729 0h-174v1040h-377v140q175 0 269 53q123 68 149 219h133v-1452z" />
    <glyph glyph-name="two" unicode="2" 
d="M546 1452q202 0 334 -110t132 -308q0 -242 -221 -407q-78 -58 -206 -135q-129 -76 -185 -121q-127 -102 -148 -217h745v-154h-948q25 325 262 498q70 51 211 137t200 148q58 63 82 120t24 125q-1 123 -81 196q-80 74 -210 74t-203 -105q-72 -105 -70 -255h-174
q-12 225 112 368q60 70 150 108t194 38z" />
    <glyph glyph-name="three" unicode="3" 
d="M465 827h57q117 0 197 63t80 178q0 114 -74 172t-164 58q-154 0 -223 -88q-70 -88 -72 -227h-174q13 331 257 434q83 35 185 35q317 0 415 -215q34 -74 34 -173t-57 -175t-144 -115v-4q133 -29 198 -125q64 -96 64 -216q-1 -222 -142 -337q-142 -115 -362 -115t-351 124
q-132 124 -128 348h175q4 -141 81 -231q78 -89 220 -89t233 78q92 78 91 204q-1 127 -86 202t-224 75q-55 0 -105 -6v147q10 -2 19 -2z" />
    <glyph glyph-name="four" unicode="4" 
d="M858 494h197v-154h-197v-340h-164v340h-637v168l662 944h139v-958zM694 494v710h-4l-483 -710h487z" />
    <glyph glyph-name="five" unicode="5" 
d="M963 1427v-153h-586l-78 -418l4 -4q47 53 122 79q158 55 332 -7q174 -61 249 -247q36 -93 36 -201q-1 -216 -132 -358q-132 -141 -375 -141q-193 0 -326 110t-137 304h174q8 -112 91 -187t214 -75q130 0 219 91t89 243q-1 153 -91 247q-91 93 -242 93t-266 -137l-149 8
l135 753h717z" />
    <glyph glyph-name="six" unicode="6" 
d="M586 780q-138 0 -219 -91q-82 -91 -82 -234t81 -234q81 -92 219 -92t215 93t79 229q0 222 -164 303q-55 26 -129 26zM578 -23q-500 0 -500 697q0 538 276 712q102 66 270 66t274 -95t124 -276h-174q-12 97 -76 157t-171 60q-195 0 -280 -191q-64 -139 -69 -359l4 -5
q117 191 362 191q207 0 326 -134t119 -330t-106 -330q-127 -161 -379 -163z" />
    <glyph glyph-name="seven" unicode="7" 
d="M102 1264v163h940v-149q-215 -211 -375 -574q-160 -362 -182 -704h-194q35 530 359 999q99 143 214 265h-762z" />
    <glyph glyph-name="eight" unicode="8" 
d="M353 204q87 -75 217 -75t220 81q84 80 83 199t-90 200t-216 80q-125 -1 -213 -78t-88 -205q0 -127 87 -202zM82 418q0 129 65 224q66 95 189 138q-92 37 -148 120q-55 83 -55 177t35 163q69 137 230 187q76 25 178 25t186 -32q240 -91 238 -353q0 -84 -55 -165
q-54 -81 -146 -122q256 -80 258 -362q0 -206 -137 -323q-137 -118 -350 -118t-351 113q-137 113 -137 328zM317 1073q0 -111 72 -171t181 -60t178 61q68 61 67 172q0 111 -69 167t-175 56q-169 0 -233 -127q-20 -41 -21 -98z" />
    <glyph glyph-name="nine" unicode="9" 
d="M838 969q0 137 -80 234t-222 96t-212 -99t-70 -231q0 -134 82 -228t209 -94t210 93q83 92 83 229zM547 1452q500 0 498 -691q-1 -380 -121 -582t-383 -202q-182 1 -303 93t-138 280h174q10 -106 86 -164t181 -57q159 0 239 138t88 423l-4 4q-49 -92 -139 -146t-199 -54
q-215 0 -336 132q-122 132 -121 348q1 215 135 347q133 131 343 131z" />
    <glyph glyph-name="colon" unicode=":" horiz-adv-x="569" 
d="M170 227h227v-227h-227v227zM397 831h-227v228h227v-228z" />
    <glyph glyph-name="semicolon" unicode=";" horiz-adv-x="569" 
d="M170 227h227v-207q4 -252 -225 -319v102q62 21 93 82q31 60 26 115h-121v227zM397 831h-227v228h227v-228z" />
    <glyph glyph-name="less" unicode="&#x3c;" horiz-adv-x="1228" 
d="M1135 913l-871 -395l871 -395v-137l-1041 469v127l1041 471v-140z" />
    <glyph glyph-name="equal" unicode="=" horiz-adv-x="1228" 
d="M1130 655h-1032v140h1032v-140zM98 381h1032v-139h-1032v139z" />
    <glyph glyph-name="greater" unicode="&#x3e;" horiz-adv-x="1228" 
d="M94 123l871 395l-871 395v140l1041 -471v-127l-1041 -469v137z" />
    <glyph glyph-name="question" unicode="?" 
d="M566 1497q195 0 317 -107q121 -110 121 -303q0 -154 -112 -280q-32 -35 -94 -96t-90 -99q-57 -80 -59 -176v-80h-174v97q7 140 99 254q40 47 84 87t82 84q87 101 79 220t-73 182t-157 63q-92 -1 -145 -27q-157 -78 -157 -310h-174q-2 104 29 194q66 188 236 260
q86 36 188 37zM446 227h228v-227h-228v227z" />
    <glyph glyph-name="at" unicode="@" horiz-adv-x="1638" 
d="M1026 844q0 118 -104 174q-30 16 -82 16t-112 -42t-103 -105q-93 -136 -93 -281q0 -86 50 -142t122 -56q130 0 230 154q43 67 67 143q25 76 25 139zM1071 449q0 -63 48 -63t99 42q104 89 158 262q27 84 27 186t-46 199q-46 98 -124 167q-163 144 -385 142
q-131 0 -245 -52q-228 -104 -330 -351q-48 -119 -48 -255t50 -255q100 -238 339 -343q115 -50 253 -50q139 0 275 68t224 180h129q-95 -168 -267 -263q-172 -96 -354 -96q-342 0 -566 222q-102 103 -162 243t-60 302q0 317 224 541q104 103 242 163t286 59q148 0 276 -47
q261 -97 373 -329q55 -116 55 -252q0 -135 -48 -245q-94 -215 -275 -309q-85 -43 -147 -43q-133 0 -140 134h-6q-122 -138 -252 -138q-129 0 -213 94t-83 215t36 225q74 220 249 320q89 51 197 52q164 0 230 -168l47 129h129q-172 -582 -183 -623q-12 -41 -12 -63z" />
    <glyph glyph-name="A" unicode="A" horiz-adv-x="1327" 
d="M557 1462h215l571 -1462h-215l-159 440h-619l-164 -440h-198zM412 604h495l-243 682h-5z" />
    <glyph glyph-name="B" unicode="B" horiz-adv-x="1402" 
d="M1116 426q0 239 -317 244h-445v-506h488q130 0 202 70t72 192zM160 1462h530q207 0 280 -16q74 -16 107 -37q72 -43 122 -119t50 -190t-56 -198q-56 -85 -161 -126v-4q135 -29 207 -123t72 -229q0 -172 -120 -296t-325 -124h-706v1462zM354 834h389q166 0 239 58t73 186
t-92 182q-65 38 -220 38h-389v-464z" />
    <glyph glyph-name="C" unicode="C" horiz-adv-x="1478" 
d="M789 1333q-256 0 -382 -173t-124 -419q0 -423 272 -563q93 -49 207 -49q202 0 315 117t125 305h195q-29 -276 -191 -430t-442 -154q-328 -1 -502 211t-174 546t177 548q87 104 217 164t272 61q399 0 559 -269q53 -89 69 -206h-194q-33 156 -145 234t-254 77z" />
    <glyph glyph-name="D" unicode="D" horiz-adv-x="1441" 
d="M1364 766q0 -766 -702 -766h-502v1462h502q338 0 520 -172t182 -524zM354 164h324q168 0 290 83t174 262q28 95 28 228t-26 237q-81 327 -462 324h-328v-1134z" />
    <glyph glyph-name="E" unicode="E" horiz-adv-x="1251" 
d="M160 1462h1009v-164h-815v-464h760v-164h-760v-506h822v-164h-1016v1462z" />
    <glyph glyph-name="F" unicode="F" horiz-adv-x="1175" 
d="M160 1462h960v-164h-766v-464h672v-164h-672v-670h-194v1462z" />
    <glyph glyph-name="G" unicode="G" horiz-adv-x="1554" 
d="M88 710q0 152 44 296q91 300 348 427q130 65 276 65q279 -1 449 -121q169 -120 208 -365h-194q-26 158 -145 240q-119 81 -271 81t-247 -53q-96 -53 -156 -140q-120 -172 -118 -420q1 -248 134 -420q133 -171 361 -171q227 0 359 138q127 138 117 339h-467v164h641v-770
h-122l-52 182q-161 -215 -487 -215q-146 1 -274 61q-260 122 -357 398q-47 132 -47 284z" />
    <glyph glyph-name="H" unicode="H" horiz-adv-x="1478" 
d="M160 1462h194v-628h770v628h195v-1462h-195v670h-770v-670h-194v1462z" />
    <glyph glyph-name="I" unicode="I" horiz-adv-x="530" 
d="M168 1462h194v-1462h-194v1462z" />
    <glyph glyph-name="J" unicode="J" horiz-adv-x="1062" 
d="M903 365q0 -271 -226 -364q-83 -34 -206 -34q-205 0 -315 108t-111 316v90h195v-61q0 -214 117 -269q46 -22 118 -22q133 0 183 72t51 192v1069h194v-1097z" />
    <glyph glyph-name="K" unicode="K" horiz-adv-x="1366" 
d="M160 1462h194v-729l742 729h252l-617 -590l641 -872h-246l-528 739l-244 -227v-512h-194v1462z" />
    <glyph glyph-name="L" unicode="L" 
d="M160 1462h194v-1298h774v-164h-968v1462z" />
    <glyph glyph-name="M" unicode="M" horiz-adv-x="1783" 
d="M164 1462h266l461 -1229l463 1229h266v-1462h-184v1217h-4l-457 -1217h-166l-457 1217h-4v-1217h-184v1462z" />
    <glyph glyph-name="N" unicode="N" horiz-adv-x="1478" 
d="M158 1462h207l770 -1186h4v1186h184v-1462h-213l-764 1174h-4v-1174h-184v1462z" />
    <glyph glyph-name="O" unicode="O" horiz-adv-x="1556" 
d="M1303 1264q176 -212 176 -532t-184 -542q-184 -221 -517 -222q-334 -1 -524 231q-176 211 -176 531t185 544t515 223q331 0 525 -233zM272 731q0 -111 29 -219q63 -232 248 -331q96 -52 229 -52q252 0 387 190q119 168 119 412t-119 412q-135 190 -386 190t-388 -190
q-119 -168 -119 -412z" />
    <glyph glyph-name="P" unicode="P" horiz-adv-x="1327" 
d="M160 1462h641q221 0 335 -114t114 -318q0 -206 -114 -320t-335 -112h-447v-598h-194v1462zM1055 1029q0 271 -320 269h-381v-536h381q320 -4 320 267z" />
    <glyph glyph-name="Q" unicode="Q" horiz-adv-x="1556" 
d="M792 -33q-348 0 -538 232q-176 211 -176 531t185 544t515 223q331 0 525 -233q176 -212 176 -533q1 -167 -55 -319t-167 -262l193 -152l-98 -123l-224 178q-148 -86 -336 -86zM1284 719q0 256 -119 424q-135 190 -386 190t-388 -190q-119 -168 -119 -412t119 -412
q135 -190 387 -190q104 0 203 41l-162 129l103 119l194 -156q86 86 127 210t41 247z" />
    <glyph glyph-name="R" unicode="R" horiz-adv-x="1402" 
d="M760 788q158 0 236 51q102 67 102 210q0 111 -62 181t-198 68h-484v-510h406zM160 1462h688q209 0 327 -102t117 -281q0 -133 -60 -233t-194 -137v-4q164 -31 202 -199q16 -73 21 -170q5 -96 13 -150q19 -127 69 -186h-217q-31 36 -35 116q-8 188 -17 243t-21 103
q-40 164 -224 163h-475v-625h-194v1462z" />
    <glyph glyph-name="S" unicode="S" horiz-adv-x="1327" 
d="M315 1085q0 -69 40 -111q72 -75 271 -116t306 -76q106 -35 173 -82q146 -102 146 -309q0 -206 -186 -324q-158 -100 -402 -100q-243 0 -415 129t-172 385h184q0 -172 130 -268q110 -82 296 -84q251 0 338 135q33 51 33 129t-40 125q-72 85 -285 131q-212 46 -305 74
q-196 61 -266 179q-40 66 -40 172t45 187q87 157 290 210q96 26 202 26q229 0 377 -115t155 -348h-184q-16 158 -114 229t-249 70q-224 0 -300 -130q-28 -48 -28 -118z" />
    <glyph glyph-name="T" unicode="T" horiz-adv-x="1175" 
d="M492 1298h-488v164h1170v-164h-488v-1298h-194v1298z" />
    <glyph glyph-name="U" unicode="U" horiz-adv-x="1478" 
d="M1327 528q1 -280 -149 -420t-430 -140t-438 133q-159 134 -158 427v934h194v-934q0 -197 104 -298t296 -101q384 0 387 399v934h194v-934z" />
    <glyph glyph-name="V" unicode="V" horiz-adv-x="1251" 
d="M735 0h-221l-514 1462h209l418 -1267h4l422 1267h202z" />
    <glyph glyph-name="W" unicode="W" horiz-adv-x="1896" 
d="M1481 0h-203l-334 1229h-4l-338 -1229h-203l-374 1462h198l287 -1216h4l328 1216h211l323 -1216h4l297 1216h195z" />
    <glyph glyph-name="X" unicode="X" horiz-adv-x="1251" 
d="M508 752l-481 710h233l365 -571l381 571h217l-484 -710l514 -752h-237l-393 604l-406 -604h-217z" />
    <glyph glyph-name="Y" unicode="Y" horiz-adv-x="1327" 
d="M764 0h-195v598l-565 864h232l438 -696l428 696h221l-559 -864v-598z" />
    <glyph glyph-name="Z" unicode="Z" horiz-adv-x="1251" 
d="M115 1298v164h1069v-164l-908 -1134h932v-164h-1163v164l909 1134h-839z" />
    <glyph glyph-name="bracketleft" unicode="[" horiz-adv-x="530" 
d="M530 1358h-219v-1622h219v-139h-383v1900h383v-139z" />
    <glyph glyph-name="backslash" unicode="\" horiz-adv-x="681" 
d="M719 -33h-150l-604 1530h148z" />
    <glyph glyph-name="backslash" unicode="&#x29f5;" horiz-adv-x="681" 
d="M719 -33h-150l-604 1530h148z" />
    <glyph glyph-name="bracketright" unicode="]" horiz-adv-x="530" 
d="M0 -264h219v1622h-219v139h383v-1900h-383v139z" />
    <glyph glyph-name="asciicircum" unicode="^" horiz-adv-x="1228" 
d="M549 1427h131l446 -886h-143l-371 737l-364 -737h-146z" />
    <glyph glyph-name="underscore" unicode="_" horiz-adv-x="1024" 
d="M0 -152h1024v-102h-1024v102z" />
    <glyph glyph-name="grave" unicode="`" horiz-adv-x="454" 
d="M-45 1497h221l176 -293h-131z" />
    <glyph glyph-name="a" unicode="a" horiz-adv-x="1099" 
d="M258 296q0 -128 128 -159q38 -8 100 -8t124 24q119 47 158 137q18 42 18 79v178q-47 -36 -197 -54q-58 -7 -118 -17q-213 -32 -213 -180zM553 930q-111 0 -185 -42t-79 -159h-174q8 186 139 276q113 78 300 78t280 -52q127 -71 127 -238v-545q0 -61 7 -90t39 -29t62 10
v-135q-45 -27 -125 -27q-147 0 -147 162q-136 -162 -376 -162t-320 159q-27 56 -27 141t30 143q58 109 191 146t236 49q102 12 151 25q108 29 106 114q0 176 -235 176z" />
    <glyph glyph-name="b" unicode="b" horiz-adv-x="1214" 
d="M956 537q0 77 -19 147q-40 150 -162 213q-62 33 -148 33q-160 0 -248 -126q-72 -103 -74 -274q0 -270 180 -367q63 -34 153 -34t152 35q60 35 97 92t53 131t16 150zM137 1462h174v-547h4q43 88 135 128t210 40q227 0 354 -162t127 -397q0 -236 -124 -391t-360 -156
q-159 0 -271 85q-42 32 -71 79h-4v-141h-174v1462z" />
    <glyph glyph-name="c" unicode="c" horiz-adv-x="1099" 
d="M430 895q-172 -96 -172 -367q0 -272 168 -366q59 -33 141 -33q129 0 202 68t89 190h178q-28 -197 -146 -303t-339 -106t-350 148q-129 149 -128 395q1 245 129 403q128 159 371 159q293 0 408 -201q39 -69 49 -163h-180q-20 100 -86 155q-66 56 -168 56t-166 -35z" />
    <glyph glyph-name="d" unicode="d" horiz-adv-x="1214" 
d="M899 143q-81 -166 -344 -166q-226 0 -355 162q-128 162 -127 397q1 236 126 391q125 156 358 156q160 0 271 -87q42 -32 71 -78h4v544h174v-1462h-174v143h-4zM342 244q84 -115 244 -115t242 115t81 284q0 272 -180 368q-63 34 -153 34t-150 -35q-61 -35 -98 -92
q-70 -108 -70 -276t84 -283z" />
    <glyph glyph-name="e" unicode="e" horiz-adv-x="1099" 
d="M588 129q231 0 274 207h172q-36 -178 -154 -268t-298 -91q-244 0 -372 150t-136 405q0 239 140 396q140 155 357 155q256 0 384 -206q106 -170 96 -400h-793q-4 -149 81 -249q85 -99 249 -99zM560 930q-128 0 -211 -86t-91 -213h608q-4 61 -27 117q-48 110 -158 158
q-54 24 -121 24z" />
    <glyph glyph-name="f" unicode="f" horiz-adv-x="606" 
d="M507 1325q-60 0 -95 -25t-35 -94v-147h205v-154h-205v-905h-174v905h-178v154h178v158q0 129 75 195t218 67q67 0 112 -17v-151q-41 14 -101 14z" />
    <glyph glyph-name="g" unicode="g" horiz-adv-x="1175" 
d="M557 141q159 0 237 121t78 289q0 253 -161 346q-57 33 -141 33t-142 -32q-170 -92 -170 -357t156 -364q57 -36 143 -36zM1044 90q0 -260 -118 -389t-385 -129q-266 0 -381 166q-41 59 -45 145h174q4 -86 89 -129q86 -43 178 -43q320 0 325 400v69h-4q-45 -98 -137 -144
t-202 -46q-216 0 -341 154t-124 379t107 375q130 185 383 185q101 0 185 -44t131 -132h2v152h163v-969z" />
    <glyph glyph-name="h" unicode="h" 
d="M131 1462h174v-559h4q37 90 141 138q88 42 192 42q197 0 288 -108q76 -90 78 -279v-696h-174v717q0 98 -58 155q-58 58 -148 58q-241 1 -303 -200q-19 -60 -20 -132v-598h-174v1462z" />
    <glyph glyph-name="i" unicode="i" horiz-adv-x="454" 
d="M141 1059h174v-1059h-174v1059zM315 1249h-174v213h174v-213z" />
    <glyph glyph-name="j" unicode="j" horiz-adv-x="454" 
d="M6 -250h37q57 0 78 32q20 32 20 114v1163h174v-1192q-1 -141 -69 -206t-185 -64q-47 0 -88 8v149q20 -4 33 -4zM315 1249h-174v213h174v-213z" />
    <glyph glyph-name="k" unicode="k" horiz-adv-x="1062" 
d="M141 1462h174v-866l484 463h233l-420 -385l451 -674h-221l-363 553l-164 -152v-401h-174v1462z" />
    <glyph glyph-name="l" unicode="l" horiz-adv-x="454" 
d="M141 1462h174v-1462h-174v1462z" />
    <glyph glyph-name="m" unicode="m" horiz-adv-x="1746" 
d="M131 1059h164v-156h4q119 180 342 180q98 0 178 -41t113 -139q53 86 140 133q88 47 180 47t156 -17q133 -35 182 -150q26 -58 26 -140v-776h-174v694q0 113 -31 156t-71 61t-103 19q-129 0 -203 -74t-73 -197v-659h-175v694q0 172 -101 218q-37 18 -105 18t-122 -31
t-88 -74q-62 -79 -65 -166v-659h-174v1059z" />
    <glyph glyph-name="n" unicode="n" 
d="M131 1059h164v-168h4q109 193 344 192q196 0 287 -108q76 -90 78 -279v-696h-174v717q0 98 -58 155q-58 58 -148 58q-241 1 -303 -200q-19 -60 -20 -132v-598h-174v1059z" />
    <glyph glyph-name="o" unicode="o" horiz-adv-x="1175" 
d="M74 529q0 244 136 399t377 155t378 -154t137 -398q0 -243 -135 -399q-135 -155 -379 -155q-243 0 -379 154q-135 154 -135 398zM258 529q0 -188 94 -294t235 -106q140 0 235 105q96 105 96 293t-95 296q-95 107 -234 107q-140 0 -236 -107q-95 -106 -95 -294z" />
    <glyph glyph-name="p" unicode="p" horiz-adv-x="1214" 
d="M956 537q0 77 -19 147q-40 150 -162 213q-62 33 -148 33q-160 0 -248 -126q-72 -103 -74 -274q0 -270 180 -367q63 -34 153 -34t152 35q60 35 97 92t53 131t16 150zM137 1059h174v-144h4q43 88 135 128t210 40q227 0 354 -162t127 -397q0 -236 -124 -391t-360 -156
q-159 0 -271 85q-42 32 -71 79h-4v-544h-174v1462z" />
    <glyph glyph-name="q" unicode="q" horiz-adv-x="1214" 
d="M899 143q-81 -166 -344 -166q-226 0 -355 162q-128 162 -127 397q1 236 126 391q125 156 358 156q160 0 271 -87q42 -32 71 -78h4v141h174v-1462h-174v546h-4zM342 244q84 -115 244 -115t242 115t81 284q0 272 -180 368q-63 34 -153 34t-150 -35q-61 -35 -98 -92
q-70 -108 -70 -276t84 -283z" />
    <glyph glyph-name="r" unicode="r" horiz-adv-x="681" 
d="M125 1059h164v-223h4q63 129 155 190t234 57v-184q-297 0 -363 -247q-20 -79 -20 -181v-471h-174v1059z" />
    <glyph glyph-name="s" unicode="s" horiz-adv-x="1024" 
d="M516 129q178 0 238 77q24 32 24 90t-51 94q-51 34 -128 56t-167 38q-90 18 -167 50t-128 89t-51 148q0 160 128 242q109 70 286 70q394 0 415 -331h-174q-10 133 -160 169q-42 9 -83 9q-226 0 -228 -138q0 -42 32 -72q54 -51 209 -85t225 -57q227 -75 227 -269
q0 -173 -145 -262q-113 -68 -306 -70q-303 0 -408 190q-37 69 -41 167h175q4 -109 84 -157t194 -48z" />
    <glyph glyph-name="t" unicode="t" horiz-adv-x="645" 
d="M373 1059h211v-154h-211v-657q0 -59 23 -77q23 -17 108 -17h80v-154h-133q-142 0 -197 46t-55 185v674h-181v154h181v317h174v-317z" />
    <glyph glyph-name="u" unicode="u" 
d="M131 362v697h174v-717q0 -98 57 -156q58 -58 148 -57q161 0 241 91q81 91 83 241v598h174v-1059h-164v168h-4q-106 -189 -344 -191q-290 0 -348 229q-17 71 -17 156z" />
    <glyph glyph-name="v" unicode="v" horiz-adv-x="1024" 
d="M608 0h-186l-393 1059h194l297 -883h4l289 883h182z" />
    <glyph glyph-name="w" unicode="w" horiz-adv-x="1552" 
d="M1180 0h-185l-215 842h-4l-213 -842h-188l-340 1059h192l240 -866h4l213 866h190l222 -866h4l237 866h181z" />
    <glyph glyph-name="x" unicode="x" horiz-adv-x="1060" 
d="M416 557l-369 502h223l254 -371l264 371h209l-364 -488l409 -571h-223l-295 438l-295 -438h-211z" />
    <glyph glyph-name="y" unicode="y" horiz-adv-x="1024" 
d="M233 -422q-66 0 -114 19v159q75 -24 115 -24q80 0 131 96l71 178l-420 1053h197l309 -866h4l297 866h185l-461 -1198q-62 -156 -128 -219q-67 -64 -186 -64z" />
    <glyph glyph-name="z" unicode="z" horiz-adv-x="983" 
d="M86 905v154h823v-119l-647 -786h676v-154h-893v133l639 772h-598z" />
    <glyph glyph-name="braceleft" unicode="{" horiz-adv-x="681" 
d="M432 -104q0 -174 98 -177h103v-122h-144q-84 0 -152 72t-69 196v371q0 109 -50 174t-120 65v139q70 0 120 68t50 174v373q0 124 69 196t152 72h144v-123h-103q-98 0 -98 -176v-375q0 -123 -72 -205q-50 -56 -106 -69v-6q56 -6 106 -63q74 -81 72 -212v-372z" />
    <glyph glyph-name="bar" unicode="|" horiz-adv-x="454" 
d="M158 1610h139v-2046h-139v2046z" />
    <glyph glyph-name="braceright" unicode="}" horiz-adv-x="681" 
d="M250 1194q0 180 -98 180h-103v123h144q85 0 152 -72t69 -196v-373q0 -108 50 -174t120 -68v-139q-71 0 -120 -68q-50 -68 -50 -171v-371q0 -122 -68 -195t-153 -73h-144v122h103q98 0 98 177v372q0 123 72 205q47 54 106 70v6q-57 6 -106 62q-74 81 -72 212v371z" />
    <glyph glyph-name="asciitilde" unicode="~" horiz-adv-x="1228" 
d="M397 645q114 0 340 -119q121 -64 200 23q22 23 40 51t37 53l73 -102q-62 -89 -98 -118q-73 -58 -144 -58t-121 19t-100 48t-108 55q-58 25 -110 25t-78 -14q-51 -27 -85 -87q-15 -28 -28 -54l-74 102q85 176 256 176z" />
    <glyph glyph-name="nonbreakingspace" unicode="&#xa0;" horiz-adv-x="569" 
 />
    <glyph glyph-name="exclamdown" unicode="&#xa1;" horiz-adv-x="530" 
d="M362 -403h-194v448l51 637h92l51 -637v-448zM379 831h-227v228h227v-228z" />
    <glyph glyph-name="cent" unicode="&#xa2;" 
d="M279 519q0 -161 70 -270t208 -120v801q-278 -35 -278 -411zM557 1278h80v-195q265 -6 369 -203q35 -69 47 -161h-179q-20 94 -79 150t-158 61v-801q111 10 171 82t77 176h174q-17 -164 -129 -287q-111 -123 -293 -123v-213h-80v213q-219 8 -341 158q-122 151 -122 382
t120 391t343 175v195z" />
    <glyph glyph-name="sterling" unicode="&#xa3;" 
d="M96 670v92h119q-41 70 -69 146t-27 173q0 189 138 303q138 113 347 113t339 -132t126 -396h-174q-8 374 -299 374q-124 0 -208 -76q-85 -76 -85 -178q-1 -101 25 -161t44 -94t38 -72h325v-92h-280q96 -198 -33 -378q-46 -64 -164 -161l4 -4q54 23 104 41t116 18t149 -21
q82 -21 124 -33t89 -13q85 0 182 76l88 -136q-103 -90 -299 -92q-62 -1 -158 27t-148 42t-112 13q-99 0 -204 -69l-97 133q224 151 226 376q0 69 -52 181h-174z" />
    <glyph glyph-name="currency" unicode="&#xa4;" 
d="M57 725q0 182 111 293l-117 119l101 100l114 -115q60 49 142 77t166 28q174 0 294 -103l117 115l102 -104l-112 -113q108 -116 107 -300t-107 -310l112 -115l-96 -96l-114 118q-120 -112 -307 -112q-186 0 -308 110l-112 -118l-99 98l113 119q-107 127 -107 309z
M574 1073q-144 0 -244 -104q-99 -104 -99 -255t100 -252t242 -102q142 0 239 106t95 253q0 72 -25 136q-52 131 -174 189q-60 28 -134 29z" />
    <glyph glyph-name="yen" unicode="&#xa5;" 
d="M475 356h-289v123h289v86l-37 68h-252v123h189l-375 706h223l357 -723l346 723h213l-365 -706h191v-123h-258l-37 -68v-86h295v-123h-295v-356h-195v356z" />
    <glyph glyph-name="brokenbar" unicode="&#xa6;" horiz-adv-x="454" 
d="M158 330h139v-510h-139v510zM297 842h-139v512h139v-512z" />
    <glyph glyph-name="section" unicode="&#xa7;" 
d="M240 682q0 -58 19 -94q35 -68 120 -118q39 -24 145 -82t217 -134q59 25 104 73q44 48 44 104q0 122 -147 211q-75 47 -179 109t-174 109q-59 -20 -104 -70t-45 -108zM377 1167q0 -122 215 -233q165 -89 238 -134q227 -138 227 -331q-1 -102 -61 -183t-152 -118
q121 -90 121 -240t-109 -241q-109 -92 -284 -91q-174 1 -282 104t-120 284h174q2 -104 66 -169t182 -65q119 0 174 95q18 32 18 79q0 88 -111 170q-55 40 -183 110q-128 68 -192 108q-228 140 -226 354q0 96 64 177t155 105q-96 100 -94 217q0 150 113 242t273 91
q161 -1 263 -94t106 -286h-174q-2 94 -55 160t-143 66t-147 -42q-56 -42 -56 -135z" />
    <glyph glyph-name="dieresis" unicode="&#xa8;" horiz-adv-x="454" 
d="M328 1425h184v-213h-184v213zM-55 1425h182v-213h-182v213z" />
    <glyph glyph-name="copyright" unicode="&#xa9;" horiz-adv-x="1638" 
d="M49 733q0 164 62 303q123 281 412 403q140 58 298 58t297 -58q284 -119 410 -403q61 -139 61 -303t-61 -304q-126 -288 -410 -404q-139 -57 -297 -57t-298 57q-285 115 -412 403q-62 140 -62 305zM370 1197q-182 -186 -182 -464t182 -467q182 -188 450 -188t449 188
t181 467t-182 465t-447 186q-135 0 -251 -50t-200 -137zM865 262q-123 0 -207 36q-170 73 -235 247q-32 86 -32 187q0 208 121 337t328 129q148 0 254 -79t131 -232h-129q-16 86 -83 142t-157 56q-238 0 -305 -213q-44 -140 1 -274t162 -194q58 -30 147 -30t155 59
q66 58 80 151h131q-33 -150 -136 -236t-226 -86z" />
    <glyph glyph-name="ordfeminine" unicode="&#xaa;" horiz-adv-x="774" 
d="M635 778q-98 0 -105 94q-88 -94 -246 -94t-213 101q-19 35 -19 85q-1 94 69 142t159 56q166 16 199 28t43 25t10 41t-18 55t-64 33q-47 6 -98 6t-97 -25t-50 -90h-123q4 107 86 162t206 55q123 0 175 -26q51 -26 76 -62q25 -35 24 -90v-328q0 -37 6 -51t23 -14h22
q10 0 23 4v-90q-43 -17 -88 -17zM190 964q0 -52 38 -68t92 -15q105 0 156 42q50 42 50 99v96q-33 -20 -90 -28t-113 -18q-57 -10 -95 -33t-38 -75z" />
    <glyph glyph-name="guillemotleft" unicode="&#xab;" horiz-adv-x="948" 
d="M504 479v180l311 246v-176l-205 -160l205 -159v-177zM102 479v180l312 246v-176l-205 -160l205 -159v-177z" />
    <glyph glyph-name="logicalnot" unicode="&#xac;" horiz-adv-x="1228" 
d="M1130 223h-139v432h-893v140h1032v-572z" />
    <glyph glyph-name="uni00AD" unicode="&#xad;" horiz-adv-x="796" 
d="M102 651h592v-164h-592v164z" />
    <glyph glyph-name="registered" unicode="&#xae;" horiz-adv-x="1638" 
d="M49 733q0 164 62 303q123 281 412 403q140 58 298 58t297 -58q284 -119 410 -403q61 -139 61 -303t-61 -304q-126 -288 -410 -404q-139 -57 -297 -57t-298 57q-285 115 -412 403q-62 140 -62 305zM370 1197q-182 -186 -182 -464t182 -467q182 -188 450 -188t449 188
t181 467t-182 465t-447 186q-135 0 -251 -50t-200 -137zM868 1180q314 0 314 -256q0 -122 -68 -178t-168 -66l256 -395h-149l-244 385h-147v-385h-140v895h346zM662 782h145q118 0 157 18q78 34 78 130q0 137 -196 137h-184v-285z" />
    <glyph glyph-name="macron" unicode="&#xaf;" horiz-adv-x="454" 
d="M-119 1382h697v-112h-697v112z" />
    <glyph glyph-name="degree" unicode="&#xb0;" horiz-adv-x="819" 
d="M115 1157q1 61 23 115q46 109 156 156q54 24 116 24q118 0 207 -87q88 -88 88 -209q-1 -122 -87 -208t-208 -86t-210 85q-85 85 -85 210zM217 1156q0 -76 52 -133q52 -58 140 -58t141 59q52 59 52 134q0 76 -52 133t-140 58t-140 -58q-53 -59 -53 -135z" />
    <glyph glyph-name="plusminus" unicode="&#xb1;" horiz-adv-x="1228" 
d="M98 694h447v340h139v-340h446v-139h-446v-342h-139v342h-447v139zM98 139h1032v-139h-1032v139z" />
    <glyph glyph-name="twosuperior" unicode="&#xb2;" horiz-adv-x="681" 
d="M45 1137q0 141 85 228q86 87 222 87t223 -69t87 -201q0 -131 -147 -232q-70 -48 -170 -104q-100 -55 -135 -92q-34 -36 -42 -68h481v-113h-620q10 194 161 297q46 31 100 63q54 33 99 61q93 59 119 122q14 34 14 90t-49 94t-131 39q-82 0 -120 -61t-38 -141h-139z" />
    <glyph glyph-name="threesuperior" unicode="&#xb3;" horiz-adv-x="681" 
d="M270 1079h49q68 0 119 31t51 97q0 65 -45 99q-46 34 -122 34t-115 -51q-39 -50 -39 -126h-139q8 135 87 212t216 77q208 0 274 -135q23 -45 23 -105t-41 -105q-41 -46 -99 -69v-4q91 -16 135 -73t44 -131t-28 -122q-84 -148 -305 -149q-141 0 -234 75t-93 214h139
q4 -176 189 -176q78 0 135 39t57 95q0 131 -119 163q-34 8 -71 8h-68v102z" />
    <glyph glyph-name="acute" unicode="&#xb4;" horiz-adv-x="454" 
d="M279 1497h223l-269 -293h-131z" />
    <glyph glyph-name="mu" unicode="&#xb5;" 
d="M305 53v-456h-174v1462h174v-717q0 -98 57 -156q58 -58 148 -57q161 0 241 91q81 91 83 241v598h174v-1059h-164v168h-4q-106 -189 -344 -191q-137 0 -187 76h-4z" />
    <glyph glyph-name="paragraph" unicode="&#xb6;" horiz-adv-x="1228" 
d="M1055 -315h-140v1665h-249v-1665h-140v974q-186 0 -307 110t-121 271q0 203 125 313t342 109h490v-1777z" />
    <glyph glyph-name="periodcentered" unicode="&#xb7;" horiz-adv-x="569" 
d="M154 637q0 53 39 92t92 39t92 -39t39 -90t-39 -92t-91 -41t-92 39t-40 92z" />
    <glyph glyph-name="cedilla" unicode="&#xb8;" horiz-adv-x="454" 
d="M299 -257q0 24 -28 41t-67 17t-85 -16l-35 57l125 158h86l-86 -106l4 -5q20 15 77 15q58 0 110 -37t52 -101q1 -105 -83 -154q-67 -40 -159 -40t-200 39l37 90q87 -35 148 -27q62 8 83 27q21 18 21 42z" />
    <glyph glyph-name="onesuperior" unicode="&#xb9;" horiz-adv-x="681" 
d="M510 573h-139v631h-236v103q100 1 176 31t97 114h102v-879z" />
    <glyph glyph-name="ordmasculine" unicode="&#xba;" horiz-adv-x="786" 
d="M649 872q-86 -94 -248 -94t-259 94q-91 93 -91 238t90 243q90 99 252 99q161 0 253 -97q91 -97 90 -243t-87 -240zM395 881q201 -1 201 243q0 120 -69 181q-50 45 -135 45t-143 -58q-59 -58 -59 -168q0 -111 50 -177t155 -66z" />
    <glyph glyph-name="guillemotright" unicode="&#xbb;" horiz-adv-x="948" 
d="M444 659v-180l-311 -246v177l205 159l-205 160v176zM846 659v-180l-311 -246v177l204 159l-204 160v176z" />
    <glyph glyph-name="onequarter" unicode="&#xbc;" horiz-adv-x="1708" 
d="M1481 309h123v-112h-123v-197h-127v197h-408v118l430 564h105v-570zM1354 309v396h-4l-303 -396h307zM1198 1485h131l-891 -1540h-131zM449 573h-140v631h-235v103q100 -1 176 29t96 116h103v-879z" />
    <glyph glyph-name="onehalf" unicode="&#xbd;" horiz-adv-x="1708" 
d="M1167 1485h131l-890 -1540h-132zM449 573h-140v631h-235v103q100 -1 176 29t96 116h103v-879zM1028 563q0 141 85 229t220 87q135 0 224 -69q88 -69 88 -189q0 -146 -147 -244q-59 -41 -165 -101t-140 -96q-34 -35 -42 -67h481v-113h-620q10 192 162 297q45 31 137 85
t129 90q65 64 65 140q0 78 -49 116t-131 38t-120 -61t-38 -142h-139z" />
    <glyph glyph-name="threequarters" unicode="&#xbe;" horiz-adv-x="1708" 
d="M1516 309h122v-112h-122v-197h-127v197h-408v118l430 564h105v-570zM1391 301v395h-5l-303 -395h308zM1331 1485h131l-891 -1540h-131zM362 1079h50q68 0 118 31t52 97q0 65 -45 99t-122 34t-116 -51q-39 -50 -39 -126h-139q8 135 87 212t216 77q208 0 274 -135
q23 -45 23 -105t-41 -105q-41 -46 -98 -69v-4q92 -16 135 -73t43 -131t-28 -122q-84 -148 -305 -149q-142 0 -234 76q-93 76 -93 213h140q4 -176 188 -176q78 0 135 39t57 95q1 130 -119 163q-34 8 -71 8h-68v102z" />
    <glyph glyph-name="questiondown" unicode="&#xbf;" 
d="M259 -319q-120 109 -120 301q0 154 110 278q32 35 96 96t91 99q57 80 58 176v63h174v-80q-7 -142 -100 -254q-40 -47 -84 -87q-107 -98 -142 -181q-22 -52 -16 -146t70 -157t157 -63q92 0 145 26q158 79 158 309h174q4 -212 -120 -348q-128 -141 -329 -141
q-202 0 -322 109zM690 831h-227v228h227v-228z" />
    <glyph glyph-name="Agrave" unicode="&#xc0;" horiz-adv-x="1327" 
d="M557 1462h215l571 -1462h-215l-159 440h-619l-164 -440h-198zM412 604h495l-243 682h-5zM389 1860h223l176 -293h-131z" />
    <glyph glyph-name="Aacute" unicode="&#xc1;" horiz-adv-x="1327" 
d="M557 1462h215l571 -1462h-215l-159 440h-619l-164 -440h-198zM412 604h495l-243 682h-5zM715 1860h223l-268 -293h-131z" />
    <glyph glyph-name="Acircumflex" unicode="&#xc2;" horiz-adv-x="1327" 
d="M557 1462h215l571 -1462h-215l-159 440h-619l-164 -440h-198zM412 604h495l-243 682h-5zM567 1860h191l213 -293h-172l-142 196l-143 -196h-158z" />
    <glyph glyph-name="Atilde" unicode="&#xc3;" horiz-adv-x="1327" 
d="M557 1462h215l571 -1462h-215l-159 440h-619l-164 -440h-198zM412 604h495l-243 682h-5zM379 1731q64 79 141 79t138 -28t95 -40q35 -13 71 -13q36 -1 58 29t31 61h107q-12 -92 -64 -164q-58 -63 -149 -63q-47 0 -149 39q-102 40 -136 40q-34 1 -68 -23t-30 -63h-107
q27 103 62 146z" />
    <glyph glyph-name="Adieresis" unicode="&#xc4;" horiz-adv-x="1327" 
d="M557 1462h215l571 -1462h-215l-159 440h-619l-164 -440h-198zM412 604h495l-243 682h-5zM764 1788h184v-213h-184v213zM379 1788h184v-213h-184v213z" />
    <glyph glyph-name="Aring.low" unicode="&#xc5;" horiz-adv-x="1327" 
d="M772 1462l571 -1462h-215l-159 440h-619l-164 -440h-198l569 1462h215zM907 604l-243 682h-5l-247 -682h495zM524 1698q0 -60 40 -100t100 -40t99 40q40 40 40 100t-40 99q-40 40 -99 40q-60 0 -100 -40t-40 -99zM432 1698q0 94 68 162t165 69q96 -1 163 -69t67 -163
t-68 -162t-164 -68t-163 68q-68 69 -68 163z" />
    <glyph glyph-name="AE" unicode="&#xc6;" horiz-adv-x="1896" 
d="M1821 1462v-164h-719v-464h676v-164h-676v-506h731v-164h-915v426h-504l-209 -426h-217l737 1462h1096zM918 590v708h-84l-345 -708h429z" />
    <glyph glyph-name="Ccedilla" unicode="&#xc7;" horiz-adv-x="1478" 
d="M716 -199q-39 0 -85 -16l-35 57l100 129q-300 23 -457 238q-151 201 -151 525t177 538q87 104 217 164t272 61q399 0 559 -269q53 -89 69 -206h-194q-33 156 -145 234t-254 77q-256 0 -382 -173t-124 -419q0 -423 272 -563q93 -49 207 -49q202 0 315 117t125 305h195
q-29 -270 -188 -424t-429 -158l-59 -75l4 -5q20 15 77 15q58 0 110 -37t52 -101q1 -105 -83 -154q-67 -40 -159 -40t-200 39l37 90q87 -35 148 -27q62 8 83 27q21 18 21 42t-28 41t-67 17z" />
    <glyph glyph-name="Egrave" unicode="&#xc8;" horiz-adv-x="1251" 
d="M160 1462h1009v-164h-815v-464h760v-164h-760v-506h822v-164h-1016v1462zM352 1860h223l177 -293h-131z" />
    <glyph glyph-name="Eacute" unicode="&#xc9;" horiz-adv-x="1251" 
d="M160 1462h1009v-164h-815v-464h760v-164h-760v-506h822v-164h-1016v1462zM678 1860h223l-268 -293h-131z" />
    <glyph glyph-name="Ecircumflex" unicode="&#xca;" horiz-adv-x="1251" 
d="M160 1462h1009v-164h-815v-464h760v-164h-760v-506h822v-164h-1016v1462zM530 1860h191l213 -293h-172l-141 196l-144 -196h-158z" />
    <glyph glyph-name="Edieresis" unicode="&#xcb;" horiz-adv-x="1251" 
d="M160 1462h1009v-164h-815v-464h760v-164h-760v-506h822v-164h-1016v1462zM727 1788h184v-213h-184v213zM342 1788h184v-213h-184v213z" />
    <glyph glyph-name="Igrave" unicode="&#xcc;" horiz-adv-x="530" 
d="M168 1462h194v-1462h-194v1462zM-6 1860h221l176 -293h-131z" />
    <glyph glyph-name="Iacute" unicode="&#xcd;" horiz-adv-x="530" 
d="M168 1462h194v-1462h-194v1462zM317 1860h224l-269 -293h-131z" />
    <glyph glyph-name="Icircumflex" unicode="&#xce;" horiz-adv-x="530" 
d="M168 1462h194v-1462h-194v1462zM170 1860h190l213 -293h-172l-141 196l-143 -196h-156z" />
    <glyph glyph-name="Idieresis" unicode="&#xcf;" horiz-adv-x="530" 
d="M168 1462h194v-1462h-194v1462zM367 1788h184v-213h-184v213zM-16 1788h182v-213h-182v213z" />
    <glyph glyph-name="Eth" unicode="&#xd0;" horiz-adv-x="1441" 
d="M1364 766q0 -766 -702 -766h-502v694h-144v140h144v628h502q338 0 520 -172t182 -524zM354 834h439v-140h-439v-530h324q168 0 290 83t174 262q28 95 28 228t-26 237q-81 327 -462 324h-328v-464z" />
    <glyph glyph-name="Ntilde" unicode="&#xd1;" horiz-adv-x="1478" 
d="M158 1462h207l770 -1186h4v1186h184v-1462h-213l-764 1174h-4v-1174h-184v1462zM393 1585q60 225 211 225q69 0 130 -28q60 -28 94 -40q34 -13 67 -13q65 0 94 90h107q-29 -225 -226 -228q-40 0 -136 40t-132 40q-37 1 -72 -23t-30 -63h-107z" />
    <glyph glyph-name="Ograve" unicode="&#xd2;" horiz-adv-x="1556" 
d="M1303 1264q176 -212 176 -532t-184 -542q-184 -221 -517 -222q-334 -1 -524 231q-176 211 -176 531t185 544t515 223q331 0 525 -233zM272 731q0 -111 29 -219q63 -232 248 -331q96 -52 229 -52q252 0 387 190q119 168 119 412t-119 412q-135 190 -386 190t-388 -190
q-119 -168 -119 -412zM504 1860h223l176 -293h-131z" />
    <glyph glyph-name="Oacute" unicode="&#xd3;" horiz-adv-x="1556" 
d="M1303 1264q176 -212 176 -532t-184 -542q-184 -221 -517 -222q-334 -1 -524 231q-176 211 -176 531t185 544t515 223q331 0 525 -233zM272 731q0 -111 29 -219q63 -232 248 -331q96 -52 229 -52q252 0 387 190q119 168 119 412t-119 412q-135 190 -386 190t-388 -190
q-119 -168 -119 -412zM829 1860h224l-269 -293h-131z" />
    <glyph glyph-name="Ocircumflex" unicode="&#xd4;" horiz-adv-x="1556" 
d="M1303 1264q176 -212 176 -532t-184 -542q-184 -221 -517 -222q-334 -1 -524 231q-176 211 -176 531t185 544t515 223q331 0 525 -233zM272 731q0 -111 29 -219q63 -232 248 -331q96 -52 229 -52q252 0 387 190q119 168 119 412t-119 412q-135 190 -386 190t-388 -190
q-119 -168 -119 -412zM682 1860h190l213 -293h-172l-141 196l-143 -196h-158z" />
    <glyph glyph-name="Otilde" unicode="&#xd5;" horiz-adv-x="1556" 
d="M1303 1264q176 -212 176 -532t-184 -542q-184 -221 -517 -222q-334 -1 -524 231q-176 211 -176 531t185 544t515 223q331 0 525 -233zM272 731q0 -111 29 -219q63 -232 248 -331q96 -52 229 -52q252 0 387 190q119 168 119 412t-119 412q-135 190 -386 190t-388 -190
q-119 -168 -119 -412zM432 1585q60 225 211 225q68 0 130 -28q61 -28 95 -40q34 -13 66 -13q65 0 94 90h107q-29 -225 -226 -228q-40 0 -136 40t-132 40q-37 1 -72 -23t-30 -63h-107z" />
    <glyph glyph-name="Odieresis" unicode="&#xd6;" horiz-adv-x="1556" 
d="M1303 1264q176 -212 176 -532t-184 -542q-184 -221 -517 -222q-334 -1 -524 231q-176 211 -176 531t185 544t515 223q331 0 525 -233zM272 731q0 -111 29 -219q63 -232 248 -331q96 -52 229 -52q252 0 387 190q119 168 119 412t-119 412q-135 190 -386 190t-388 -190
q-119 -168 -119 -412zM879 1788h184v-213h-184v213zM494 1788h184v-213h-184v213z" />
    <glyph glyph-name="multiply" unicode="&#xd7;" horiz-adv-x="1228" 
d="M145 147l373 373l-371 369l99 98l370 -369l369 369l98 -98l-368 -369l370 -373l-98 -98l-371 373l-372 -373z" />
    <glyph glyph-name="Oslash" unicode="&#xd8;" horiz-adv-x="1556" 
d="M1130 1182q-127 151 -365 151q-237 0 -365 -179t-128 -413t103 -393zM1165 319q119 168 119 402t-98 387l-756 -834q126 -145 348 -145q252 0 387 190zM1313 1249q166 -205 166 -521q0 -317 -184 -538t-517 -223q-287 0 -469 174l-166 -180l-67 59l172 189
q-170 206 -170 523q0 318 185 542t498 223q314 0 492 -180l162 178l66 -61z" />
    <glyph glyph-name="Ugrave" unicode="&#xd9;" horiz-adv-x="1478" 
d="M1327 528q1 -280 -149 -420t-430 -140t-438 133q-159 134 -158 427v934h194v-934q0 -197 104 -298t296 -101q384 0 387 399v934h194v-934zM465 1860h223l176 -293h-131z" />
    <glyph glyph-name="Uacute" unicode="&#xda;" horiz-adv-x="1478" 
d="M1327 528q1 -280 -149 -420t-430 -140t-438 133q-159 134 -158 427v934h194v-934q0 -197 104 -298t296 -101q384 0 387 399v934h194v-934zM791 1860h223l-269 -293h-131z" />
    <glyph glyph-name="Ucircumflex" unicode="&#xdb;" horiz-adv-x="1478" 
d="M1327 528q1 -280 -149 -420t-430 -140t-438 133q-159 134 -158 427v934h194v-934q0 -197 104 -298t296 -101q384 0 387 399v934h194v-934zM643 1860h191l213 -293h-173l-141 196l-143 -196h-158z" />
    <glyph glyph-name="Udieresis" unicode="&#xdc;" horiz-adv-x="1478" 
d="M1327 528q1 -280 -149 -420t-430 -140t-438 133q-159 134 -158 427v934h194v-934q0 -197 104 -298t296 -101q384 0 387 399v934h194v-934zM840 1788h184v-213h-184v213zM455 1788h184v-213h-184v213z" />
    <glyph glyph-name="Yacute" unicode="&#xdd;" horiz-adv-x="1327" 
d="M764 0h-195v598l-565 864h232l438 -696l428 696h221l-559 -864v-598zM715 1860h223l-268 -293h-131z" />
    <glyph glyph-name="Thorn" unicode="&#xde;" horiz-adv-x="1327" 
d="M160 0v1462h194v-233h447q221 0 335 -115q114 -116 114 -320t-114 -318t-335 -111h-447v-365h-194zM1055 795q0 135 -77 203t-243 67h-381v-537h381q320 -4 320 267z" />
    <glyph glyph-name="germandbls" unicode="&#xdf;" 
d="M535 129q141 0 224 82q83 81 83 199t-27 178q-52 116 -194 137q-70 10 -156 10v139q212 -14 286 120q25 48 25 108q-1 110 -66 175q-66 66 -172 66t-169 -63t-64 -223v-1057h-174v1087q0 183 111 296q111 114 287 114q175 0 303 -96t129 -262q0 -250 -213 -318v-4
q129 -15 204 -119q74 -104 74 -228t-35 -212q-71 -176 -247 -247q-86 -34 -162 -34t-117 9v149q24 -6 70 -6z" />
    <glyph glyph-name="agrave" unicode="&#xe0;" horiz-adv-x="1099" 
d="M258 296q0 -128 128 -159q38 -8 100 -8t124 24q119 47 158 137q18 42 18 79v178q-47 -36 -197 -54q-58 -7 -118 -17q-213 -32 -213 -180zM553 930q-111 0 -185 -42t-79 -159h-174q8 186 139 276q113 78 300 78t280 -52q127 -71 127 -238v-545q0 -61 7 -90t39 -29t62 10
v-135q-45 -27 -125 -27q-147 0 -147 162q-136 -162 -376 -162t-320 159q-27 56 -27 141t30 143q58 109 191 146t236 49q102 12 151 25q108 29 106 114q0 176 -235 176zM276 1497h224l176 -293h-131z" />
    <glyph glyph-name="aacute" unicode="&#xe1;" horiz-adv-x="1099" 
d="M258 296q0 -128 128 -159q38 -8 100 -8t124 24q119 47 158 137q18 42 18 79v178q-47 -36 -197 -54q-58 -7 -118 -17q-213 -32 -213 -180zM553 930q-111 0 -185 -42t-79 -159h-174q8 186 139 276q113 78 300 78t280 -52q127 -71 127 -238v-545q0 -61 7 -90t39 -29t62 10
v-135q-45 -27 -125 -27q-147 0 -147 162q-136 -162 -376 -162t-320 159q-27 56 -27 141t30 143q58 109 191 146t236 49q102 12 151 25q108 29 106 114q0 176 -235 176zM602 1497h223l-268 -293h-131z" />
    <glyph glyph-name="acircumflex" unicode="&#xe2;" horiz-adv-x="1099" 
d="M258 296q0 -128 128 -159q38 -8 100 -8t124 24q119 47 158 137q18 42 18 79v178q-47 -36 -197 -54q-58 -7 -118 -17q-213 -32 -213 -180zM553 930q-111 0 -185 -42t-79 -159h-174q8 186 139 276q113 78 300 78t280 -52q127 -71 127 -238v-545q0 -61 7 -90t39 -29t62 10
v-135q-45 -27 -125 -27q-147 0 -147 162q-136 -162 -376 -162t-320 159q-27 56 -27 141t30 143q58 109 191 146t236 49q102 12 151 25q108 29 106 114q0 176 -235 176zM455 1497h190l213 -293h-172l-141 197l-144 -197h-157z" />
    <glyph glyph-name="atilde" unicode="&#xe3;" horiz-adv-x="1099" 
d="M258 296q0 -128 128 -159q38 -8 100 -8t124 24q119 47 158 137q18 42 18 79v178q-47 -36 -197 -54q-58 -7 -118 -17q-213 -32 -213 -180zM553 930q-111 0 -185 -42t-79 -159h-174q8 186 139 276q113 78 300 78t280 -52q127 -71 127 -238v-545q0 -61 7 -90t39 -29t62 10
v-135q-45 -27 -125 -27q-147 0 -147 162q-136 -162 -376 -162t-320 159q-27 56 -27 141t30 143q58 109 191 146t236 49q102 12 151 25q108 29 106 114q0 176 -235 176zM707 1366q64 0 94 90h106q-12 -92 -63 -164q-59 -63 -162 -63q-46 0 -135 41q-100 38 -135 38
q-35 1 -70 -23t-31 -62h-106q28 106 62 147q64 78 142 78q77 0 137 -28t94 -40q34 -14 67 -14z" />
    <glyph glyph-name="adieresis" unicode="&#xe4;" horiz-adv-x="1099" 
d="M258 296q0 -128 128 -159q38 -8 100 -8t124 24q119 47 158 137q18 42 18 79v178q-47 -36 -197 -54q-58 -7 -118 -17q-213 -32 -213 -180zM553 930q-111 0 -185 -42t-79 -159h-174q8 186 139 276q113 78 300 78t280 -52q127 -71 127 -238v-545q0 -61 7 -90t39 -29t62 10
v-135q-45 -27 -125 -27q-147 0 -147 162q-136 -162 -376 -162t-320 159q-27 56 -27 141t30 143q58 109 191 146t236 49q102 12 151 25q108 29 106 114q0 176 -235 176zM651 1425h185v-213h-185v213zM266 1425h185v-213h-185v213z" />
    <glyph glyph-name="aring" unicode="&#xe5;" horiz-adv-x="1099" 
d="M258 296q0 -128 128 -159q38 -8 100 -8t124 24q119 47 158 137q18 42 18 79v178q-47 -36 -197 -54q-58 -7 -118 -17q-213 -32 -213 -180zM553 930q-111 0 -185 -42t-79 -159h-174q8 186 139 276q113 78 300 78t280 -52q127 -71 127 -238v-545q0 -61 7 -90t39 -29t62 10
v-135q-45 -27 -125 -27q-147 0 -147 162q-136 -162 -376 -162t-320 159q-27 56 -27 141t30 143q58 109 191 146t236 49q102 12 151 25q108 29 106 114q0 176 -235 176zM412 1356q0 -60 40 -100t99 -40t99 40t40 100t-40 99q-40 40 -99 40t-99 -40t-40 -99zM319 1356
q1 94 69 162t163 69q95 0 163 -68t68 -163t-67 -162t-163 -69q-95 -1 -164 68t-69 163z" />
    <glyph glyph-name="ae" unicode="&#xe6;" horiz-adv-x="1781" 
d="M1255 930q-134 0 -215 -82t-84 -217h592q-7 206 -169 275q-54 24 -124 24zM258 288q0 -120 128 -151q38 -8 100 -8t125 24q121 47 162 137q19 42 20 79v178q-47 -28 -118 -39q-71 -12 -117 -18t-119 -21q-73 -14 -117 -48q-64 -49 -64 -133zM563 1083q277 0 355 -153
q100 156 358 154q118 0 210 -49q248 -130 247 -558h-777q0 -147 81 -247t237 -101q98 0 171 50t97 155h178q-38 -174 -158 -265t-300 -92q-293 0 -383 205q-59 -108 -179 -156t-232 -48t-178 14q-66 16 -113 52q-105 79 -103 228q0 232 226 295q108 30 237 50t172 35t63 41
t20 76q1 134 -153 156q-43 5 -86 5q-111 0 -185 -42t-79 -159h-174q8 186 139 276q113 78 309 78z" />
    <glyph glyph-name="ccedilla" unicode="&#xe7;" horiz-adv-x="1099" 
d="M528 -199q-40 0 -86 -16l-34 57l108 140q-210 15 -327 162q-117 146 -116 384t129 396q128 159 371 159q293 0 408 -201q39 -69 49 -163h-180q-20 100 -86 155q-66 56 -168 56t-166 -35q-172 -95 -172 -367t168 -366q59 -33 141 -33q129 0 202 68t89 190h178
q-29 -186 -139 -293q-111 -106 -297 -114l-68 -86l5 -5q21 15 77 15t109 -37t53 -101q0 -107 -84 -154q-67 -40 -159 -40q-91 0 -199 39l37 90q87 -35 149 -26q62 8 82 26t20 42t-27 41t-67 17z" />
    <glyph glyph-name="egrave" unicode="&#xe8;" horiz-adv-x="1099" 
d="M588 129q231 0 274 207h172q-36 -178 -154 -268t-298 -91q-244 0 -372 150t-136 405q0 239 140 396q140 155 357 155q256 0 384 -206q106 -170 96 -400h-793q-4 -149 81 -249q85 -99 249 -99zM560 930q-128 0 -211 -86t-91 -213h608q-4 61 -27 117q-48 110 -158 158
q-54 24 -121 24zM276 1497h224l176 -293h-131z" />
    <glyph glyph-name="eacute" unicode="&#xe9;" horiz-adv-x="1099" 
d="M588 129q231 0 274 207h172q-36 -178 -154 -268t-298 -91q-244 0 -372 150t-136 405q0 239 140 396q140 155 357 155q256 0 384 -206q106 -170 96 -400h-793q-4 -149 81 -249q85 -99 249 -99zM560 930q-128 0 -211 -86t-91 -213h608q-4 61 -27 117q-48 110 -158 158
q-54 24 -121 24zM602 1497h223l-268 -293h-131z" />
    <glyph glyph-name="ecircumflex" unicode="&#xea;" horiz-adv-x="1099" 
d="M588 129q231 0 274 207h172q-36 -178 -154 -268t-298 -91q-244 0 -372 150t-136 405q0 239 140 396q140 155 357 155q256 0 384 -206q106 -170 96 -400h-793q-4 -149 81 -249q85 -99 249 -99zM560 930q-128 0 -211 -86t-91 -213h608q-4 61 -27 117q-48 110 -158 158
q-54 24 -121 24zM455 1497h190l213 -293h-172l-141 197l-144 -197h-157z" />
    <glyph glyph-name="edieresis" unicode="&#xeb;" horiz-adv-x="1099" 
d="M588 129q231 0 274 207h172q-36 -178 -154 -268t-298 -91q-244 0 -372 150t-136 405q0 239 140 396q140 155 357 155q256 0 384 -206q106 -170 96 -400h-793q-4 -149 81 -249q85 -99 249 -99zM560 930q-128 0 -211 -86t-91 -213h608q-4 61 -27 117q-48 110 -158 158
q-54 24 -121 24zM651 1425h185v-213h-185v213zM266 1425h185v-213h-185v213z" />
    <glyph glyph-name="igrave" unicode="&#xec;" horiz-adv-x="454" 
d="M141 0v1059h174v-1059h-174zM-45 1497h221l176 -293h-131z" />
    <glyph glyph-name="iacute" unicode="&#xed;" horiz-adv-x="454" 
d="M141 0v1059h174v-1059h-174zM279 1497h223l-269 -293h-131z" />
    <glyph glyph-name="icircumflex" unicode="&#xee;" horiz-adv-x="454" 
d="M141 0v1059h174v-1059h-174zM131 1497h191l213 -293h-173l-141 197l-143 -197h-156z" />
    <glyph glyph-name="idieresis" unicode="&#xef;" horiz-adv-x="454" 
d="M141 0v1059h174v-1059h-174zM328 1425h184v-213h-184v213zM-55 1425h182v-213h-182v213z" />
    <glyph glyph-name="eth" unicode="&#xf0;" horiz-adv-x="1175" 
d="M1102 528q0 -241 -135 -396t-379 -155q-243 0 -380 155q-136 155 -135 381t130 374q129 149 354 149q185 0 285 -114h4q-43 91 -118 181q-76 90 -132 128l-236 -111l-77 82l223 105q-57 50 -144 98l144 92q106 -73 158 -115l245 115l72 -76l-236 -108q357 -296 357 -785z
M339 784q-81 -98 -81 -270t94 -279q94 -106 235 -106q140 0 235 105q96 105 96 276q0 170 -85 272q-85 101 -249 101q-164 -1 -245 -99z" />
    <glyph glyph-name="ntilde" unicode="&#xf1;" 
d="M131 1059h164v-168h4q109 193 344 192q196 0 287 -108q76 -90 78 -279v-696h-174v717q0 98 -58 155q-58 58 -148 58q-241 1 -303 -200q-19 -60 -20 -132v-598h-174v1059zM926 1456q-30 -227 -226 -227q-46 0 -135 41q-100 38 -135 38q-35 1 -70 -23t-30 -62h-107
q28 104 62 146q65 79 141 79t138 -28q60 -28 94 -40q34 -14 67 -14q64 0 94 90h107z" />
    <glyph glyph-name="ograve" unicode="&#xf2;" horiz-adv-x="1175" 
d="M74 529q0 244 136 399t377 155t378 -154t137 -398q0 -243 -135 -399q-135 -155 -379 -155q-243 0 -379 154q-135 154 -135 398zM258 529q0 -188 94 -294t235 -106q140 0 235 105q96 105 96 293t-95 296q-95 107 -234 107q-140 0 -236 -107q-95 -106 -95 -294zM313 1497
h224l176 -293h-131z" />
    <glyph glyph-name="oacute" unicode="&#xf3;" horiz-adv-x="1175" 
d="M74 529q0 244 136 399t377 155t378 -154t137 -398q0 -243 -135 -399q-135 -155 -379 -155q-243 0 -379 154q-135 154 -135 398zM258 529q0 -188 94 -294t235 -106q140 0 235 105q96 105 96 293t-95 296q-95 107 -234 107q-140 0 -236 -107q-95 -106 -95 -294zM639 1497
h223l-268 -293h-131z" />
    <glyph glyph-name="ocircumflex" unicode="&#xf4;" horiz-adv-x="1175" 
d="M74 529q0 244 136 399t377 155t378 -154t137 -398q0 -243 -135 -399q-135 -155 -379 -155q-243 0 -379 154q-135 154 -135 398zM258 529q0 -188 94 -294t235 -106q140 0 235 105q96 105 96 293t-95 296q-95 107 -234 107q-140 0 -236 -107q-95 -106 -95 -294zM492 1497
h190l213 -293h-172l-141 197l-144 -197h-157z" />
    <glyph glyph-name="otilde" unicode="&#xf5;" horiz-adv-x="1175" 
d="M74 529q0 244 136 399t377 155t378 -154t137 -398q0 -243 -135 -399q-135 -155 -379 -155q-243 0 -379 154q-135 154 -135 398zM258 529q0 -188 94 -294t235 -106q140 0 235 105q96 105 96 293t-95 296q-95 107 -234 107q-140 0 -236 -107q-95 -106 -95 -294zM743 1366
q65 0 95 90h106q-12 -92 -63 -164q-59 -63 -162 -63q-48 0 -135 41q-100 38 -135 38q-37 1 -71 -23t-30 -62h-106q28 106 62 147q64 78 142 78q77 0 137 -28t94 -40q34 -14 66 -14z" />
    <glyph glyph-name="odieresis" unicode="&#xf6;" horiz-adv-x="1175" 
d="M74 529q0 244 136 399t377 155t378 -154t137 -398q0 -243 -135 -399q-135 -155 -379 -155q-243 0 -379 154q-135 154 -135 398zM258 529q0 -188 94 -294t235 -106q140 0 235 105q96 105 96 293t-95 296q-95 107 -234 107q-140 0 -236 -107q-95 -106 -95 -294zM688 1425
h184v-213h-184v213zM303 1425h184v-213h-184v213z" />
    <glyph glyph-name="divide" unicode="&#xf7;" horiz-adv-x="1228" 
d="M98 588h1032v-139h-1032v139zM483 940q0 53 39 92t92 39q52 0 92 -39t40 -90t-40 -92q-38 -41 -90 -41t-93 39q-40 39 -40 92zM483 96q0 53 39 92t92 39q52 0 92 -39t40 -90t-40 -91q-38 -40 -90 -40t-93 38q-40 38 -40 91z" />
    <glyph glyph-name="oslash" unicode="&#xf8;" horiz-adv-x="1175" 
d="M258 528q0 -140 61 -247l496 553q-90 96 -228 96t-234 -107q-95 -107 -95 -295zM918 528q0 143 -58 244l-495 -551q92 -92 227 -92t230 105q96 106 96 294zM983 907q119 -145 119 -383q0 -237 -135 -392t-379 -155q-206 0 -338 115l-123 -135l-57 47l127 141
q-125 156 -124 391q1 236 137 392q136 155 362 155t360 -120l119 133l55 -54z" />
    <glyph glyph-name="ugrave" unicode="&#xf9;" 
d="M131 362v697h174v-717q0 -98 57 -156q58 -58 148 -57q161 0 241 91q81 91 83 241v598h174v-1059h-164v168h-4q-106 -189 -344 -191q-290 0 -348 229q-17 71 -17 156zM295 1497h223l176 -293h-131z" />
    <glyph glyph-name="uacute" unicode="&#xfa;" 
d="M131 362v697h174v-717q0 -98 57 -156q58 -58 148 -57q161 0 241 91q81 91 83 241v598h174v-1059h-164v168h-4q-106 -189 -344 -191q-290 0 -348 229q-17 71 -17 156zM621 1497h223l-269 -293h-131z" />
    <glyph glyph-name="ucircumflex" unicode="&#xfb;" 
d="M131 362v697h174v-717q0 -98 57 -156q58 -58 148 -57q161 0 241 91q81 91 83 241v598h174v-1059h-164v168h-4q-106 -189 -344 -191q-290 0 -348 229q-17 71 -17 156zM473 1497h191l213 -293h-172l-142 197l-143 -197h-158z" />
    <glyph glyph-name="udieresis" unicode="&#xfc;" 
d="M131 362v697h174v-717q0 -98 57 -156q58 -58 148 -57q161 0 241 91q81 91 83 241v598h174v-1059h-164v168h-4q-106 -189 -344 -191q-290 0 -348 229q-17 71 -17 156zM670 1425h184v-213h-184v213zM285 1425h184v-213h-184v213z" />
    <glyph glyph-name="yacute" unicode="&#xfd;" horiz-adv-x="1024" 
d="M233 -422q-66 0 -114 19v159q75 -24 115 -24q80 0 131 96l71 178l-420 1053h197l309 -866h4l297 866h185l-461 -1198q-62 -156 -128 -219q-67 -64 -186 -64zM563 1497h223l-268 -293h-131z" />
    <glyph glyph-name="thorn" unicode="&#xfe;" horiz-adv-x="1214" 
d="M956 537q0 77 -19 147q-40 150 -162 213q-62 33 -148 33q-160 0 -248 -126q-72 -103 -74 -274q0 -270 180 -367q63 -34 153 -34t152 35q60 35 97 92t53 131t16 150zM311 915h4q43 88 135 128t210 40q227 0 354 -162t127 -397q0 -236 -124 -391t-360 -156q-159 0 -271 85
q-42 32 -71 79h-4v-544h-174v1865h174v-547z" />
    <glyph glyph-name="ydieresis" unicode="&#xff;" horiz-adv-x="1024" 
d="M233 -422q-66 0 -114 19v159q75 -24 115 -24q80 0 131 96l71 178l-420 1053h197l309 -866h4l297 866h185l-461 -1198q-62 -156 -128 -219q-67 -64 -186 -64zM612 1425h185v-213h-185v213zM227 1425h185v-213h-185v213z" />
    <glyph glyph-name="uni0100" unicode="&#x100;" horiz-adv-x="1327" 
d="M317 1786h699v-113h-699v113zM907 604l-243 682h-5l-247 -682h495zM557 1462h215l571 -1462h-215l-159 440h-619l-164 -440h-200z" />
    <glyph glyph-name="uni0101" unicode="&#x101;" horiz-adv-x="1099" 
d="M209 1397h698v-113h-698v113zM258 296q0 -127 127 -159q37 -8 101 -8t124 24q119 47 158 137q18 42 18 79v178q-47 -36 -197 -54q-58 -7 -118 -17q-213 -32 -213 -180zM553 930q-111 0 -185 -42t-79 -159h-174q8 186 139 276q113 78 300 78t280 -52q127 -71 127 -238
v-545q0 -61 7 -90t39 -29t62 10v-135q-47 -29 -120 -29q-152 0 -152 164q-137 -164 -376 -164t-320 161q-27 56 -27 141t30 143q58 109 191 146t236 49q102 12 151 25q108 29 106 114q0 176 -235 176z" />
    <glyph glyph-name="uni0102" unicode="&#x102;" horiz-adv-x="1327" 
d="M678 1712q88 0 130 46t73 124h104q-23 -131 -105 -207t-221 -76q-272 0 -313 283h103q49 -170 229 -170zM907 604l-243 682h-5l-247 -682h495zM557 1462h215l571 -1462h-215l-159 440h-619l-164 -440h-200z" />
    <glyph glyph-name="uni0103" unicode="&#x103;" horiz-adv-x="1099" 
d="M569 1323q88 0 130 46t73 124h105q-23 -131 -106 -207t-221 -76q-271 0 -312 283h102q49 -170 229 -170zM258 296q0 -127 127 -159q37 -8 101 -8t124 24q119 47 158 137q18 42 18 79v178q-47 -36 -197 -54q-58 -7 -118 -17q-213 -32 -213 -180zM553 930q-111 0 -185 -42
t-79 -159h-174q8 186 139 276q113 78 300 78t280 -52q127 -71 127 -238v-545q0 -61 7 -90t39 -29t62 10v-135q-47 -29 -120 -29q-152 0 -152 164q-137 -164 -376 -164t-320 161q-27 56 -27 141t30 143q58 109 191 146t236 49q102 12 151 25q108 29 106 114q0 176 -235 176z
" />
    <glyph glyph-name="Aogonek" unicode="&#x104;" horiz-adv-x="1327" 
d="M907 604l-243 682h-5l-247 -682h495zM1073 -234q0 -92 79 -92t126 62l65 -37q-72 -127 -221 -127q-71 0 -107 19q-83 44 -81 149q0 77 104 174q45 41 119 86h-29l-159 440h-619l-164 -440h-198l569 1462h215l571 -1462h-102q-168 -142 -168 -234z" />
    <glyph glyph-name="aogonek" unicode="&#x105;" horiz-adv-x="1099" 
d="M486 129q64 0 124 24q119 47 158 137q18 42 18 79v178q-33 -27 -86 -37t-111 -18q-57 -8 -117 -16q-214 -30 -214 -189q0 -158 228 -158zM659 -260q0 72 99 169q41 40 110 83q-72 33 -71 147q-136 -162 -376 -162t-320 159q-27 56 -27 141t30 143q58 109 191 146t236 49
q102 12 151 25q108 29 106 114q0 176 -235 176q-111 0 -185 -42t-79 -159h-174q8 186 139 276q113 78 300 78t280 -52q127 -71 127 -238v-545q0 -61 7 -90q6 -29 36 -29t65 10v-135q-45 -27 -125 -27h-4q-143 -126 -141 -217q0 -34 18 -60t60 -26q78 0 127 62l65 -37
q-72 -127 -221 -127q-189 0 -189 168z" />
    <glyph glyph-name="Cacute" unicode="&#x106;" horiz-adv-x="1478" 
d="M1020 1860l-268 -293h-131l176 293h223zM789 1333q-256 0 -382 -173t-124 -419q0 -423 272 -563q93 -49 207 -49q202 0 315 117t125 305h195q-29 -276 -191 -430t-442 -154q-328 -1 -502 211t-174 546t177 548q87 104 217 164t272 61q399 0 559 -269q53 -89 69 -206h-194
q-33 156 -145 234t-254 77z" />
    <glyph glyph-name="cacute" unicode="&#x107;" horiz-adv-x="1099" 
d="M831 1497l-268 -293h-131l176 293h223zM430 895q-172 -96 -172 -367q0 -272 168 -366q59 -33 141 -33q129 0 202 68t89 190h178q-28 -197 -146 -303t-339 -106t-350 148q-129 149 -128 395q1 245 129 403q128 159 371 159q293 0 408 -201q39 -69 49 -163h-180
q-20 100 -86 155q-66 56 -168 56t-166 -35z" />
    <glyph glyph-name="uni0108" unicode="&#x108;" horiz-adv-x="1478" 
d="M684 1888h190l213 -293h-172l-141 197l-143 -197h-158zM780 1497q234 0 402 -123t200 -352h-194q-33 156 -145 234t-254 77q-256 0 -382 -173t-124 -419q0 -423 272 -563q95 -49 207 -49q203 0 315 117q113 117 125 305h195q-29 -276 -191 -431t-442 -155
q-326 1 -501 213t-175 546t183 554q182 219 509 219z" />
    <glyph glyph-name="uni0109" unicode="&#x109;" horiz-adv-x="1099" 
d="M487 1499h191l213 -293h-172l-141 197l-144 -197h-158zM430 895q-172 -96 -172 -367t167 -366q58 -33 142 -33q129 0 202 68t89 190h178q-28 -197 -146 -305t-339 -107q-221 0 -350 150t-128 396q1 245 129 403q128 159 371 159q293 0 408 -201q39 -69 49 -163h-180
q-20 100 -86 155q-66 56 -168 56t-166 -35z" />
    <glyph glyph-name="uni010A" unicode="&#x10a;" horiz-adv-x="1478" 
d="M870 1624h-184v213h184v-213zM780 1497q234 0 402 -123t200 -352h-194q-33 156 -145 234t-254 77q-256 0 -382 -173t-124 -419q0 -423 272 -563q95 -49 207 -49q203 0 315 117q113 117 125 305h195q-29 -276 -191 -431t-442 -155q-326 1 -501 213t-175 546t183 554
q182 219 509 219z" />
    <glyph glyph-name="uni010B" unicode="&#x10b;" horiz-adv-x="1099" 
d="M674 1237h-185v213h185v-213zM430 895q-172 -96 -172 -367t167 -366q58 -33 142 -33q129 0 202 68t89 190h178q-28 -197 -146 -305t-339 -107q-221 0 -350 150t-128 396q1 245 129 403q128 159 371 159q293 0 408 -201q39 -69 49 -163h-180q-20 100 -86 155
q-66 56 -168 56t-166 -35z" />
    <glyph glyph-name="uni010C" unicode="&#x10c;" horiz-adv-x="1478" 
d="M874 1595h-190l-213 293h172l141 -196l144 196h157zM780 1497q234 0 402 -123t200 -352h-194q-33 156 -145 234t-254 77q-256 0 -382 -173t-124 -419q0 -423 272 -563q95 -49 207 -49q203 0 315 117q113 117 125 305h195q-29 -276 -191 -431t-442 -155q-326 1 -501 213
t-175 546t183 554q182 219 509 219z" />
    <glyph glyph-name="uni010D" unicode="&#x10d;" horiz-adv-x="1099" 
d="M670 1206h-191l-213 293h172l142 -196l143 196h158zM430 895q-172 -96 -172 -367t167 -366q58 -33 142 -33q129 0 202 68t89 190h178q-28 -197 -146 -305t-339 -107q-221 0 -350 150t-128 396q1 245 129 403q128 159 371 159q293 0 408 -201q39 -69 49 -163h-180
q-20 100 -86 155q-66 56 -168 56t-166 -35z" />
    <glyph glyph-name="uni010E" unicode="&#x10e;" horiz-adv-x="1441" 
d="M741 1595h-190l-213 293h172l141 -196l144 196h157zM678 164q168 0 290 83t174 262q28 95 28 228t-26 237q-81 327 -462 324h-328v-1134h324zM1364 766q0 -766 -702 -766h-502v1462h502q338 0 520 -172t182 -524z" />
    <glyph glyph-name="uni010F" unicode="&#x10f;" horiz-adv-x="1214" 
d="M1233 1462h223l-153 -293h-123zM342 244q84 -115 244 -115t242 115t81 284q0 272 -180 368q-63 34 -153 34t-151 -35q-60 -35 -97 -92q-70 -108 -70 -276t84 -283zM899 143q-82 -168 -344 -168q-117 0 -208 45q-175 87 -243 299q-31 100 -30 213q0 237 124 394t359 157
q160 0 271 -87q42 -32 71 -78h4v544h174v-1462h-174v143h-4z" />
    <glyph glyph-name="uni0110" unicode="&#x110;" horiz-adv-x="1441" 
d="M354 829h439v-131h-439v-534h324q168 0 290 83t174 262q28 95 28 228t-26 237q-81 327 -462 324h-328v-469zM1364 766q0 -766 -702 -766h-502v698h-144v131h144v633h502q338 0 520 -172t182 -524z" />
    <glyph glyph-name="uni0111" unicode="&#x111;" horiz-adv-x="1224" 
d="M342 244q84 -115 244 -115t242 115t81 284q0 272 -180 368q-63 34 -153 34t-151 -35q-60 -35 -97 -92q-70 -108 -70 -276t84 -283zM899 143q-82 -168 -344 -168q-117 0 -208 45q-175 87 -243 299q-31 100 -30 213q0 237 124 394t359 157q160 0 271 -87q42 -32 71 -78h4
v276h-348v109h348v159h174v-159h176v-109h-176v-1194h-174v143h-4z" />
    <glyph glyph-name="uni0112" unicode="&#x112;" horiz-adv-x="1251" 
d="M305 1786h699v-113h-699v113zM160 1462h1009v-164h-815v-464h760v-164h-760v-506h822v-164h-1016v1462z" />
    <glyph glyph-name="uni0113" unicode="&#x113;" horiz-adv-x="1099" 
d="M227 1397h699v-113h-699v113zM560 930q-128 0 -211 -86t-91 -213h608q-4 61 -27 117q-48 110 -158 158q-54 24 -121 24zM588 129q231 0 274 207h172q-36 -178 -154 -269t-298 -92q-242 0 -371 151t-137 406q0 239 140 396q140 155 357 155q256 0 384 -206
q106 -170 96 -400h-793q-4 -149 81 -249q85 -99 249 -99z" />
    <glyph glyph-name="uni0114" unicode="&#x114;" horiz-adv-x="1251" 
d="M666 1712q88 0 130 46t72 124h105q-23 -131 -106 -207t-221 -76q-271 0 -312 283h102q49 -170 230 -170zM160 1462h1009v-164h-815v-464h760v-164h-760v-506h822v-164h-1016v1462z" />
    <glyph glyph-name="uni0115" unicode="&#x115;" horiz-adv-x="1099" 
d="M588 1323q88 0 130 46t73 124h104q-23 -131 -105 -207t-222 -76q-271 0 -312 283h102q49 -170 230 -170zM560 930q-128 0 -211 -86t-91 -213h608q-4 61 -27 117q-48 110 -158 158q-54 24 -121 24zM588 129q231 0 274 207h172q-36 -178 -154 -269t-298 -92
q-242 0 -371 151t-137 406q0 239 140 396q140 155 357 155q256 0 384 -206q106 -170 96 -400h-793q-4 -149 81 -249q85 -99 249 -99z" />
    <glyph glyph-name="uni0116" unicode="&#x116;" horiz-adv-x="1251" 
d="M745 1624h-184v213h184v-213zM160 1462h1009v-164h-815v-464h760v-164h-760v-506h822v-164h-1016v1462z" />
    <glyph glyph-name="uni0117" unicode="&#x117;" horiz-adv-x="1099" 
d="M668 1237h-185v213h185v-213zM560 930q-128 0 -211 -86t-91 -213h608q-4 61 -27 117q-48 110 -158 158q-54 24 -121 24zM588 129q231 0 274 207h172q-36 -178 -154 -269t-298 -92q-242 0 -371 151t-137 406q0 239 140 396q140 155 357 155q256 0 384 -206
q106 -170 96 -400h-793q-4 -149 81 -249q85 -99 249 -99z" />
    <glyph glyph-name="Eogonek" unicode="&#x118;" horiz-adv-x="1251" 
d="M160 0v1462h1009v-164h-815v-464h760v-164h-760v-506h822v-164h-103q-168 -142 -168 -234t79 -92t126 62l66 -37q-72 -127 -222 -127q-71 0 -107 19q-83 44 -81 149q0 77 104 174q45 41 119 86h-829z" />
    <glyph glyph-name="eogonek" unicode="&#x119;" horiz-adv-x="1099" 
d="M560 930q-128 0 -211 -86t-91 -213h608q-4 61 -27 117q-48 110 -158 158q-54 24 -121 24zM512 -428q-120 0 -166 73q-35 52 -16 132q24 101 184 205q-211 19 -325 171q-113 152 -114 385t139 390q140 155 357 155q256 0 384 -206q106 -170 96 -400h-793q-4 -149 81 -249
q85 -99 249 -99q231 0 274 207h172q-34 -174 -146 -263t-282 -96q-143 -123 -143 -213t78 -90t127 62l65 -37q-72 -127 -221 -127z" />
    <glyph glyph-name="uni011A" unicode="&#x11a;" horiz-adv-x="1251" 
d="M750 1595h-191l-213 293h172l141 -196l144 196h158zM160 1462h1009v-164h-815v-464h760v-164h-760v-506h822v-164h-1016v1462z" />
    <glyph glyph-name="uni011B" unicode="&#x11b;" horiz-adv-x="1099" 
d="M668 1206h-191l-213 293h172l142 -196l143 196h158zM560 930q-128 0 -211 -86t-91 -213h608q-4 61 -27 117q-48 110 -158 158q-54 24 -121 24zM588 129q231 0 274 207h172q-36 -178 -154 -269t-298 -92q-242 0 -371 151t-137 406q0 239 140 396q140 155 357 155
q256 0 384 -206q106 -170 96 -400h-793q-4 -149 81 -249q85 -99 249 -99z" />
    <glyph glyph-name="uni011C" unicode="&#x11c;" horiz-adv-x="1554" 
d="M696 1888h191l213 -293h-172l-142 197l-143 -197h-158zM88 710q0 152 44 296q91 300 348 427q130 65 276 65q279 -1 449 -121q169 -120 208 -365h-194q-27 159 -146 240q-118 81 -270 81t-247 -53q-96 -53 -156 -140q-120 -172 -118 -420q1 -248 134 -420
q133 -171 361 -171q227 0 359 138q127 138 117 339h-467v164h641v-770h-122l-52 182q-164 -217 -472 -217t-501 217q-192 216 -192 528z" />
    <glyph glyph-name="uni011D" unicode="&#x11d;" horiz-adv-x="1175" 
d="M492 1499h190l213 -293h-172l-141 197l-144 -197h-157zM557 141q159 0 237 121t78 289q0 253 -161 346q-57 33 -141 33t-142 -32q-170 -92 -170 -357t156 -364q57 -36 143 -36zM1044 90q0 -262 -118 -391t-385 -129q-266 0 -381 166q-41 59 -45 145h174q4 -86 89 -129
q86 -43 178 -43q320 0 325 402v69h-4q-45 -98 -137 -145t-202 -47q-217 0 -341 155q-125 155 -124 379q1 223 107 375q129 186 383 186q101 0 185 -44t131 -132h2v152h163v-969z" />
    <glyph glyph-name="uni011E" unicode="&#x11e;" horiz-adv-x="1554" 
d="M803 1712q88 0 130 46t73 124h104q-24 -131 -106 -207t-220 -76q-271 0 -313 283h102q49 -170 230 -170zM88 710q0 152 44 296q91 300 348 427q130 65 276 65q279 -1 449 -121q169 -120 208 -365h-194q-27 159 -146 240q-118 81 -270 81t-247 -53q-96 -53 -156 -140
q-120 -172 -118 -420q1 -248 134 -420q133 -171 361 -171q227 0 359 138q127 138 117 339h-467v164h641v-770h-122l-52 182q-164 -217 -472 -217t-501 217q-192 216 -192 528z" />
    <glyph glyph-name="uni011F" unicode="&#x11f;" horiz-adv-x="1175" 
d="M598 1323q88 0 130 46t73 124h104q-23 -131 -105 -207t-221 -76q-270 0 -313 283h103q49 -170 229 -170zM557 141q159 0 237 121t78 289q0 253 -161 346q-57 33 -141 33t-142 -32q-170 -92 -170 -357t156 -364q57 -36 143 -36zM1044 90q0 -262 -118 -391t-385 -129
q-266 0 -381 166q-41 59 -45 145h174q4 -86 89 -129q86 -43 178 -43q320 0 325 402v69h-4q-45 -98 -137 -145t-202 -47q-217 0 -341 155q-125 155 -124 379q1 223 107 375q129 186 383 186q101 0 185 -44t131 -132h2v152h163v-969z" />
    <glyph glyph-name="uni0120" unicode="&#x120;" horiz-adv-x="1554" 
d="M881 1624h-185v213h185v-213zM88 710q0 152 44 296q91 300 348 427q130 65 276 65q279 -1 449 -121q169 -120 208 -365h-194q-27 159 -146 240q-118 81 -270 81t-247 -53q-96 -53 -156 -140q-120 -172 -118 -420q1 -248 134 -420q133 -171 361 -171q227 0 359 138
q127 138 117 339h-467v164h641v-770h-122l-52 182q-164 -217 -472 -217t-501 217q-192 216 -192 528z" />
    <glyph glyph-name="uni0121" unicode="&#x121;" horiz-adv-x="1175" 
d="M678 1237h-184v213h184v-213zM557 141q159 0 237 121t78 289q0 253 -161 346q-57 33 -141 33t-142 -32q-170 -92 -170 -357t156 -364q57 -36 143 -36zM1044 90q0 -262 -118 -391t-385 -129q-266 0 -381 166q-41 59 -45 145h174q4 -86 89 -129q86 -43 178 -43
q320 0 325 402v69h-4q-45 -98 -137 -145t-202 -47q-217 0 -341 155q-125 155 -124 379q1 223 107 375q129 186 383 186q101 0 185 -44t131 -132h2v152h163v-969z" />
    <glyph glyph-name="uni0122" unicode="&#x122;" horiz-adv-x="1554" 
d="M657 -102h228v-158q1 -88 -55 -129t-148 -41v72q77 20 81 56q1 9 1 19h-107v181zM88 710q0 152 44 296q91 300 348 427q130 65 276 65q279 -1 449 -121q169 -120 208 -365h-194q-27 159 -146 240q-118 81 -270 81t-247 -53q-96 -53 -156 -140q-120 -172 -118 -420
q1 -248 134 -420q133 -171 361 -171q227 0 359 138q127 138 117 339h-467v164h641v-770h-122l-52 182q-164 -217 -472 -217t-501 217q-192 216 -192 528z" />
    <glyph glyph-name="uni0123" unicode="&#x123;" horiz-adv-x="1175" 
d="M698 1282h-227v158q0 170 203 170v-72q-77 -20 -81 -57q-1 -10 -1 -19h106v-180zM557 141q159 0 237 121t78 289q0 253 -161 346q-57 33 -141 33t-142 -32q-170 -92 -170 -357t156 -364q57 -36 143 -36zM1044 90q0 -262 -118 -391t-385 -129q-266 0 -381 166
q-41 59 -45 145h174q4 -86 89 -129q86 -43 178 -43q320 0 325 402v69h-4q-45 -98 -137 -145t-202 -47q-217 0 -341 155q-125 155 -124 379q1 223 107 375q129 186 383 186q101 0 185 -44t131 -132h2v152h163v-969z" />
    <glyph glyph-name="uni0124" unicode="&#x124;" horiz-adv-x="1478" 
d="M639 1888h190l213 -293h-172l-141 197l-143 -197h-158zM160 1462h194v-628h770v628h195v-1462h-195v670h-770v-670h-194v1462z" />
    <glyph glyph-name="uni0125" unicode="&#x125;" 
d="M457 1888h190l213 -293h-172l-141 197l-144 -197h-157zM131 1462h174v-559h4q37 90 141 138q88 42 192 42q197 0 288 -108q76 -90 78 -279v-696h-174v717q0 98 -58 155q-58 58 -148 58q-241 1 -303 -200q-19 -60 -20 -132v-598h-174v1462z" />
    <glyph glyph-name="uni0126" unicode="&#x126;" horiz-adv-x="1478" 
d="M1124 786v263h-770v-263h770zM160 1462h194v-295h770v295h195v-1462h-195v627h-770v-627h-194v1462z" />
    <glyph glyph-name="uni0127" unicode="&#x127;" horiz-adv-x="1148" 
d="M-35 1194v109h176v159h174v-159h349v-109h-349v-291h4q37 90 141 138q88 42 192 42q197 0 288 -108q76 -90 78 -279v-696h-174v717q0 98 -58 155q-58 58 -147 58q-241 1 -304 -200q-19 -60 -20 -132v-598h-174v1194h-176z" />
    <glyph glyph-name="uni0128" unicode="&#x128;" horiz-adv-x="530" 
d="M262 1671q-103 39 -148 39t-70 -47q-7 -12 -17 -39h-107q20 94 70 160t147 65q58 0 148 -40t137 -42q67 0 94 91h107q-12 -90 -66 -162q-52 -64 -129 -65t-166 40zM168 1462h194v-1462h-194v1462z" />
    <glyph glyph-name="uni0129" unicode="&#x129;" horiz-adv-x="454" 
d="M518 1307q-54 -66 -130 -66t-165 41q-103 39 -145 39t-73 -47q-7 -12 -17 -39h-107q21 94 71 160t146 65q58 0 148 -40t137 -42q67 0 94 90h107q-12 -90 -66 -161zM141 0v1059h174v-1059h-174z" />
    <glyph glyph-name="uni012A" unicode="&#x12a;" horiz-adv-x="530" 
d="M-82 1786h698v-113h-698v113zM168 1462h194v-1462h-194v1462z" />
    <glyph glyph-name="uni012B" unicode="&#x12b;" horiz-adv-x="454" 
d="M-119 1397h699v-113h-699v113zM141 0v1059h174v-1059h-174z" />
    <glyph glyph-name="uni012C" unicode="&#x12c;" horiz-adv-x="530" 
d="M279 1712q88 0 130 46t72 124h105q-23 -131 -106 -207t-221 -76q-271 0 -312 283h102q49 -170 230 -170zM168 1462h194v-1462h-194v1462z" />
    <glyph glyph-name="uni012D" unicode="&#x12d;" horiz-adv-x="454" 
d="M242 1323q88 0 130 46t72 124h105q-23 -131 -106 -207t-221 -76q-271 0 -312 283h102q49 -170 230 -170zM141 0v1059h174v-1059h-174z" />
    <glyph glyph-name="uni012E" unicode="&#x12e;" horiz-adv-x="530" 
d="M136 -393q-54 37 -54 109t31 119q64 96 176 165h-121v1462h194v-1462q-91 -88 -122 -142t-31 -97q0 -89 68 -89t116 62l58 -37q-71 -127 -187 -127q-74 0 -128 37z" />
    <glyph glyph-name="uni012F" unicode="&#x12f;" horiz-adv-x="454" 
d="M89 -393q-54 37 -54 109t31 119q64 96 176 165h-101v1059h174v-1059q-91 -88 -122 -142t-31 -97q0 -89 68 -89t116 62l57 -37q-71 -127 -186 -127q-74 0 -128 37zM315 1249h-174v213h174v-213z" />
    <glyph glyph-name="uni0130" unicode="&#x130;" horiz-adv-x="530" 
d="M358 1624h-184v213h184v-213zM168 1462h194v-1462h-194v1462z" />
    <glyph glyph-name="dotlessi" unicode="&#x131;" horiz-adv-x="454" 
d="M141 0v1059h174v-1059h-174z" />
    <glyph glyph-name="uni0132" unicode="&#x132;" horiz-adv-x="1576" 
d="M559 481h195v-61q0 -214 117 -269q46 -22 118 -22q133 0 183 72t51 192v1069h194v-1097q0 -270 -226 -365q-83 -35 -206 -35q-205 0 -315 109t-111 317v90zM168 1462h194v-1462h-194v1462z" />
    <glyph glyph-name="uni0133" unicode="&#x133;" horiz-adv-x="897" 
d="M449 -252h36q57 0 78 32q20 32 21 114v1165h174v-1194q0 -141 -69 -206t-185 -65q-49 0 -90 9v149q20 -4 35 -4zM758 1249h-174v213h174v-213zM141 1059h174v-1059h-174v1059zM315 1249h-174v213h174v-213z" />
    <glyph glyph-name="uni0134" unicode="&#x134;" horiz-adv-x="1062" 
d="M705 1888h190l213 -293h-172l-141 197l-144 -197h-157zM45 481h195v-61q0 -214 117 -269q46 -22 118 -22q133 0 183 72t51 192v1069h194v-1097q0 -270 -226 -365q-83 -35 -206 -35q-205 0 -315 109t-111 317v90z" />
    <glyph glyph-name="uni0135" unicode="&#x135;" horiz-adv-x="454" 
d="M131 1499h191l213 -293h-173l-141 197l-143 -197h-158zM6 -252h37q57 0 78 32q20 32 20 114v1165h174v-1194q-1 -141 -69 -206t-185 -65q-49 0 -90 9v149q20 -4 35 -4z" />
    <glyph glyph-name="uni0136" unicode="&#x136;" horiz-adv-x="1366" 
d="M594 -102h227v-158q0 -170 -203 -170v72q58 15 70 32t12 43h-106v181zM160 1462h194v-729l742 729h252l-617 -590l641 -872h-246l-528 739l-244 -227v-512h-194v1462z" />
    <glyph glyph-name="uni0137" unicode="&#x137;" horiz-adv-x="1062" 
d="M451 -102h227v-158q0 -170 -203 -170v72q77 20 81 56q1 9 1 19h-106v181zM141 1462h174v-866l484 463h233l-420 -385l451 -674h-221l-363 553l-164 -152v-401h-174v1462z" />
    <glyph glyph-name="uni0138" unicode="&#x138;" horiz-adv-x="1052" 
d="M131 1059h174v-463l483 463h234l-420 -385l451 -674h-222l-362 553l-164 -152v-401h-174v1059z" />
    <glyph glyph-name="uni0139" unicode="&#x139;" 
d="M367 1888h223l-268 -293h-132zM160 1462h194v-1298h774v-164h-968v1462z" />
    <glyph glyph-name="uni013A" unicode="&#x13a;" horiz-adv-x="454" 
d="M309 1888h223l-268 -293h-131zM141 1462h174v-1462h-174v1462z" />
    <glyph glyph-name="uni013B" unicode="&#x13b;" 
d="M518 -102h227v-158q0 -88 -55 -129t-147 -41v72q57 15 70 33q12 18 12 42h-107v181zM160 1462h194v-1298h774v-164h-968v1462z" />
    <glyph glyph-name="uni013C" unicode="&#x13c;" horiz-adv-x="454" 
d="M115 -102h227v-158q0 -170 -203 -170v72q77 20 81 56q1 9 1 19h-106v181zM141 1462h174v-1462h-174v1462z" />
    <glyph glyph-name="uni013D" unicode="&#x13d;" 
d="M618 1462h224l-154 -293h-123zM160 1462h194v-1298h774v-164h-968v1462z" />
    <glyph glyph-name="uni013E" unicode="&#x13e;" horiz-adv-x="618" 
d="M453 1462h155v-540h-155v540zM141 1462h174v-1462h-174v1462z" />
    <glyph glyph-name="uni013F" unicode="&#x13f;" 
d="M829 690h-184v213h184v-213zM160 1462h194v-1298h774v-164h-968v1462z" />
    <glyph glyph-name="uni0140" unicode="&#x140;" horiz-adv-x="700" 
d="M645 690h-184v213h184v-213zM141 1462h174v-1462h-174v1462z" />
    <glyph glyph-name="Lslash" unicode="&#x141;" 
d="M160 1462h194v-676l467 328v-156l-467 -327v-467h774v-164h-968v492l-160 -115v155l160 115v815z" />
    <glyph glyph-name="lslash" unicode="&#x142;" horiz-adv-x="454" 
d="M141 1462h174v-520l144 115v-146l-144 -114v-797h-174v657l-141 -112v145l141 115v657z" />
    <glyph glyph-name="Nacute" unicode="&#x143;" horiz-adv-x="1478" 
d="M1040 1860l-268 -293h-131l176 293h223zM1139 276v1186h184v-1462h-213l-764 1174h-4v-1174h-184v1462h207l770 -1186h4z" />
    <glyph glyph-name="nacute" unicode="&#x144;" 
d="M850 1497l-268 -293h-131l176 293h223zM295 1059v-168h4q109 193 344 192q196 0 287 -108q76 -90 78 -279v-696h-174v717q0 98 -58 155q-58 58 -148 58q-241 1 -303 -200q-19 -60 -20 -132v-598h-174v1059h164z" />
    <glyph glyph-name="uni0145" unicode="&#x145;" horiz-adv-x="1478" 
d="M621 -102h227v-158q0 -170 -203 -170v72q77 20 81 56q1 9 1 19h-106v181zM158 1462h207l770 -1186h4v1186h184v-1462h-213l-764 1174h-4v-1174h-184v1462z" />
    <glyph glyph-name="uni0146" unicode="&#x146;" 
d="M453 -102h227v-158q0 -170 -203 -170v72q77 20 81 56q1 9 1 19h-106v181zM131 1059h164v-168h4q109 193 344 192q196 0 287 -108q76 -90 78 -279v-696h-174v717q0 98 -58 155q-58 58 -148 58q-241 1 -303 -200q-19 -60 -20 -132v-598h-174v1059z" />
    <glyph glyph-name="uni0147" unicode="&#x147;" horiz-adv-x="1478" 
d="M831 1595h-190l-213 293h172l141 -196l144 196h157zM158 1462h207l770 -1186h4v1186h184v-1462h-213l-764 1174h-4v-1174h-184v1462z" />
    <glyph glyph-name="uni0148" unicode="&#x148;" 
d="M668 1206h-191l-213 293h172l142 -196l143 196h158zM131 1059h164v-168h4q109 193 344 192q196 0 287 -108q76 -90 78 -279v-696h-174v717q0 98 -58 155q-58 58 -148 58q-241 1 -303 -200q-19 -60 -20 -132v-598h-174v1059z" />
    <glyph glyph-name="uni0149" unicode="&#x149;" horiz-adv-x="1357" 
d="M37 1462h227v-227q0 -204 -125 -277q-43 -25 -100 -24v102q92 0 114 128q5 36 5 71h-121v227zM350 1059h164v-168h4q109 193 344 192q196 0 287 -108q76 -90 78 -279v-696h-174v717q1 98 -57 155q-58 58 -148 58q-241 1 -304 -200q-19 -60 -20 -132v-598h-174v1059z" />
    <glyph glyph-name="uni014A" unicode="&#x14a;" horiz-adv-x="1478" 
d="M969 -242q49 0 81 8q62 17 79 87q9 37 10 96v16l-793 1209h-4v-1174h-184v1462h207l770 -1186h4v1186h184v-1544q0 -167 -87 -252q-75 -70 -243 -72q-90 0 -155 19v160q82 -15 131 -15z" />
    <glyph glyph-name="uni014B" unicode="&#x14b;" 
d="M712 -252q60 0 91 37t31 141v791q0 98 -58 155q-58 58 -148 58q-241 1 -303 -200q-19 -60 -20 -132v-598h-174v1059h164v-168h4q109 193 344 192q196 0 287 -108q76 -90 78 -279v-798q0 -164 -79 -234t-216 -70q-81 0 -133 15v149q72 -10 132 -10z" />
    <glyph glyph-name="uni014C" unicode="&#x14c;" horiz-adv-x="1556" 
d="M432 1786h698v-113h-698v113zM272 731q0 -111 29 -219q63 -232 248 -331q96 -52 229 -52q252 0 387 190q119 168 119 412t-119 412q-135 190 -386 190t-388 -190q-119 -168 -119 -412zM1303 1264q176 -212 176 -532t-176 -533q-193 -232 -525 -233t-524 233
q-176 211 -176 531t185 544t515 223q331 0 525 -233z" />
    <glyph glyph-name="uni014D" unicode="&#x14d;" horiz-adv-x="1175" 
d="M242 1397h698v-113h-698v113zM258 529q0 -188 94 -294t235 -106q140 0 235 105q96 105 96 293t-95 296q-95 107 -234 107q-140 0 -236 -107q-95 -106 -95 -294zM74 529q0 244 136 399t377 155t378 -154t137 -398q0 -243 -136 -400q-136 -156 -378 -156q-241 0 -378 155
q-136 155 -136 399z" />
    <glyph glyph-name="uni014E" unicode="&#x14e;" horiz-adv-x="1556" 
d="M793 1712q88 0 130 46t72 124h105q-23 -131 -106 -207t-221 -76q-271 0 -312 283h102q49 -170 230 -170zM272 731q0 -111 29 -219q63 -232 248 -331q96 -52 229 -52q252 0 387 190q119 168 119 412t-119 412q-135 190 -386 190t-388 -190q-119 -168 -119 -412zM1303 1264
q176 -212 176 -532t-176 -533q-193 -232 -525 -233t-524 233q-176 211 -176 531t185 544t515 223q331 0 525 -233z" />
    <glyph glyph-name="uni014F" unicode="&#x14f;" horiz-adv-x="1175" 
d="M602 1323q88 0 130 46t73 124h104q-23 -131 -105 -207t-221 -76q-270 0 -313 283h103q49 -170 229 -170zM258 529q0 -188 94 -294t235 -106q140 0 235 105q96 105 96 293t-95 296q-95 107 -234 107q-140 0 -236 -107q-95 -106 -95 -294zM74 529q0 244 136 399t377 155
t378 -154t137 -398q0 -243 -136 -400q-136 -156 -378 -156q-241 0 -378 155q-136 155 -136 399z" />
    <glyph glyph-name="uni0150" unicode="&#x150;" horiz-adv-x="1556" 
d="M709 1888h215l-246 -293h-135zM1028 1888h215l-246 -293h-135zM272 731q0 -111 29 -219q63 -232 248 -331q96 -52 229 -52q252 0 387 190q119 168 119 412t-119 412q-135 190 -386 190t-388 -190q-119 -168 -119 -412zM1303 1264q176 -212 176 -532t-176 -533
q-193 -232 -525 -233t-524 233q-176 211 -176 531t185 544t515 223q331 0 525 -233z" />
    <glyph glyph-name="uni0151" unicode="&#x151;" horiz-adv-x="1175" 
d="M518 1499h215l-246 -293h-135zM838 1499h215l-246 -293h-135zM258 529q0 -188 94 -294t235 -106q140 0 235 105q96 105 96 293t-95 296q-95 107 -234 107q-140 0 -236 -107q-95 -106 -95 -294zM74 529q0 244 136 399t377 155t378 -154t137 -398q0 -243 -136 -400
q-136 -156 -378 -156q-241 0 -378 155q-136 155 -136 399z" />
    <glyph glyph-name="OE" unicode="&#x152;" horiz-adv-x="2199" 
d="M742 129q173 0 280 82q108 82 106 207v616q0 94 -36 150q-36 55 -122 102q-87 47 -208 47q-234 0 -362 -177t-128 -435q0 -259 125 -421q61 -80 153 -125q94 -46 192 -46zM1128 141h-4q-80 -127 -265 -163q-56 -11 -111 -11q-314 0 -492 213t-178 549q0 335 184 552
q184 216 502 216q179 0 298 -86q40 -29 62 -70h4v121h977v-164h-782v-464h717v-164h-717v-506h795v-164h-990v141z" />
    <glyph glyph-name="oe" unicode="&#x153;" horiz-adv-x="1824" 
d="M555 1083q123 1 218 -37t149 -149q55 94 158 140t226 46q124 0 216 -48q181 -94 230 -322q24 -111 17 -236h-768q-4 -144 76 -246t230 -102q104 0 180 54t106 153h166q-104 -358 -452 -359q-296 0 -385 207q-87 -205 -367 -207q-240 0 -362 158q-121 158 -120 400
t123 395t359 153zM1585 631q0 135 -76 217t-213 82t-217 -84t-78 -215h584zM699 165q151 97 151 369t-148 361q-57 35 -143 35t-143 -37q-158 -103 -158 -385q0 -155 68 -257q79 -122 229 -122q88 0 144 36z" />
    <glyph glyph-name="uni0154" unicode="&#x154;" horiz-adv-x="1402" 
d="M745 1888h224l-269 -293h-131zM760 788q158 0 236 51q102 67 102 210q0 111 -62 181t-198 68h-484v-510h406zM160 1462h688q209 0 327 -102t117 -281q0 -133 -60 -233t-194 -137v-4q164 -31 202 -199q16 -73 21 -170q5 -96 13 -150q19 -127 69 -186h-217q-31 36 -35 116
q-8 188 -17 243t-21 103q-40 164 -224 163h-475v-625h-194v1462z" />
    <glyph glyph-name="uni0155" unicode="&#x155;" horiz-adv-x="681" 
d="M467 1499h223l-268 -293h-131zM125 1059h164v-223h4q63 129 155 190t234 57v-184q-298 0 -363 -248q-20 -80 -20 -180v-471h-174v1059z" />
    <glyph glyph-name="uni0156" unicode="&#x156;" horiz-adv-x="1402" 
d="M604 -102h227v-158q0 -88 -55 -129t-147 -41v72q57 15 70 33q12 18 12 42h-107v181zM760 788q158 0 236 51q102 67 102 210q0 111 -62 181t-198 68h-484v-510h406zM160 1462h688q209 0 327 -102t117 -281q0 -133 -60 -233t-194 -137v-4q164 -31 202 -199q16 -73 21 -170
q5 -96 13 -150q19 -127 69 -186h-217q-31 36 -35 116q-8 188 -17 243t-21 103q-40 164 -224 163h-475v-625h-194v1462z" />
    <glyph glyph-name="uni0157" unicode="&#x157;" horiz-adv-x="681" 
d="M98 -102h228v-158q0 -88 -56 -129t-147 -41v72q77 20 81 56q1 9 1 19h-107v181zM125 1059h164v-223h4q63 129 155 190t234 57v-184q-298 0 -363 -248q-20 -80 -20 -180v-471h-174v1059z" />
    <glyph glyph-name="uni0158" unicode="&#x158;" horiz-adv-x="1402" 
d="M758 1595h-191l-213 293h172l142 -196l143 196h158zM760 788q158 0 236 51q102 67 102 210q0 111 -62 181t-198 68h-484v-510h406zM160 1462h688q209 0 327 -102t117 -281q0 -133 -60 -233t-194 -137v-4q164 -31 202 -199q16 -73 21 -170q5 -96 13 -150q19 -127 69 -186
h-217q-31 36 -35 116q-8 188 -17 243t-21 103q-40 164 -224 163h-475v-625h-194v1462z" />
    <glyph glyph-name="uni0159" unicode="&#x159;" horiz-adv-x="681" 
d="M496 1206h-191l-213 293h172l142 -196l143 196h158zM125 1059h164v-223h4q63 129 155 190t234 57v-184q-298 0 -363 -248q-20 -80 -20 -180v-471h-174v1059z" />
    <glyph glyph-name="Sacute" unicode="&#x15a;" horiz-adv-x="1327" 
d="M965 1860l-269 -293h-131l176 293h224zM315 1085q0 -69 40 -111q72 -75 271 -116t306 -76q106 -35 173 -82q146 -102 146 -309q0 -206 -186 -324q-158 -100 -402 -100q-243 0 -415 129t-172 385h184q0 -172 130 -268q110 -82 296 -84q251 0 338 135q33 51 33 129t-40 125
q-72 85 -285 131q-212 46 -305 74q-196 61 -266 179q-40 66 -40 172t45 187q87 157 290 210q96 26 202 26q229 0 377 -115t155 -348h-184q-16 158 -114 229t-249 70q-224 0 -300 -130q-28 -48 -28 -118z" />
    <glyph glyph-name="sacute" unicode="&#x15b;" horiz-adv-x="1024" 
d="M793 1497l-269 -293h-131l176 293h224zM516 129q178 0 238 77q24 32 24 90t-51 94q-51 34 -128 56t-167 38q-90 18 -167 50t-128 89t-51 148q0 160 128 242q109 70 286 70q394 0 415 -331h-174q-10 133 -160 169q-42 9 -83 9q-226 0 -228 -138q0 -42 32 -72
q54 -51 209 -85t225 -57q227 -75 227 -269q0 -173 -145 -262q-113 -68 -306 -70q-303 0 -408 190q-37 69 -41 167h175q4 -109 84 -157t194 -48z" />
    <glyph glyph-name="uni015C" unicode="&#x15c;" horiz-adv-x="1327" 
d="M569 1888h191l213 -293h-172l-142 197l-143 -197h-158zM315 1085q0 -69 40 -111q72 -75 271 -116t306 -76q106 -35 173 -82q146 -102 146 -309q0 -206 -186 -324q-161 -102 -404 -102t-406 125q-179 136 -179 391h184q0 -172 130 -268q110 -82 296 -84q251 0 338 135
q33 51 33 129t-40 125q-72 85 -285 131q-212 46 -305 74q-196 61 -266 179q-40 66 -40 172t45 187q87 157 290 210q96 26 202 26q229 0 377 -115t155 -348h-184q-16 158 -114 229t-249 70q-224 0 -300 -130q-28 -48 -28 -118z" />
    <glyph glyph-name="uni015D" unicode="&#x15d;" horiz-adv-x="1024" 
d="M418 1499h190l213 -293h-172l-141 197l-143 -197h-158zM516 129q178 0 238 77q24 32 24 90t-51 94q-51 34 -128 56t-167 38q-90 18 -167 50t-128 89t-51 148q0 160 128 242q109 70 286 70q394 0 415 -331h-174q-10 133 -160 169q-42 9 -83 9q-226 0 -228 -140
q0 -42 32 -71q55 -50 210 -84t224 -57q227 -75 227 -269q0 -173 -145 -262q-116 -70 -306 -72q-302 0 -408 192q-37 69 -41 167h175q4 -109 84 -157t194 -48z" />
    <glyph glyph-name="uni015E" unicode="&#x15e;" horiz-adv-x="1327" 
d="M606 -201q-40 0 -86 -16l-35 57l101 131q-228 21 -369 151t-141 359h184q0 -172 130 -268q110 -82 296 -84q251 0 338 135q33 51 33 129t-40 125q-72 85 -285 131q-212 46 -305 74q-196 61 -266 179q-40 66 -40 172t45 187q87 157 290 210q96 26 202 26q229 0 377 -115
t155 -348h-184q-16 158 -114 229t-249 70q-224 0 -300 -130q-28 -48 -28 -118q0 -69 40 -111q72 -75 271 -116t306 -76q106 -35 173 -82q146 -102 146 -309q0 -206 -186 -324q-161 -102 -385 -102h-12l-58 -74l4 -4q30 15 82 15t105 -37t53 -101q0 -106 -84 -154
q-67 -40 -165 -40q-97 0 -193 39l37 90q68 -27 121 -27q132 0 130 64q0 29 -27 46t-67 17z" />
    <glyph glyph-name="uni015F" unicode="&#x15f;" horiz-adv-x="1024" 
d="M456 -201q-39 0 -85 -16l-35 57l108 140q-255 20 -347 200q-32 63 -34 154h175q4 -109 84 -157t200 -48q172 0 232 77q24 32 24 90t-51 94q-51 34 -128 56t-167 38q-90 18 -167 50t-128 89t-51 148q0 160 128 242q109 70 286 70q394 0 415 -331h-174q-10 133 -160 169
q-42 9 -83 9q-226 0 -228 -140q0 -42 32 -71q55 -50 210 -84t224 -57q227 -75 227 -269q0 -168 -140 -258q-108 -69 -297 -76l-65 -84l4 -4q29 15 81 15t105 -37t53 -101q1 -105 -83 -154q-67 -40 -165 -40q-97 0 -194 39l37 90q68 -27 121 -27q131 0 131 64q0 29 -28 46
t-67 17z" />
    <glyph glyph-name="Scaron" unicode="&#x160;" horiz-adv-x="1327" 
d="M315 1085q0 -69 40 -111q72 -75 271 -116t306 -76q106 -35 173 -82q146 -102 146 -309q0 -206 -186 -324q-158 -100 -402 -100q-243 0 -415 129t-172 385h184q0 -172 130 -268q110 -82 296 -84q251 0 338 135q33 51 33 129t-40 125q-72 85 -285 131q-212 46 -305 74
q-196 61 -266 179q-40 66 -40 172t45 187q87 157 290 210q96 26 202 26q229 0 377 -115t155 -348h-184q-16 158 -114 229t-249 70q-224 0 -300 -130q-28 -48 -28 -118zM760 1567h-191l-213 293h172l142 -197l143 197h158z" />
    <glyph glyph-name="scaron" unicode="&#x161;" horiz-adv-x="1024" 
d="M516 129q178 0 238 77q24 32 24 90t-51 94q-51 34 -128 56t-167 38q-90 18 -167 50t-128 89t-51 148q0 160 128 242q109 70 286 70q394 0 415 -331h-174q-10 133 -160 169q-42 9 -83 9q-226 0 -228 -138q0 -42 32 -72q54 -51 209 -85t225 -57q227 -75 227 -269
q0 -173 -145 -262q-113 -68 -306 -70q-303 0 -408 190q-37 69 -41 167h175q4 -109 84 -157t194 -48zM608 1204h-190l-213 293h172l141 -197l144 197h157z" />
    <glyph glyph-name="uni0162" unicode="&#x162;" horiz-adv-x="1175" 
d="M473 -102h227v-158q0 -88 -55 -129t-147 -41v72q57 15 70 33q12 18 12 42h-107v181zM492 1298h-488v164h1170v-164h-488v-1298h-194v1298z" />
    <glyph glyph-name="uni0163" unicode="&#x163;" horiz-adv-x="645" 
d="M463 -253q0 24 -28 41t-67 17t-85 -16l-35 57l124 158q-78 8 -111 36q-62 51 -62 191v674h-181v154h181v317h174v-317h211v-154h-211v-657q0 -59 23 -77q23 -17 108 -17h80v-154h-129l-82 -102l4 -4q21 14 77 14t109 -37t53 -101q0 -107 -84 -154q-67 -40 -159 -40
q-91 0 -199 39l37 90q157 -63 240 7q12 11 12 35z" />
    <glyph glyph-name="uni0164" unicode="&#x164;" horiz-adv-x="1175" 
d="M682 1595h-190l-213 293h172l141 -196l143 196h158zM492 1298h-488v164h1170v-164h-488v-1298h-194v1298z" />
    <glyph glyph-name="uni0165" unicode="&#x165;" horiz-adv-x="645" 
d="M373 1059h211v-154h-211v-657q0 -59 23 -77q23 -17 108 -17h80v-154h-133q-142 0 -197 46t-55 185v674h-181v154h181v317h174v-317zM559 1462h223l-153 -293h-123z" />
    <glyph glyph-name="uni0166" unicode="&#x166;" horiz-adv-x="1175" 
d="M201 997h291v301h-488v164h1170v-164h-488v-301h295v-125h-295v-872h-194v872h-291v125z" />
    <glyph glyph-name="uni0167" unicode="&#x167;" horiz-adv-x="645" 
d="M29 709h170v196h-181v154h181v317h174v-317h211v-154h-211v-196h194v-113h-194v-348q0 -59 23 -77q23 -17 108 -17h80v-154h-133q-142 0 -197 46t-55 185v365h-170v113z" />
    <glyph glyph-name="uni0168" unicode="&#x168;" horiz-adv-x="1478" 
d="M897 1767q67 0 94 91h107q-12 -90 -66 -162q-52 -64 -129 -65t-166 40q-103 39 -146 39t-72 -47q-7 -12 -17 -39h-107q21 94 71 160t146 65q58 0 148 -40q89 -41 137 -42zM1327 528q1 -281 -149 -422t-426 -141q-442 0 -559 311q-41 106 -41 252v934h194v-934
q0 -197 104 -298t296 -101q384 0 387 399v934h194v-934z" />
    <glyph glyph-name="uni0169" unicode="&#x169;" 
d="M858 1307q-54 -66 -130 -66t-165 41q-103 39 -145 39t-73 -47q-7 -12 -17 -39h-107q21 94 71 160t146 65q58 0 148 -40t137 -42q67 0 94 90h107q-12 -90 -66 -161zM1008 0h-164v168h-4q-109 -193 -344 -193q-289 0 -348 231q-17 71 -17 156v697h174v-717q0 -98 57 -156
q58 -58 148 -57q161 0 241 91q81 91 83 241v598h174v-1059z" />
    <glyph glyph-name="uni016A" unicode="&#x16a;" horiz-adv-x="1478" 
d="M395 1786h699v-113h-699v113zM1327 528q1 -281 -149 -422t-426 -141q-442 0 -559 311q-41 106 -41 252v934h194v-934q0 -197 104 -298t296 -101q384 0 387 399v934h194v-934z" />
    <glyph glyph-name="uni016B" unicode="&#x16b;" 
d="M221 1397h699v-113h-699v113zM1008 0h-164v168h-4q-109 -193 -344 -193q-289 0 -348 231q-17 71 -17 156v697h174v-717q0 -98 57 -156q58 -58 148 -57q161 0 241 91q81 91 83 241v598h174v-1059z" />
    <glyph glyph-name="uni016C" unicode="&#x16c;" horiz-adv-x="1478" 
d="M756 1712q88 0 130 46t72 124h105q-23 -131 -106 -207t-221 -76q-271 0 -312 283h102q49 -170 230 -170zM1327 528q1 -281 -149 -422t-426 -141q-442 0 -559 311q-41 106 -41 252v934h194v-934q0 -197 104 -298t296 -101q384 0 387 399v934h194v-934z" />
    <glyph glyph-name="uni016D" unicode="&#x16d;" 
d="M582 1323q88 0 130 46t72 124h105q-23 -131 -106 -207t-221 -76q-271 0 -312 283h102q49 -170 230 -170zM1008 0h-164v168h-4q-109 -193 -344 -193q-289 0 -348 231q-17 71 -17 156v697h174v-717q0 -98 57 -156q58 -58 148 -57q161 0 241 91q81 91 83 241v598h174v-1059z
" />
    <glyph glyph-name="uni016E.low" unicode="&#x16e;" horiz-adv-x="1478" 
d="M604 1700q0 -59 39 -99t98 -40t99 40q39 40 39 99t-39 99q-38 40 -98 40t-99 -40t-39 -99zM904 1540q-69 -67 -164 -67q-94 0 -162 67t-68 163t69 162t163 66q93 0 161 -66t69 -162t-68 -163zM1327 528q1 -281 -149 -422t-426 -141q-442 0 -559 311q-41 106 -41 252v934
h194v-934q0 -197 104 -298t296 -101q384 0 387 399v934h194v-934z" />
    <glyph glyph-name="uni016F" unicode="&#x16f;" 
d="M432 1393q0 -59 39 -99t98 -41q59 0 99 40q39 39 39 99t-39 100q-38 40 -98 40t-99 -40t-39 -99zM407 1556q70 68 164 68q93 0 160 -66t69 -163q1 -96 -68 -162t-163 -67q-95 -1 -163 66t-68 165q0 96 69 159zM1008 0h-164v168h-4q-109 -193 -344 -193q-289 0 -348 231
q-17 71 -17 156v697h174v-717q0 -98 57 -156q58 -58 148 -57q161 0 241 91q81 91 83 241v598h174v-1059z" />
    <glyph glyph-name="uni0170" unicode="&#x170;" horiz-adv-x="1478" 
d="M672 1888h215l-246 -293h-135zM991 1888h215l-245 -293h-136zM1327 528q1 -281 -149 -422t-426 -141q-442 0 -559 311q-41 106 -41 252v934h194v-934q0 -197 104 -298t296 -101q384 0 387 399v934h194v-934z" />
    <glyph glyph-name="uni0171" unicode="&#x171;" 
d="M498 1499h215l-246 -293h-135zM817 1499h215l-246 -293h-135zM1008 0h-164v168h-4q-109 -193 -344 -193q-289 0 -348 231q-17 71 -17 156v697h174v-717q0 -98 57 -156q58 -58 148 -57q161 0 241 91q81 91 83 241v598h174v-1059z" />
    <glyph glyph-name="uni0172" unicode="&#x172;" horiz-adv-x="1478" 
d="M553 -274q0 126 174 239q-422 6 -537 316q-39 104 -38 247v934h194v-934q0 -197 104 -298t296 -101q384 0 387 399v934h194v-934q0 -260 -129 -400t-371 -159q-135 -119 -135 -210q0 -39 22 -63t62 -24q72 0 121 62l66 -37q-72 -127 -222 -127q-78 0 -133 37t-55 119z
" />
    <glyph glyph-name="uni0173" unicode="&#x173;" 
d="M926 0q-172 -140 -172 -234t84 -94q72 0 120 62l66 -37q-72 -127 -221 -127q-78 0 -133 37t-56 119q0 143 230 274v168h-4q-109 -193 -344 -193q-289 0 -348 231q-17 71 -17 156v697h174v-717q0 -98 57 -156q58 -58 148 -57q161 0 241 91q81 91 83 241v598h174v-1059h-82
z" />
    <glyph glyph-name="uni0174" unicode="&#x174;" horiz-adv-x="1896" 
d="M854 1888h190l213 -293h-172l-141 197l-143 -197h-158zM1481 0h-203l-334 1229h-4l-338 -1229h-203l-374 1462h198l287 -1216h4l328 1216h211l323 -1216h4l297 1216h195z" />
    <glyph glyph-name="uni0175" unicode="&#x175;" horiz-adv-x="1552" 
d="M688 1499h191l213 -293h-172l-142 197l-143 -197h-158zM1180 0h-185l-215 842h-4l-213 -842h-188l-340 1059h192l240 -866h4l213 866h190l222 -866h4l237 866h181z" />
    <glyph glyph-name="uni0176" unicode="&#x176;" horiz-adv-x="1327" 
d="M578 1888h190l213 -293h-172l-141 197l-144 -197h-157zM764 0h-195v598l-565 864h232l438 -696l428 696h221l-559 -864v-598z" />
    <glyph glyph-name="uni0177" unicode="&#x177;" horiz-adv-x="1024" 
d="M428 1499h190l213 -293h-172l-141 197l-143 -197h-158zM233 -424q-64 0 -114 18v160q75 -24 115 -24q80 0 131 96l71 180l-420 1053h197l309 -866h4l297 866h185l-461 -1200q-62 -156 -128 -219q-67 -64 -186 -64z" />
    <glyph glyph-name="Ydieresis" unicode="&#x178;" horiz-adv-x="1327" 
d="M764 0h-195v598l-565 864h232l438 -696l428 696h221l-559 -864v-598zM764 1788h184v-213h-184v213zM379 1788h184v-213h-184v213z" />
    <glyph glyph-name="Zacute" unicode="&#x179;" horiz-adv-x="1251" 
d="M928 1860l-269 -293h-131l177 293h223zM115 1298v164h1069v-164l-908 -1134h932v-164h-1163v164l909 1134h-839z" />
    <glyph glyph-name="zacute" unicode="&#x17a;" horiz-adv-x="983" 
d="M772 1497l-268 -293h-131l176 293h223zM86 905v154h823v-119l-647 -786h676v-154h-893v133l639 772h-598z" />
    <glyph glyph-name="Zdotaccent" unicode="&#x17b;" horiz-adv-x="1251" 
d="M532 1575v213h185v-213h-185zM115 1298v164h1069v-164l-908 -1134h932v-164h-1163v164l909 1134h-839z" />
    <glyph glyph-name="zdotaccent" unicode="&#x17c;" horiz-adv-x="983" 
d="M399 1212v213h185v-213h-185zM86 905v154h823v-119l-647 -786h676v-154h-893v133l639 772h-598z" />
    <glyph glyph-name="Zcaron" unicode="&#x17d;" horiz-adv-x="1251" 
d="M115 1298v164h1069v-164l-908 -1134h932v-164h-1163v164l909 1134h-839zM723 1567h-191l-213 293h173l141 -197l143 197h158z" />
    <glyph glyph-name="zcaron" unicode="&#x17e;" horiz-adv-x="983" 
d="M86 905v154h823v-119l-647 -786h676v-154h-893v133l639 772h-598zM588 1204h-191l-213 293h172l142 -197l143 197h158z" />
    <glyph glyph-name="uni017F" unicode="&#x17f;" horiz-adv-x="569" 
d="M354 0h-178v924h-147v143h147v168q4 111 39 164q63 92 244 92q30 0 76 -4v-164l-64 2q-83 0 -99 -43t-18 -358v-924z" />
    <glyph glyph-name="uni0180" unicode="&#x180;" 
d="M696 -39q-226 0 -346 189v-150h-162v1210h-133v119h133v146h174v-146h334v-119h-334v-276q62 73 109 104q84 51 207 52q221 0 341 -171t120 -414t-131 -393t-312 -151zM641 119q162 -1 235 115q72 116 72 304t-85 291q-85 105 -214 105t-212 -98t-83 -300t81 -310
t206 -107z" />
    <glyph glyph-name="uni0182" unicode="&#x182;" horiz-adv-x="1366" 
d="M770 170q301 0 301 252q0 142 -84 200t-217 58h-395v-510h395zM174 1468h1075v-180h-874v-440h461q223 0 329 -127q107 -127 107 -313t-120 -298q-120 -110 -316 -110h-662v1468z" />
    <glyph glyph-name="uni0183" unicode="&#x183;" 
d="M283 547q0 -422 303 -422q145 0 218 116t73 296q0 181 -73 291t-204 110t-224 -91t-93 -300zM613 1100q198 0 323 -138t125 -400t-123 -429q-123 -168 -340 -168q-123 0 -207 60q-49 35 -106 112v-137h-166v1475h811v-181h-637v-354q122 160 320 160z" />
    <glyph glyph-name="uni0186" unicode="&#x186;" horiz-adv-x="1478" 
d="M709 1333q-340 0 -426 -403h-195q27 231 172 389q176 188 473 188q256 0 430 -153q229 -205 230 -633q0 -326 -179 -543t-507 -217q-279 -1 -433 147t-172 334h195q33 -143 131 -226t277 -83q217 0 351 153t134 468q0 258 -121 418t-360 161z" />
    <glyph glyph-name="uni0189" unicode="&#x189;" horiz-adv-x="1478" 
d="M365 1298v-434h419v-178h-419v-516h356q100 0 166 20q115 39 188 152q59 88 79 198t22 183q0 577 -457 575h-354zM33 864h133v604h561q365 0 530 -249q121 -185 121 -445t-92 -450q-156 -324 -528 -324h-592v686h-133v178z" />
    <glyph glyph-name="uni018B" unicode="&#x18b;" horiz-adv-x="1366" 
d="M678 170h395v510h-395q-135 0 -218 -57t-83 -210q0 -243 301 -243zM1272 0h-662q-196 0 -316 111t-120 297t108 313t328 127h463v440h-874v180h1073v-1468z" />
    <glyph glyph-name="uni018C" unicode="&#x18c;" 
d="M594 125q301 0 301 422q0 209 -92 300t-224 91t-205 -110t-73 -291q0 -180 73 -296t220 -116zM119 562q0 262 124 400t322 138t322 -160v354h-637v181h811v-1475h-166v137q-57 -78 -107 -112q-84 -59 -206 -60q-217 0 -340 168t-123 429z" />
    <glyph glyph-name="uni018D" unicode="&#x18d;" horiz-adv-x="1161" 
d="M568 1300q-150 0 -240 -108t-90 -270q0 -209 98 -289t231 -80h31q22 4 90 14t140 120q72 109 73 259q0 150 -91 252t-242 102zM74 975q0 209 137 349t358 140t359 -134t139 -337q0 -251 -119 -409t-370 -158l383 -283v-163h-785v147h574l-424 315q-252 186 -252 533z" />
    <glyph glyph-name="uni018E" unicode="&#x18e;" horiz-adv-x="1366" 
d="M1262 0h-1088v174h893v498h-811v170h811v446h-877v180h1072v-1468z" />
    <glyph glyph-name="uni018F" unicode="&#x18f;" horiz-adv-x="1521" 
d="M1103 270q138 145 150 379h-979q14 -214 119 -354q128 -170 350 -170t360 145zM78 731v41q0 14 4 39h1163q-26 225 -156 375q-130 151 -357 151q-228 0 -372 -177q-43 -54 -65 -120h-193q38 210 224 334q186 123 413 123q331 0 518 -218t187 -559q0 -340 -194 -547
q-194 -206 -510 -206q-162 1 -291 63t-211 168q-160 208 -160 533z" />
    <glyph glyph-name="uni0190" unicode="&#x190;" horiz-adv-x="1095" 
d="M252 432q0 -146 79 -238t215 -92t219 102t97 238h150q-12 -199 -127 -333q-133 -158 -339 -158t-330 139t-124 332q0 133 40 219t149 145q-152 127 -152 313q0 185 109 305q110 120 310 120t318 -140t117 -352l-147 -2q0 127 -82 236q-82 108 -203 108t-190 -68t-68 -190
q0 -158 90 -217q68 -45 233 -47v-147q-49 4 -71 4q-293 0 -293 -277z" />
    <glyph glyph-name="uni0191" unicode="&#x191;" horiz-adv-x="1251" 
d="M76 -432q-28 0 -74 6v156q122 4 146 21t24 110v1206h2v401h1020v-180h-819v-444h721v-176h-721v-828q0 -117 -39 -174q-84 -98 -260 -98z" />
    <glyph glyph-name="florin" unicode="&#x192;" 
d="M858 1309q-103 0 -127 -107l-63 -282h209l-29 -140h-205l-113 -637q-50 -276 -134 -379q-46 -56 -107 -78t-148 -22h-135l29 154q80 0 130 6q95 11 126 90q16 41 28 111l144 755h-189l27 140h186l54 278q23 117 103 191q81 74 212 73h152l-29 -153h-121z" />
    <glyph glyph-name="uni0196" unicode="&#x196;" horiz-adv-x="454" 
d="M340 -29q-176 0 -240 99q-39 57 -39 174v1224h181v-1206q0 -92 24 -109t146 -22v-156q-62 -4 -72 -4z" />
    <glyph glyph-name="uni0197" unicode="&#x197;" horiz-adv-x="698" 
d="M35 920h231v548h180v-548h230v-117h-230v-803h-180v803h-231v117z" />
    <glyph glyph-name="uni019A" unicode="&#x19a;" horiz-adv-x="698" 
d="M35 920h231v548h180v-548h230v-117h-230v-803h-180v803h-231v117z" />
    <glyph glyph-name="uni019B" unicode="&#x19b;" 
d="M195 1323v150q41 10 102 10q104 0 156 -53q49 -55 94 -173l289 82v-116l-246 -72l373 -920q14 -31 34 -57t54 -27h51v-147h-105q-147 0 -202 152l-250 659l-309 -811h-199l420 1030l-29 76l-297 -84v119l256 71l-4 15q-39 100 -123 96h-65z" />
    <glyph glyph-name="uni019D" unicode="&#x19d;" horiz-adv-x="1478" 
d="M59 -432q-27 0 -73 6v156q122 4 146 21t24 110v1607h235l742 -1189v1189h190v-1468h-223l-754 1190v-1190h-10v-160q0 -117 -37 -174q-63 -98 -240 -98z" />
    <glyph glyph-name="uni019E" unicode="&#x19e;" 
d="M821 676q0 258 -203 258q-146 0 -235 -103q-43 -53 -57 -109t-15 -161v-561h-180v1071h172v-151q142 176 360 176q217 0 298 -160q45 -86 45 -250v-1083h-185v1073z" />
    <glyph glyph-name="uni019F" unicode="&#x19f;" horiz-adv-x="1593" 
d="M1171 1174q-135 158 -366 158t-375 -156q-121 -131 -139 -365h1016q-13 222 -136 363zM803 135q270 0 387 189q94 152 113 340h-1016q12 -211 129 -370t387 -159zM1511 748q0 -318 -165 -535q-196 -256 -548 -256t-544 223q-174 216 -174 530t147 527q189 273 571 273
t568 -250q145 -194 145 -512z" />
    <glyph glyph-name="uni01A0" unicode="&#x1a0;" horiz-adv-x="1820" 
d="M803 135q270 1 388 189t118 440q-1 252 -137 410t-367 158t-375 -156q-143 -156 -143 -461q0 -246 123 -413t393 -167zM1511 760q0 -330 -165 -547q-196 -256 -548 -256t-544 223q-174 216 -174 530t147 527q190 272 558 272t556 -221q29 -6 68 2q74 3 109 33l-41 98
l200 84l82 -196l-186 -78q-84 -35 -162 -41q100 -176 100 -430z" />
    <glyph glyph-name="uni01A1" unicode="&#x1a1;" horiz-adv-x="1384" 
d="M868 553q0 391 -309 391q-166 0 -241 -126q-74 -126 -74 -300t74 -288t246 -114q171 0 238 136q66 135 66 301zM1057 557q0 -258 -126 -427t-390 -169q-221 0 -352 150q-130 151 -130 411q-1 260 137 420t356 160t361 -137q25 -23 43 -50q14 0 33 5q80 7 109 32l-41 101
l200 84l82 -199l-188 -78q-72 -31 -141 -39q47 -110 47 -264z" />
    <glyph glyph-name="uni01A2" unicode="&#x1a2;" horiz-adv-x="1644" 
d="M778 1333q-250 0 -378 -179t-128 -423t119 -412q135 -190 387 -190q94 0 164 25v1155q-93 24 -164 24zM254 199q-176 211 -176 531t185 544t515 223q133 0 236 -35h471v-1865h-195v1701h-153v-1241q-157 -90 -345 -90q-347 0 -538 232z" />
    <glyph glyph-name="uni01A3" unicode="&#x1a3;" horiz-adv-x="1314" 
d="M582 129q62 0 118 21v759q-127 45 -247 -9t-169 -201q-26 -75 -26 -171q0 -187 94 -293q95 -106 230 -106zM588 1083q94 0 172 -24h424v-1462h-174v1308h-136v-852q-118 -74 -266 -75q-147 -1 -242 41t-161 117q-133 151 -132 394q1 242 137 398q136 155 378 155z" />
    <glyph glyph-name="uni01A6" unicode="&#x1a6;" horiz-adv-x="1306" 
d="M1014 854q0 244 -277 244h-485v-502h459q141 0 222 56t81 202zM1217 878q0 -249 -207 -356q86 -35 129 -92t49 -184l6 -199q4 -183 78 -215v-33h-244q-20 39 -27 166l-12 246q-6 143 -106 192q-57 27 -178 27h-453v-430h-201v1468h201v-198h479q168 0 279 -49
q207 -94 207 -343z" />
    <glyph glyph-name="uni01A7" unicode="&#x1a7;" horiz-adv-x="1366" 
d="M705 -43q-255 0 -432 105t-177 350q0 195 140 299q82 57 231 92l205 47q209 47 266 80q90 51 90 153q0 103 -77 177t-253 73q-217 0 -309 -114q-47 -63 -63 -181h-187q0 244 162 356q163 112 403 112t377 -128q137 -127 137 -317t-141 -283q-80 -53 -274 -96l-201 -45
q-162 -37 -237 -86q-74 -51 -74 -172q0 -160 178 -221q90 -33 203 -33q250 0 350 145q51 78 57 203h189q2 -238 -153 -377t-410 -139z" />
    <glyph glyph-name="uni01A8" unicode="&#x1a8;" horiz-adv-x="1024" 
d="M514 -41q-230 0 -340 104q-108 104 -108 250t104 213q68 45 260 92l121 29q188 43 186 156q0 63 -52 102t-155 39q-154 0 -215 -70q-39 -51 -43 -110h-170q-2 102 66 192q106 143 348 144q184 0 294 -94t110 -234t-115 -215q-66 -43 -203 -76l-143 -37q-115 -29 -154 -51
q-61 -35 -61 -115t76 -123q76 -44 176 -44q168 0 235 88q37 47 45 137h174q-8 -160 -107 -268t-329 -109z" />
    <glyph glyph-name="uni01A9" unicode="&#x1a9;" horiz-adv-x="1175" 
d="M102 1464h992v-164h-760l551 -569l-596 -567h829v-164h-1061v164l596 567l-551 569v164z" />
    <glyph glyph-name="uni01AE" unicode="&#x1ae;" horiz-adv-x="1251" 
d="M430 -432q-26 0 -72 6v156q121 4 146 21t24 110v1433h-495v174h1192v-174h-496v-1454q0 -117 -37 -174q-86 -98 -262 -98z" />
    <glyph glyph-name="uni01AF" unicode="&#x1af;" horiz-adv-x="1765" 
d="M373 1468v-907q0 -160 59 -266q88 -160 299 -160q254 0 344 172q49 94 49 254v907h203v-127q16 0 37 5q46 4 74 15t32 17l-40 101l200 84l82 -199l-186 -78q-102 -43 -199 -41v-602q0 -270 -74 -416q-133 -266 -505 -266t-504 266q-74 145 -74 416v825h203z" />
    <glyph glyph-name="uni01B0" unicode="&#x1b0;" horiz-adv-x="1429" 
d="M127 342v729h184v-711q0 -231 205 -231q295 0 295 416v526h178v-156q81 0 144 29q4 2 10 8l-41 101l201 84l81 -199l-188 -78q-106 -45 -207 -41v-819h-170l2 158q-107 -187 -336 -187q-358 0 -358 371z" />
    <glyph glyph-name="uni01B1" unicode="&#x1b1;" horiz-adv-x="1546" 
d="M1274 676q0 209 -102 389t-275 254v166h561v-164h-373q123 -49 248 -216t125 -413q0 -304 -177 -498t-511 -194t-511 194t-177 498q0 246 124 413t249 216h-373v164h561v-166q-172 -74 -274 -252q-103 -178 -103 -388t134 -352q134 -143 369 -143t370 142t135 350z" />
    <glyph glyph-name="uni01B5" unicode="&#x1b5;" horiz-adv-x="1251" 
d="M180 670v164h402l372 464h-839v164h1069v-164l-373 -464h299v-164h-430l-404 -506h932v-164h-1163v164l406 506h-271z" />
    <glyph glyph-name="uni01B6" unicode="&#x1b6;" horiz-adv-x="983" 
d="M164 481v154h295l225 270h-598v154h823v-119l-252 -305h166v-154h-293l-268 -327h676v-154h-893v133l287 348h-168z" />
    <glyph glyph-name="uni01B7" unicode="&#x1b7;" horiz-adv-x="1124" 
d="M45 1305v163h993v-163l-360 -312q152 -27 256 -147q137 -158 137 -440q0 -228 -155 -322t-353 -94t-349 98t-179 311h174q25 -119 121 -187t224 -69q128 1 226 51t98 210t-60 298q-60 139 -232 140l-99 -11h-231l551 474h-762z" />
    <glyph glyph-name="uni01B8" unicode="&#x1b8;" horiz-adv-x="1124" 
d="M246 403q0 -159 98 -209t228 -50t224 68q95 69 119 187h177q-31 -213 -181 -311q-151 -98 -349 -98t-354 93t-155 323q0 283 137 440q106 121 256 147l-360 312v163h993v-163h-760l551 -474h-231l-98 11q-171 0 -233 -140t-62 -299z" />
    <glyph glyph-name="uni01B9" unicode="&#x1b9;" horiz-adv-x="1024" 
d="M244 1q0 -161 93 -221t238 -61q113 0 163 79t75 198h176q-31 -213 -135 -322q-104 -108 -303 -108t-349 103t-151 333q0 283 137 440q106 121 256 148l-358 311v166h891v-166h-660l551 -473h-231l-98 10q-171 0 -233 -138t-62 -299z" />
    <glyph glyph-name="uni01BB" unicode="&#x1bb;" horiz-adv-x="1159" 
d="M860 997q0 127 -75 201t-199 74q-186 0 -256 -139q-39 -76 -43 -209h-183q2 186 68 305q119 209 414 209q246 0 360 -133t113 -280q0 -147 -70 -249h117v-141h-267q-63 -43 -153 -92l-135 -76q-98 -55 -156 -105q-98 -86 -125 -192h783v-170h-983q10 184 76 322
q67 137 260 249l110 64h-389v141h612q121 94 121 221z" />
    <glyph glyph-name="uni01C0" unicode="&#x1c0;" horiz-adv-x="532" 
d="M352 0h-170v1491h170v-1491z" />
    <glyph glyph-name="uni01C1" unicode="&#x1c1;" horiz-adv-x="882" 
d="M702 0h-170v1491h170v-1491zM352 0h-170v1491h170v-1491z" />
    <glyph glyph-name="uni01C2" unicode="&#x1c2;" horiz-adv-x="1163" 
d="M1085 1001v-167h-446v-261h446v-172h-446v-401h-170v401h-426v172h426v261h-426v167h426v490h170v-490h446z" />
    <glyph glyph-name="uni01C3" unicode="&#x1c3;" horiz-adv-x="569" 
d="M195 209h198v-209h-198v209zM195 1468h202v-483l-49 -635h-100l-53 635v483z" />
    <glyph glyph-name="uni01C4" unicode="&#x1c4;" horiz-adv-x="2529" 
d="M1972 1591h-188l-205 289h164l135 -192l135 192h164zM1372 1298v177h1092v-172l-905 -1123h905v-176h-1157v166l901 1128h-836zM117 1468h594q303 0 471 -215q147 -193 147 -495q0 -236 -88 -424q-154 -334 -532 -334h-592v1468zM672 170q100 0 166 20q115 39 188 152
q60 88 80 198t20 183q0 272 -108 424q-109 152 -348 151h-355v-1128h357z" />
    <glyph glyph-name="uni01C5" unicode="&#x1c5;" horiz-adv-x="2240" 
d="M1876 1196h-190l-203 291h162l135 -193l135 193h164zM1360 909v162h829v-147l-630 -762h649v-162h-895v141l635 768h-588zM80 1468h594q303 0 471 -215q147 -193 147 -495q0 -236 -88 -424q-154 -334 -532 -334h-592v1468zM279 1298v-1128h356q100 0 166 20
q115 39 188 152q59 88 79 198t22 183q0 577 -457 575h-354z" />
    <glyph glyph-name="uni01C6" unicode="&#x1c6;" horiz-adv-x="2011" 
d="M1667 1192h-188l-203 289h162l135 -193l135 193h164zM1130 909v162h832v-147l-633 -762h651v-162h-897v141l635 768h-588zM55 506q0 242 120 413t341 171q123 -1 207 -52q47 -31 108 -104v541h175v-1475h-162v150q-119 -189 -346 -189q-180 0 -312 151q-131 152 -131 394
zM553 119q125 -1 206 107t81 310t-83 300t-212 98t-214 -104t-85 -292t72 -304q73 -115 235 -115z" />
    <glyph glyph-name="uni01C7" unicode="&#x1c7;" horiz-adv-x="2009" 
d="M1303 369q0 -242 219 -242q160 0 209 111q29 66 28 251v979h199v-1030q0 -186 -55 -288q-102 -188 -390 -189q-163 0 -281 89t-118 319v104h189v-104zM106 1468h199v-1294h746v-174h-945v1468z" />
    <glyph glyph-name="uni01C8" unicode="&#x1c8;" horiz-adv-x="1447" 
d="M1120 -432q-24 0 -71 6v156q121 4 145 21t25 110v1206h180v-1227q0 -117 -39 -174q-63 -98 -240 -98zM1399 1262h-180v206h180v-206zM113 1468h198v-1294h746v-174h-944v1468z" />
    <glyph glyph-name="uni01C9" unicode="&#x1c9;" horiz-adv-x="759" 
d="M430 -432q-26 0 -72 6v156q121 4 146 21t24 110v1206h181v-1227q0 -117 -39 -174q-63 -98 -240 -98zM709 1262h-181v206h181v-206zM88 1468h180v-1468h-180v1468z" />
    <glyph glyph-name="uni01CA" unicode="&#x1ca;" horiz-adv-x="2279" 
d="M2189 465q0 -186 -55 -289q-100 -188 -387 -188q-166 0 -283 90t-116 317v107h188v-107q0 -119 53 -179t166 -60q160 0 207 108q31 68 31 252v979h196v-1030zM113 1468h235l742 -1189v1189h190v-1468h-223l-754 1190v-1190h-190v1468z" />
    <glyph glyph-name="uni01CB" unicode="&#x1cb;" horiz-adv-x="1775" 
d="M1454 -432q-26 0 -72 6v156q121 4 146 21t24 110v1206h181v-1227q0 -117 -39 -174q-63 -98 -240 -98zM1733 1262h-181v206h181v-206zM106 1468h236l741 -1189v1189h191v-1468h-223l-754 1190v-1190h-191v1468z" />
    <glyph glyph-name="uni01CC" unicode="&#x1cc;" horiz-adv-x="1441" 
d="M1114 -432q-25 0 -72 6v156q121 4 146 21t24 110v1206h181v-1227q0 -117 -39 -174q-63 -98 -240 -98zM1393 1262h-181v206h181v-206zM772 676q0 258 -203 258q-147 0 -233 -103q-46 -53 -60 -109t-14 -161v-561h-178v1071h170v-151q142 176 360 176q217 0 297 -160
q45 -86 45 -250v-686h-184v676z" />
    <glyph glyph-name="uni01CD" unicode="&#x1cd;" horiz-adv-x="1366" 
d="M821 1579h-190l-203 291h164l133 -193l135 193h164zM584 1468h225l532 -1468h-219l-147 440h-582l-160 -440h-202zM909 602l-223 649l-235 -649h458z" />
    <glyph glyph-name="uni01CE" unicode="&#x1ce;" 
d="M692 1182h-190l-203 288h164l135 -192l133 192h164zM977 184q-1 -61 51 -61q30 0 68 4v-131q-62 -17 -125 -19q-145 0 -166 164q-55 -72 -157 -125t-240 -53t-232 91t-94 234q0 142 93 224t245 100l287 37q61 8 81 51q12 25 13 70q0 174 -252 174q-141 0 -201 -76
q-33 -41 -43 -125h-168q4 199 128 277t300 78t294 -73t118 -224v-617zM270 297q0 -90 56 -135t144 -45q87 0 175 45q152 72 152 237v146q-65 -39 -189 -56l-108 -14q-230 -28 -230 -178z" />
    <glyph glyph-name="uni01CF" unicode="&#x1cf;" horiz-adv-x="569" 
d="M399 1585h-190l-203 291h164l133 -193l135 193h164zM201 1468h200v-1468h-200v1468z" />
    <glyph glyph-name="uni01D0" unicode="&#x1d0;" horiz-adv-x="569" 
d="M391 1202h-188l-203 289h162l135 -193l135 193h164zM188 1067h185v-1067h-185v1067z" />
    <glyph glyph-name="uni01D1" unicode="&#x1d1;" horiz-adv-x="1593" 
d="M915 1614h-190l-203 289h164l135 -193l135 193h164zM803 135q270 1 388 189t118 440q-1 252 -137 410t-367 158t-375 -156q-143 -156 -143 -461q0 -246 123 -413t393 -167zM1511 748q0 -318 -165 -535q-196 -256 -548 -256t-544 223q-174 216 -174 530t147 527
q189 273 571 273t568 -250q145 -194 145 -512z" />
    <glyph glyph-name="uni01D2" unicode="&#x1d2;" 
d="M688 1200h-188l-203 291h162l135 -193l135 193h164zM59 522q-1 260 137 420t356 160t362 -138t143 -402q0 -263 -126 -432t-390 -169q-221 0 -352 150q-130 151 -130 411zM868 553q0 391 -309 391q-166 0 -241 -126q-74 -126 -74 -300t74 -288t246 -114q171 0 238 136
q66 135 66 301z" />
    <glyph glyph-name="uni01D3" unicode="&#x1d3;" horiz-adv-x="1478" 
d="M879 1548h-191l-203 289h164l135 -190l136 190h163zM373 1468v-907q0 -160 59 -266q88 -160 299 -160q254 0 344 172q49 94 49 254v907h203v-825q0 -270 -74 -416q-133 -266 -505 -266t-504 266q-74 145 -74 416v825h203z" />
    <glyph glyph-name="uni01D4" unicode="&#x1d4;" 
d="M690 1169h-190l-203 289h164l135 -190l133 190h166zM127 342v729h184v-711q0 -231 205 -231q295 0 295 416v526h178v-1071h-170l2 158q-107 -187 -336 -187q-358 0 -358 371z" />
    <glyph glyph-name="uni01D5" unicode="&#x1d5;" horiz-adv-x="1478" 
d="M444 2005h639v-119h-639v119zM514 1769h186v-208h-186v208zM844 1769h186v-208h-186v208zM373 1468v-907q0 -160 59 -266q88 -160 299 -160q254 0 344 172q49 94 49 254v907h203v-825q0 -270 -74 -416q-133 -266 -505 -266t-504 266q-74 145 -74 416v825h203z" />
    <glyph glyph-name="uni01D6" unicode="&#x1d6;" 
d="M276 1595h639v-118h-639v118zM324 1366h188v-209h-188v209zM653 1366h189v-209h-189v209zM127 342v729h184v-711q0 -231 205 -231q295 0 295 416v526h178v-1071h-170l2 158q-107 -187 -336 -187q-358 0 -358 371z" />
    <glyph glyph-name="uni01D7" unicode="&#x1d7;" horiz-adv-x="1478" 
d="M1059 2120l-268 -289h-138l183 289h223zM514 1747h186v-209h-186v209zM844 1747h186v-209h-186v209zM373 1468v-907q0 -160 59 -266q88 -160 299 -160q254 0 344 172q49 94 49 254v907h203v-825q0 -270 -74 -416q-133 -266 -505 -266t-504 266q-74 145 -74 416v825h203z
" />
    <glyph glyph-name="uni01D8" unicode="&#x1d8;" 
d="M854 1751l-266 -289h-137l182 289h221zM301 1370h186v-209h-186v209zM631 1370h186v-209h-186v209zM127 342v729h184v-711q0 -231 205 -231q295 0 295 416v526h178v-1071h-170l2 158q-107 -187 -336 -187q-358 0 -358 371z" />
    <glyph glyph-name="uni01D9" unicode="&#x1d9;" horiz-adv-x="1478" 
d="M850 1815h-191l-202 288h164l135 -192l135 192h164zM489 1743h189v-209h-189v209zM819 1743h189v-209h-189v209zM373 1468v-907q0 -160 59 -266q88 -160 299 -160q254 0 344 172q49 94 49 254v907h203v-825q0 -270 -74 -416q-133 -266 -505 -266t-504 266
q-74 145 -74 416v825h203z" />
    <glyph glyph-name="uni01DA" unicode="&#x1da;" 
d="M659 1411h-190l-203 291h162l135 -193l135 193h164zM303 1337h189v-209h-189v209zM635 1337h186v-209h-186v209zM127 342v729h184v-711q0 -231 205 -231q295 0 295 416v526h178v-1071h-170l2 158q-107 -187 -336 -187q-358 0 -358 371z" />
    <glyph glyph-name="uni01DB" unicode="&#x1db;" horiz-adv-x="1478" 
d="M829 1780h-137l-266 288h221zM479 1720h187v-207h-187v207zM809 1720h186v-207h-186v207zM373 1468v-907q0 -160 59 -266q88 -160 299 -160q254 0 344 172q49 94 49 254v907h203v-825q0 -270 -74 -416q-133 -266 -505 -266t-504 266q-74 145 -74 416v825h203z" />
    <glyph glyph-name="uni01DC" unicode="&#x1dc;" 
d="M657 1407h-137l-266 289h221zM301 1341h188v-206h-188v206zM633 1341h186v-206h-186v206zM127 342v729h184v-711q0 -231 205 -231q295 0 295 416v526h178v-1071h-170l2 158q-107 -187 -336 -187q-358 0 -358 371z" />
    <glyph glyph-name="uni01DD" unicode="&#x1dd;" 
d="M555 119q125 0 209 89t88 226h-596q12 -117 51 -186q76 -129 248 -129zM72 578h784q-4 164 -76 262t-218 98t-230 -92q-47 -55 -68 -125h-178q8 57 47 130q99 185 293 226q63 16 145 17q201 0 340 -146t139 -405q0 -260 -140 -421t-365 -161q-115 -1 -223 53t-161 137
t-71 174t-18 253z" />
    <glyph glyph-name="uni01DE" unicode="&#x1de;" horiz-adv-x="1366" 
d="M369 1952h641v-117h-641v117zM442 1761h187v-207h-187v207zM772 1761h186v-207h-186v207zM584 1468h225l532 -1468h-219l-147 440h-582l-160 -440h-202zM909 602l-223 649l-235 -649h458z" />
    <glyph glyph-name="uni01DF" unicode="&#x1df;" 
d="M209 1649h639v-117h-639v117zM281 1421h186v-207h-186v207zM610 1421h187v-207h-187v207zM977 184q-1 -61 51 -61q30 0 68 4v-131q-62 -17 -125 -19q-145 0 -166 164q-55 -72 -157 -125t-240 -53t-232 91t-94 234q0 142 93 224t245 100l287 37q61 8 81 51q12 25 13 70
q0 174 -252 174q-141 0 -201 -76q-33 -41 -43 -125h-168q4 199 128 277t300 78t294 -73t118 -224v-617zM270 297q0 -90 56 -135t144 -45q87 0 175 45q152 72 152 237v146q-65 -39 -189 -56l-108 -14q-230 -28 -230 -178z" />
    <glyph glyph-name="uni01E0" unicode="&#x1e0;" horiz-adv-x="1366" 
d="M362 1952h639v-117h-639v117zM598 1759h186v-209h-186v209zM584 1468h225l532 -1468h-219l-147 440h-582l-160 -440h-202zM909 602l-223 649l-235 -649h458z" />
    <glyph glyph-name="uni01E1" unicode="&#x1e1;" 
d="M219 1655h641v-119h-641v119zM451 1444h186v-207h-186v207zM977 184q-1 -61 51 -61q30 0 68 4v-131q-62 -17 -125 -19q-145 0 -166 164q-55 -72 -157 -125t-240 -53t-232 91t-94 234q0 142 93 224t245 100l287 37q61 8 81 51q12 25 13 70q0 174 -252 174q-141 0 -201 -76
q-33 -41 -43 -125h-168q4 199 128 277t300 78t294 -73t118 -224v-617zM270 297q0 -90 56 -135t144 -45q87 0 175 45q152 72 152 237v146q-65 -39 -189 -56l-108 -14q-230 -28 -230 -178z" />
    <glyph glyph-name="uni01E2" unicode="&#x1e2;" horiz-adv-x="2048" 
d="M895 1714h639v-119h-639v119zM1929 1468v-174h-796v-450h731v-166h-731v-504h815v-174h-1012v436h-541l-164 -436h-215l596 1468h1317zM936 604v694h-199l-272 -694h471z" />
    <glyph glyph-name="uni01E3" unicode="&#x1e3;" horiz-adv-x="1820" 
d="M590 1348h641v-119h-641v119zM551 942q-100 0 -160 -31q-100 -59 -100 -170h-172q8 225 176 310q96 47 264 47q250 0 350 -162q123 162 346 162q257 0 381 -180q58 -80 78 -184t21 -257h-787q4 -166 82 -262t212 -96t202 56t94 161h182q-10 -80 -67 -165
q-137 -204 -414 -208q-147 0 -260 78q-104 76 -133 152q-156 -230 -414 -230q-172 0 -265 86t-93 223q0 297 325 338l285 39q104 12 102 119q0 174 -235 174zM256 294q0 -91 63 -136t131 -45q145 0 255 102q49 45 60 85t17 110v135q-48 -31 -135 -45l-151 -25
q-113 -16 -160 -45q-80 -45 -80 -136zM1252 938q-120 0 -206 -80t-96 -237h592q-2 157 -86 237t-204 80z" />
    <glyph glyph-name="uni01E4" unicode="&#x1e4;" horiz-adv-x="1619" 
d="M254 744q0 -282 115 -448q115 -165 374 -165q199 0 330 117q57 49 88 127h-182v141h219q8 49 8 105h-458v165h645v-270h192v-141h-192v-375h-129l-47 188q-102 -111 -181 -153q-131 -74 -331 -74q-262 0 -449 168q-207 213 -207 583t201 586q190 209 491 209
q207 0 359 -80q219 -115 268 -403h-197q-70 307 -434 307q-205 -1 -344 -153t-139 -434z" />
    <glyph glyph-name="uni01E5" unicode="&#x1e5;" horiz-adv-x="1224" 
d="M532 932q-299 0 -296 -428q0 -180 73 -276q74 -95 199 -95q193 0 272 176q31 74 41 164h-233v143h231q-12 140 -86 228t-201 88zM823 1061h166v-445h205v-143h-205v-387q0 -203 -59 -322q-113 -217 -422 -217q-174 0 -292 77t-132 243h182q14 -72 53 -111q61 -59 193 -59
q207 0 270 145q37 86 35 308q-53 -82 -130 -122t-202 -40q-174 0 -304 123t-130 400t131 428t318 151q127 -1 221 -62q49 -35 102 -102v135z" />
    <glyph glyph-name="uni01E6" unicode="&#x1e6;" horiz-adv-x="1593" 
d="M889 1599h-191l-202 289h161l136 -192l135 192h164zM303 744q0 -282 115 -448q115 -165 375 -165q199 0 329 116t133 374h-458v165h645v-786h-129l-47 188q-102 -111 -181 -153q-131 -74 -331 -74q-262 0 -451 168q-205 213 -205 583t201 586q190 209 492 209
q206 0 358 -80q219 -115 268 -403h-196q-70 307 -435 307q-205 -1 -344 -153t-139 -434z" />
    <glyph glyph-name="uni01E7" unicode="&#x1e7;" 
d="M610 1231h-190l-203 289h164l133 -193l135 193h164zM543 932q-297 0 -297 -428q0 -180 73 -276q74 -95 197 -95q195 0 275 176q43 98 43 232q0 199 -82 295t-209 96zM834 1061h165v-975q0 -203 -59 -322q-113 -217 -424 -217q-172 0 -290 77t-132 243h182q14 -72 54 -111
q59 -59 190 -59q207 0 273 145q37 86 34 308q-55 -82 -131 -122t-200 -40q-174 0 -305 123q-130 123 -130 400q-1 277 131 428t318 151q127 -1 219 -62q51 -35 105 -102v135z" />
    <glyph glyph-name="uni01E8" unicode="&#x1e8;" horiz-adv-x="1366" 
d="M801 1556h-191l-202 289h161l136 -190l135 190h164zM156 1468h194v-714l717 714h274l-612 -591l629 -877h-258l-514 737l-236 -225v-512h-194v1468z" />
    <glyph glyph-name="uni01E9" unicode="&#x1e9;" horiz-adv-x="1024" 
d="M647 1532h-190l-203 289h164l135 -193l133 193h166zM127 1468h174v-852l463 455h229l-409 -401l432 -670h-230l-333 541l-152 -140v-401h-174v1468z" />
    <glyph glyph-name="uni01EA" unicode="&#x1ea;" horiz-adv-x="1593" 
d="M803 135q270 1 388 189t118 440q-1 252 -137 410t-367 158t-375 -156q-143 -156 -143 -461q0 -246 123 -413t393 -167zM705 -241q1 -37 27 -65t74 -28t85 23v-131q-35 -14 -60 -23q-51 -12 -102 -12q-96 0 -147 56q-52 56 -52 132q0 77 51 133t138 115q-292 20 -465 221
q-174 216 -174 530t147 527q189 273 571 273t568 -250q145 -194 145 -512t-169 -540t-472 -247l-51 -41q-74 -59 -94 -91t-20 -70z" />
    <glyph glyph-name="uni01EB" unicode="&#x1eb;" 
d="M467 -237q0 -37 27 -65t75 -28t82 23v-131q-33 -14 -57 -23q-51 -12 -102 -12q-96 0 -148 56q-51 56 -51 131q-1 75 49 133t140 117q-180 18 -293 147q-130 151 -130 411q-1 260 137 420t356 160t362 -138t143 -402q0 -263 -126 -432q-103 -138 -297 -163l-52 -43
q-74 -59 -94 -91t-21 -70zM868 553q0 391 -309 391q-166 0 -241 -126q-74 -126 -74 -300t74 -288t246 -114q171 0 238 136q66 135 66 301z" />
    <glyph glyph-name="uni01EC" unicode="&#x1ec;" horiz-adv-x="1593" 
d="M449 1753h641v-119h-641v119zM803 135q270 1 388 189t118 440q-1 252 -137 410t-367 158t-375 -156q-143 -156 -143 -461q0 -246 123 -413t393 -167zM705 -241q1 -37 27 -65t74 -28t85 23v-131q-35 -14 -60 -23q-51 -12 -102 -12q-96 0 -147 56q-52 56 -52 132
q0 77 51 133t138 115q-292 20 -465 221q-174 216 -174 530t147 527q189 273 571 273t568 -250q145 -194 145 -512t-169 -540t-472 -247l-51 -41q-74 -59 -94 -91t-20 -70z" />
    <glyph glyph-name="uni01ED" unicode="&#x1ed;" 
d="M219 1358h641v-119h-641v119zM467 -237q0 -37 27 -65t75 -28t82 23v-131q-33 -14 -57 -23q-51 -12 -102 -12q-96 0 -148 56q-51 56 -51 131q-1 75 49 133t140 117q-180 18 -293 147q-130 151 -130 411q-1 260 137 420t356 160t362 -138t143 -402q0 -263 -126 -432
q-103 -138 -297 -163l-52 -43q-74 -59 -94 -91t-21 -70zM868 553q0 391 -309 391q-166 0 -241 -126q-74 -126 -74 -300t74 -288t246 -114q171 0 238 136q66 135 66 301z" />
    <glyph glyph-name="uni01EE" unicode="&#x1ee;" horiz-adv-x="1099" 
d="M621 1614h-191l-203 289h164l135 -193l136 193h163zM39 1305v163h991v-163l-358 -312q150 -27 256 -147q137 -158 137 -440q0 -228 -156 -322t-354 -94t-348 98t-180 311h176q25 -119 120 -187t223 -69q128 1 228 51q98 50 98 210t-61 298q-61 139 -233 140l-99 -11h-231
l551 474h-760z" />
    <glyph glyph-name="uni01EF" unicode="&#x1ef;" horiz-adv-x="1001" 
d="M584 1212h-191l-203 289h162l135 -190l136 190h163zM41 901v166h893v-166l-361 -311q152 -27 256 -148q137 -158 138 -440q0 -228 -151 -332t-349 -104t-303 108q-104 109 -135 322h176q25 -119 75 -198t178 -79q128 1 222 61t94 221t-61 299t-234 138l-96 -10h-233
l550 473h-659z" />
    <glyph glyph-name="uni01F0" unicode="&#x1f0;" horiz-adv-x="454" 
d="M328 1202h-191l-203 291h162l135 -193l136 193h163zM35 -432q-25 0 -74 6v156q123 4 147 21t23 110v1206h180v-1227q0 -117 -37 -174q-63 -98 -239 -98z" />
    <glyph glyph-name="uni01F1" unicode="&#x1f1;" horiz-adv-x="2508" 
d="M1358 1298v177h1089v-172l-905 -1123h905v-176h-1157v166l901 1128h-833zM84 1468h596q301 0 469 -215q150 -193 149 -495q0 -236 -88 -424q-156 -334 -532 -334h-594v1468zM639 170q100 0 166 20q117 39 190 152q59 88 79 198t22 183q0 272 -109 424t-350 151h-352
v-1128h354z" />
    <glyph glyph-name="uni01F2" unicode="&#x1f2;" horiz-adv-x="2299" 
d="M1391 909v162h829v-147l-631 -762h652v-162h-898v141l635 768h-587zM111 1468h596q303 0 469 -215q150 -193 149 -495q0 -236 -88 -424q-156 -334 -532 -334h-594v1468zM666 170q102 0 165 20q217 72 277 379q14 82 14 154q0 272 -108 424q-109 152 -350 151h-353v-1128
h355z" />
    <glyph glyph-name="uni01F3" unicode="&#x1f3;" horiz-adv-x="2043" 
d="M1126 909v162h830v-147l-631 -762h649v-162h-895v141l635 768h-588zM55 506q0 242 120 413t341 171q123 -1 207 -52q47 -31 108 -104v541h175v-1475h-162v150q-119 -189 -346 -189q-180 0 -312 151q-131 152 -131 394zM553 119q125 -1 206 107t81 310t-83 300t-212 98
t-214 -104t-85 -292t72 -304q73 -115 235 -115z" />
    <glyph glyph-name="uni01F4" unicode="&#x1f4;" horiz-adv-x="1593" 
d="M1010 1886l-267 -289h-139l184 289h222zM303 744q0 -282 115 -448q115 -165 375 -165q199 0 329 116t133 374h-458v165h645v-786h-129l-47 188q-102 -111 -181 -153q-131 -74 -331 -74q-262 0 -451 168q-205 213 -205 583t201 586q190 209 492 209q206 0 358 -80
q219 -115 268 -403h-196q-70 307 -435 307q-205 -1 -344 -153t-139 -434z" />
    <glyph glyph-name="uni01F5" unicode="&#x1f5;" 
d="M799 1495l-269 -289h-137l182 289h224zM543 932q-297 0 -297 -428q0 -180 73 -276q74 -95 197 -95q195 0 275 176q43 98 43 232q0 199 -82 295t-209 96zM834 1061h165v-975q0 -203 -59 -322q-113 -217 -424 -217q-172 0 -290 77t-132 243h182q14 -72 54 -111
q59 -59 190 -59q207 0 273 145q37 86 34 308q-55 -82 -131 -122t-200 -40q-174 0 -305 123q-130 123 -130 400q-1 277 131 428t318 151q127 -1 219 -62q51 -35 105 -102v135z" />
    <glyph glyph-name="uni01F7" unicode="&#x1f7;" horiz-adv-x="1366" 
d="M375 1298v-809l395 150q133 49 217 127t84 281q0 162 -121 221q-66 31 -180 30h-395zM174 1468h662q196 0 316 -110t120 -296q0 -185 -106 -343t-330 -248l-461 -149v-322h-201v1468z" />
    <glyph glyph-name="uni01F8" unicode="&#x1f8;" horiz-adv-x="1478" 
d="M870 1532h-137l-266 289h221zM156 1468h235l742 -1189v1189h190v-1468h-223l-754 1190v-1190h-190v1468z" />
    <glyph glyph-name="uni01F9" unicode="&#x1f9;" 
d="M725 1210h-135l-268 289h223zM821 676q0 258 -203 258q-146 0 -235 -103q-43 -53 -57 -109t-15 -161v-561h-180v1071h172v-151q142 176 360 176q217 0 298 -160q45 -86 45 -250v-686h-185v676z" />
    <glyph glyph-name="uni01FA" unicode="&#x1fa;" horiz-adv-x="1327" 
d="M412 604h495l-243 682h-5zM553 1545q0 -48 32 -82q32 -33 80 -33q47 0 79 34t32 81q0 48 -32 80t-80 32t-79 -32q-32 -32 -32 -80zM539 1397q-70 57 -70 145q0 87 57 141t138 55t139 -54q57 -55 57 -142t-69 -145l552 -1397h-215l-159 440h-619l-164 -440h-200zM702 1993
h209l-213 -217h-131z" />
    <glyph glyph-name="uni01FB" unicode="&#x1fb;" horiz-adv-x="1099" 
d="M258 296q0 -127 127 -159q37 -8 101 -8t124 24q119 47 158 137q18 42 18 79v178q-47 -36 -197 -54q-58 -7 -118 -17q-213 -32 -213 -180zM254 1005q113 78 300 78t280 -52q127 -71 127 -238v-545q0 -61 7 -90t39 -29t62 10v-135q-47 -29 -120 -29q-152 0 -152 164
q-137 -164 -376 -164t-320 161q-27 56 -27 141q1 158 108 233q108 75 386 110q143 15 192 59q28 26 28 79q-2 172 -235 172q-111 0 -185 -42t-79 -159h-174q8 186 139 276zM682 1369q0 54 -34 90t-91 36t-91 -36t-34 -90t34 -91t91 -37t91 37t34 91zM340 1368q0 92 63 152
t155 59q92 0 154 -59q62 -60 62 -152t-64 -152t-154 -59q-92 -1 -154 59t-62 152zM633 1888h223l-264 -258h-129z" />
    <glyph glyph-name="uni01FC" unicode="&#x1fc;" horiz-adv-x="1896" 
d="M1257 1888h224l-269 -293h-131zM918 590v708h-84l-345 -708h429zM1821 1462v-164h-719v-464h676v-164h-676v-506h731v-164h-915v426h-504l-209 -426h-219l739 1462h1096z" />
    <glyph glyph-name="uni01FD" unicode="&#x1fd;" horiz-adv-x="1781" 
d="M1028 1499h223l-268 -293h-131zM258 288q0 -119 127 -151q37 -8 101 -8t125 24q121 47 162 137q19 42 20 79v178q-47 -28 -118 -39q-71 -12 -117 -18t-119 -21q-73 -14 -117 -48q-64 -49 -64 -133zM956 631h592q-4 132 -82 216q-78 83 -212 83q-133 0 -214 -82
q-82 -83 -84 -217zM563 1083q277 0 355 -153q100 156 358 154q116 0 208 -49q248 -129 249 -558h-777q0 -147 81 -247t237 -101q98 0 171 50t97 155h178q-38 -174 -158 -266t-300 -93q-292 0 -383 207q-59 -110 -179 -158t-232 -48q-397 -2 -394 296q0 232 226 295
q108 30 237 50t172 35t63 41t20 76q1 134 -153 156q-43 5 -86 5q-111 0 -185 -42t-79 -159h-174q8 186 139 276q113 78 309 78z" />
    <glyph glyph-name="uni01FE" unicode="&#x1fe;" horiz-adv-x="1556" 
d="M1165 319q119 168 119 402t-98 387l-756 -834q126 -145 348 -145q252 0 387 190zM1130 1182q-127 151 -365 151q-237 0 -365 -179t-128 -413t103 -393zM1313 1249q166 -205 166 -521q0 -317 -176 -529q-193 -232 -525 -234q-284 0 -469 176l-166 -182l-67 61l172 189
q-170 206 -170 523q0 318 185 542t498 223q314 0 492 -180l162 178l66 -61zM842 1888h223l-268 -293h-131z" />
    <glyph glyph-name="uni01FF" unicode="&#x1ff;" horiz-adv-x="1175" 
d="M918 528q0 143 -58 244l-495 -551q92 -92 227 -92t230 105q96 106 96 294zM258 528q0 -140 61 -247l496 553q-90 96 -228 96t-234 -107q-95 -107 -95 -295zM983 907q119 -145 119 -383q0 -237 -136 -393t-378 -156q-204 0 -338 117l-123 -137l-57 49l127 141
q-125 156 -124 391q1 236 137 392q136 155 362 155t360 -120l119 133l55 -54zM668 1499h223l-268 -293h-131z" />
    <glyph glyph-name="uni0200" unicode="&#x200;" horiz-adv-x="1366" 
d="M926 1571h-127l-228 291h217zM592 1571h-127l-223 291h213zM584 1468h225l532 -1468h-219l-147 440h-582l-160 -440h-202zM909 602l-223 649l-235 -649h458z" />
    <glyph glyph-name="uni0201" unicode="&#x201;" 
d="M819 1210h-127l-225 291h215zM485 1210h-127l-223 291h213zM977 184q-1 -61 51 -61q30 0 68 4v-131q-62 -17 -125 -19q-145 0 -166 164q-55 -72 -157 -125t-240 -53t-232 91t-94 234q0 142 93 224t245 100l287 37q61 8 81 51q12 25 13 70q0 174 -252 174q-141 0 -201 -76
q-33 -41 -43 -125h-168q4 199 128 277t300 78t294 -73t118 -224v-617zM270 297q0 -90 56 -135t144 -45q87 0 175 45q152 72 152 237v146q-65 -39 -189 -56l-108 -14q-230 -28 -230 -178z" />
    <glyph glyph-name="uni0202" unicode="&#x202;" horiz-adv-x="1366" 
d="M685 1669q-114 0 -167 -59q-31 -33 -47 -99h-98q18 147 102 213t225 66q178 0 254 -121q41 -61 50 -158h-103q-14 66 -47 99q-55 59 -169 59zM584 1468h225l532 -1468h-219l-147 440h-582l-160 -440h-202zM909 602l-223 649l-235 -649h458z" />
    <glyph glyph-name="uni0203" unicode="&#x203;" 
d="M544 1372q-114 0 -167 -59q-31 -33 -47 -99h-99q19 147 103 213t225 66q178 0 254 -121q41 -61 49 -158h-100q-16 66 -47 99q-57 59 -171 59zM977 184q-1 -61 51 -61q30 0 68 4v-131q-62 -17 -125 -19q-145 0 -166 164q-55 -72 -157 -125t-240 -53t-232 91t-94 234
q0 142 93 224t245 100l287 37q61 8 81 51q12 25 13 70q0 174 -252 174q-141 0 -201 -76q-33 -41 -43 -125h-168q4 199 128 277t300 78t294 -73t118 -224v-617zM270 297q0 -90 56 -135t144 -45q87 0 175 45q152 72 152 237v146q-65 -39 -189 -56l-108 -14q-230 -28 -230 -178
z" />
    <glyph glyph-name="uni0204" unicode="&#x204;" horiz-adv-x="1366" 
d="M991 1571h-125l-227 291h215zM659 1571h-127l-225 291h215zM174 1468h1071v-180h-876v-444h811v-170h-811v-500h893v-174h-1088v1468z" />
    <glyph glyph-name="uni0205" unicode="&#x205;" 
d="M836 1210h-127l-228 291h217zM502 1210h-127l-223 291h213zM567 938q-125 0 -209 -89t-88 -228h594q-27 317 -297 317zM560 119q146 0 231 92q47 53 67 125h176q-6 -59 -46 -132t-89 -118q-128 -125 -339 -125q-210 1 -349 147t-139 405t140 421t366 162q116 0 222 -54
t161 -138q55 -83 72 -174t18 -253h-787q6 -162 78 -260t218 -98z" />
    <glyph glyph-name="uni0206" unicode="&#x206;" horiz-adv-x="1366" 
d="M709 1729q-174 0 -209 -158h-101q21 147 105 212t225 64q176 0 254 -118q41 -61 49 -158h-102q-16 66 -47 98q-55 59 -174 60zM174 1468h1071v-180h-876v-444h811v-170h-811v-500h893v-174h-1088v1468z" />
    <glyph glyph-name="uni0207" unicode="&#x207;" 
d="M585 1362q-114 0 -167 -59q-31 -33 -47 -99h-99q20 147 104 213t224 66q178 0 254 -119q41 -63 49 -160h-100q-16 66 -47 99q-57 59 -171 59zM567 938q-125 0 -209 -89t-88 -228h594q-27 317 -297 317zM560 119q146 0 231 92q47 53 67 125h176q-6 -59 -46 -132t-89 -118
q-128 -125 -339 -125q-210 1 -349 147t-139 405t140 421t366 162q116 0 222 -54t161 -138q55 -83 72 -174t18 -253h-787q6 -162 78 -260t218 -98z" />
    <glyph glyph-name="uni0208" unicode="&#x208;" horiz-adv-x="569" 
d="M541 1571h-125l-228 291h215zM209 1571h-127l-225 291h215zM201 1468h200v-1468h-200v1468z" />
    <glyph glyph-name="uni0209" unicode="&#x209;" horiz-adv-x="454" 
d="M481 1210h-127l-227 291h217zM147 1210h-127l-223 291h213zM141 1067h183v-1067h-183v1067z" />
    <glyph glyph-name="uni020A" unicode="&#x20a;" horiz-adv-x="569" 
d="M522 1571q-16 66 -47 98q-55 59 -169 59t-169 -59q-31 -35 -47 -98h-98q20 147 103 212t227 64q272 0 303 -276h-103zM201 1468h200v-1468h-200v1468z" />
    <glyph glyph-name="uni020B" unicode="&#x20b;" horiz-adv-x="454" 
d="M228 1378q-114 0 -169 -57q-31 -35 -47 -98h-98q20 145 103 211t227 65q274 0 303 -276h-103q-16 63 -47 98q-55 57 -169 57zM141 1067h183v-1067h-183v1067z" />
    <glyph glyph-name="uni020C" unicode="&#x20c;" horiz-adv-x="1593" 
d="M1040 1626h-125l-227 291h215zM709 1626h-127l-226 291h215zM803 135q270 1 388 189t118 440q-1 252 -137 410t-367 158t-375 -156q-143 -156 -143 -461q0 -246 123 -413t393 -167zM1511 748q0 -318 -165 -535q-196 -256 -548 -256t-544 223q-174 216 -174 530t147 527
q189 273 571 273t568 -250q145 -194 145 -512z" />
    <glyph glyph-name="uni020D" unicode="&#x20d;" 
d="M831 1210h-124l-228 291h215zM500 1210h-127l-226 291h215zM59 522q-1 260 137 420t356 160t362 -138t143 -402q0 -263 -126 -432t-390 -169q-221 0 -352 150q-130 151 -130 411zM868 553q0 391 -309 391q-166 0 -241 -126q-74 -126 -74 -300t74 -288t246 -114
q171 0 238 136q66 135 66 301z" />
    <glyph glyph-name="uni020E" unicode="&#x20e;" horiz-adv-x="1593" 
d="M792 1767q-114 0 -167 -59q-31 -33 -47 -96h-101q38 278 330 276q176 0 254 -119q41 -63 49 -157h-102q-16 63 -47 96q-55 59 -169 59zM803 135q270 1 388 189t118 440q-1 252 -137 410t-367 158t-375 -156q-143 -156 -143 -461q0 -246 123 -413t393 -167zM1511 748
q0 -318 -165 -535q-196 -256 -548 -256t-544 223q-174 216 -174 530t147 527q189 273 571 273t568 -250q145 -194 145 -512z" />
    <glyph glyph-name="uni020F" unicode="&#x20f;" 
d="M554 1372q-114 0 -169 -59q-31 -33 -45 -99h-100q20 147 103 213t226 66q274 0 303 -279h-102q-16 66 -47 99q-55 59 -169 59zM59 522q-1 260 137 420t356 160t362 -138t143 -402q0 -263 -126 -432t-390 -169q-221 0 -352 150q-130 151 -130 411zM868 553q0 391 -309 391
q-166 0 -241 -126q-74 -126 -74 -300t74 -288t246 -114q171 0 238 136q66 135 66 301z" />
    <glyph glyph-name="uni0210" unicode="&#x210;" horiz-adv-x="1478" 
d="M995 1577h-125l-227 291h215zM664 1577h-127l-226 291h215zM1401 0h-246q-18 40 -25 166l-12 244q-8 145 -106 192q-57 29 -181 29h-452v-631h-199v1468h680q168 0 277 -49q207 -93 207 -343t-207 -353q86 -37 130 -93t48 -186l8 -196q2 -84 16 -140t62 -75v-33z
M1143 1055q0 246 -279 243h-485v-501h461q139 0 221 55t82 203z" />
    <glyph glyph-name="uni0211" unicode="&#x211;" horiz-adv-x="681" 
d="M641 1237h-125l-227 291h217zM309 1237h-127l-225 291h215zM598 905q-135 0 -208 -88t-73 -201v-616h-180v1071h170v-184q23 53 105 131t188 78q14 0 57 -6v-191q-24 6 -59 6z" />
    <glyph glyph-name="uni0212" unicode="&#x212;" horiz-adv-x="1478" 
d="M708 1710q-114 0 -167 -57q-31 -35 -47 -99h-101q21 147 105 212t225 65q176 0 254 -119q41 -61 49 -158h-102q-16 66 -47 99q-55 57 -169 57zM1401 0h-246q-18 40 -25 166l-12 244q-8 145 -106 192q-57 29 -181 29h-452v-631h-199v1468h680q168 0 277 -49
q207 -93 207 -343t-207 -353q86 -37 130 -93t48 -186l8 -196q2 -84 16 -140t62 -75v-33zM1143 1055q0 246 -279 243h-485v-501h461q139 0 221 55t82 203z" />
    <glyph glyph-name="uni0213" unicode="&#x213;" horiz-adv-x="681" 
d="M392 1366q-114 0 -167 -59q-31 -35 -47 -99h-98q18 147 102 212t226 65q178 0 254 -119q41 -61 49 -158h-103q-14 66 -47 99q-55 59 -169 59zM598 905q-135 0 -208 -88t-73 -201v-616h-180v1071h170v-184q23 53 105 131t188 78q14 0 57 -6v-191q-24 6 -59 6z" />
    <glyph glyph-name="uni0214" unicode="&#x214;" horiz-adv-x="1478" 
d="M1022 1571h-127l-225 291h215zM688 1571h-127l-223 291h215zM373 1468v-907q0 -160 59 -266q88 -160 299 -160q254 0 344 172q49 94 49 254v907h203v-825q0 -270 -74 -416q-133 -266 -505 -266t-504 266q-74 145 -74 416v825h203z" />
    <glyph glyph-name="uni0215" unicode="&#x215;" 
d="M834 1210h-127l-228 291h217zM500 1210h-127l-223 291h212zM127 342v729h184v-711q0 -231 205 -231q295 0 295 416v526h178v-1071h-170l2 158q-107 -187 -336 -187q-358 0 -358 371z" />
    <glyph glyph-name="uni0216" unicode="&#x216;" horiz-adv-x="1478" 
d="M961 1571q-16 66 -48 98q-57 59 -170 59t-168 -59q-31 -35 -47 -98h-98q20 147 104 212t226 64q275 0 303 -276h-102zM373 1468v-907q0 -160 59 -266q88 -160 299 -160q254 0 344 172q49 94 49 254v907h203v-825q0 -270 -74 -416q-133 -266 -505 -266t-504 266
q-74 145 -74 416v825h203z" />
    <glyph glyph-name="uni0217" unicode="&#x217;" 
d="M554 1366q-114 0 -167 -57q-31 -35 -47 -99h-98q18 147 102 212t225 65q178 0 254 -119q41 -61 49 -158h-102q-14 66 -45 99q-57 57 -171 57zM127 342v729h184v-711q0 -231 205 -231q295 0 295 416v526h178v-1071h-170l2 158q-107 -187 -336 -187q-358 0 -358 371z" />
    <glyph glyph-name="uni0218" unicode="&#x218;" horiz-adv-x="1327" 
d="M553 -102h227v-158q0 -88 -55 -129t-147 -41v72q57 15 69 32t12 43h-106v181zM315 1085q0 -69 40 -111q72 -75 271 -116t306 -76q106 -35 173 -82q146 -102 146 -309q0 -206 -186 -324q-161 -102 -404 -102t-406 125q-179 136 -179 391h184q0 -172 130 -268
q110 -82 296 -84q251 0 338 135q33 51 33 129t-40 125q-72 85 -285 131q-212 46 -305 74q-196 61 -266 179q-40 66 -40 172t45 187q87 157 290 210q96 26 202 26q229 0 377 -115t155 -348h-184q-16 158 -114 229t-249 70q-224 0 -300 -130q-28 -48 -28 -118z" />
    <glyph glyph-name="uni0219" unicode="&#x219;" horiz-adv-x="1024" 
d="M403 -102h228v-158q1 -88 -55 -129t-148 -41v72q77 20 81 56q1 9 1 19h-107v181zM516 129q178 0 238 77q24 32 24 90t-51 94q-51 34 -128 56t-167 38q-90 18 -167 50t-128 89t-51 148q0 160 128 242q109 70 286 70q394 0 415 -331h-174q-10 133 -160 169q-42 9 -83 9
q-226 0 -228 -140q0 -42 32 -71q55 -50 210 -84t224 -57q227 -75 227 -269q0 -173 -145 -262q-116 -70 -306 -72q-302 0 -408 192q-37 69 -41 167h175q4 -109 84 -157t194 -48z" />
    <glyph glyph-name="uni021A" unicode="&#x21a;" horiz-adv-x="1175" 
d="M473 -102h227v-158q0 -88 -55 -129t-147 -41v72q57 15 70 33q12 18 12 42h-107v181zM492 1298h-488v164h1170v-164h-488v-1298h-194v1298z" />
    <glyph glyph-name="uni021B" unicode="&#x21b;" horiz-adv-x="645" 
d="M266 -102h228v-158q0 -88 -56 -129t-147 -41v72q77 20 81 56q1 9 1 19h-107v181zM373 1059h211v-154h-211v-657q0 -59 23 -77q23 -17 108 -17h80v-154h-133q-142 0 -197 46t-55 185v674h-181v154h181v317h174v-317z" />
    <glyph glyph-name="uni021C" unicode="&#x21c;" horiz-adv-x="1359" 
d="M692 111q170 0 271 96q94 80 94 225q0 272 -365 273q-27 0 -88 -5v162q207 2 291 47q111 49 111 197q0 122 -85 190t-235 68t-356 -213l-137 129q249 244 497 244t383 -120t135 -305t-186 -313q131 -59 182 -145t51 -219q-1 -193 -155 -332t-408 -139t-520 158l141 108
q209 -106 379 -106z" />
    <glyph glyph-name="uni021D" unicode="&#x21d;" horiz-adv-x="1359" 
d="M692 -317q170 0 271 96q94 82 94 225q0 272 -365 272q-27 0 -88 -4v162q207 4 291 49q111 47 111 197q0 118 -85 188t-235 70t-356 -213l-137 129q249 244 497 244t383 -120t135 -306t-186 -314q131 -57 182 -144t51 -218q0 -195 -151 -332q-158 -139 -412 -139t-520 156
l141 108q209 -106 379 -106z" />
    <glyph glyph-name="uni021E" unicode="&#x21e;" horiz-adv-x="1478" 
d="M854 1528h-190l-203 289h162l135 -193l135 193h164zM162 1468h200v-606h764v606h201v-1468h-201v686h-764v-686h-200v1468z" />
    <glyph glyph-name="uni021F" unicode="&#x21f;" 
d="M688 1536h-190l-203 291h164l135 -193l133 193h166zM131 1475h180v-549q66 82 115 114q88 57 217 58q233 0 318 -164q45 -88 45 -248v-686h-187v676q0 117 -28 172q-49 88 -173 88t-216 -77q-91 -77 -91 -292v-567h-180v1475z" />
    <glyph glyph-name="uni0220" unicode="&#x220;" horiz-adv-x="1478" 
d="M170 1468h201v-69q141 109 379 108q371 0 503 -266q74 -145 74 -416v-1222h-203v1304q0 160 -59 267q-88 160 -299 159q-254 0 -344 -172q-49 -94 -49 -254v-907h-203v1468z" />
    <glyph glyph-name="uni0226" unicode="&#x226;" horiz-adv-x="1366" 
d="M602 1778h186v-207h-186v207zM584 1468h225l532 -1468h-219l-147 440h-582l-160 -440h-202zM909 602l-223 649l-235 -649h458z" />
    <glyph glyph-name="uni0227" unicode="&#x227;" 
d="M473 1483h189v-209h-189v209zM977 184q-1 -61 51 -61q30 0 68 4v-131q-62 -17 -125 -19q-145 0 -166 164q-55 -72 -157 -125t-240 -53t-232 91t-94 234q0 142 93 224t245 100l287 37q61 8 81 51q12 25 13 70q0 174 -252 174q-141 0 -201 -76q-33 -41 -43 -125h-168
q4 199 128 277t300 78t294 -73t118 -224v-617zM270 297q0 -90 56 -135t144 -45q87 0 175 45q152 72 152 237v146q-65 -39 -189 -56l-108 -14q-230 -28 -230 -178z" />
    <glyph glyph-name="uni0228" unicode="&#x228;" horiz-adv-x="1366" 
d="M174 0v1468h1071v-180h-876v-444h811v-170h-811v-500h893v-174h-433l-94 -129q29 10 87 10t104 -41q45 -42 45 -116q1 -74 -59 -130t-162 -55q-102 0 -220 43l35 80q97 -30 134 -30q36 -1 65 12q51 20 51 75q0 31 -27 55q-46 41 -151 7l-35 41l129 178h-557z" />
    <glyph glyph-name="uni0229" unicode="&#x229;" 
d="M567 938q-125 0 -209 -89t-88 -228h594q-27 317 -297 317zM657 -307q-1 31 -27 55t-65 23q-39 0 -86 -17l-35 41l123 166h-16q-201 1 -340 147t-139 405t140 421t366 162q116 0 222 -54t161 -138q55 -83 72 -174t18 -253h-787q6 -162 78 -260t218 -98t231 92
q47 53 67 125h176q-6 -59 -46 -132t-89 -118q-96 -94 -229 -114l-92 -128q29 10 87 10t103 -40q45 -41 45 -117t-59 -130t-165 -54t-214 43l35 79q79 -30 133 -30q114 0 114 88z" />
    <glyph glyph-name="uni022A" unicode="&#x22a;" horiz-adv-x="1593" 
d="M492 2179h641v-119h-641v119zM539 1823h186v-207h-186v207zM868 1823h187v-207h-187v207zM803 135q270 1 388 189t118 440q-1 252 -137 410t-367 158t-375 -156q-143 -156 -143 -461q0 -246 123 -413t393 -167zM1511 748q0 -318 -165 -535q-196 -256 -548 -256t-544 223
q-174 216 -174 530t147 527q189 273 571 273t568 -250q145 -194 145 -512z" />
    <glyph glyph-name="uni022B" unicode="&#x22b;" 
d="M254 1649h641v-117h-641v117zM311 1411h189v-209h-189v209zM641 1411h188v-209h-188v209zM59 522q-1 260 137 420t356 160t362 -138t143 -402q0 -263 -126 -432t-390 -169q-221 0 -352 150q-130 151 -130 411zM868 553q0 391 -309 391q-166 0 -241 -126
q-74 -126 -74 -300t74 -288t246 -114q171 0 238 136q66 135 66 301z" />
    <glyph glyph-name="uni022C" unicode="&#x22c;" horiz-adv-x="1593" 
d="M459 2019h641v-116h-641v116zM657 1804q72 0 187 -51q70 -24 111 -24q43 0 61 26t24 66h105q-19 -127 -79 -175t-132 -49q-33 0 -117 25l-51 20q-97 33 -135 33q-74 0 -88 -92h-99q39 221 213 221zM803 135q270 1 388 189t118 440q-1 252 -137 410t-367 158t-375 -156
q-143 -156 -143 -461q0 -246 123 -413t393 -167zM1511 748q0 -318 -165 -535q-196 -256 -548 -256t-544 223q-174 216 -174 530t147 527q189 273 571 273t568 -250q145 -194 145 -512z" />
    <glyph glyph-name="uni022D" unicode="&#x22d;" 
d="M231 1638h641v-118h-641v118zM420 1417q71 0 186 -51q69 -24 112 -24q73 -1 85 92h104q-19 -128 -79 -176t-121 -48t-125 27l-54 18q-97 33 -135 33q-72 0 -88 -92h-96q33 221 211 221zM59 522q-1 260 137 420t356 160t362 -138t143 -402q0 -263 -126 -432t-390 -169
q-221 0 -352 150q-130 151 -130 411zM868 553q0 391 -309 391q-166 0 -241 -126q-74 -126 -74 -300t74 -288t246 -114q171 0 238 136q66 135 66 301z" />
    <glyph glyph-name="uni022E" unicode="&#x22e;" horiz-adv-x="1593" 
d="M688 1864h186v-207h-186v207zM803 135q270 1 388 189t118 440q-1 252 -137 410t-367 158t-375 -156q-143 -156 -143 -461q0 -246 123 -413t393 -167zM1511 748q0 -318 -165 -535q-196 -256 -548 -256t-544 223q-174 216 -174 530t147 527q189 273 571 273t568 -250
q145 -194 145 -512z" />
    <glyph glyph-name="uni022F" unicode="&#x22f;" 
d="M461 1475h186v-207h-186v207zM59 522q-1 260 137 420t356 160t362 -138t143 -402q0 -263 -126 -432t-390 -169q-221 0 -352 150q-130 151 -130 411zM868 553q0 391 -309 391q-166 0 -241 -126q-74 -126 -74 -300t74 -288t246 -114q171 0 238 136q66 135 66 301z" />
    <glyph glyph-name="uni0230" unicode="&#x230;" horiz-adv-x="1593" 
d="M463 2054h639v-119h-639v119zM684 1853h186v-206h-186v206zM803 135q270 1 388 189t118 440q-1 252 -137 410t-367 158t-375 -156q-143 -156 -143 -461q0 -246 123 -413t393 -167zM1511 748q0 -318 -165 -535q-196 -256 -548 -256t-544 223q-174 216 -174 530t147 527
q189 273 571 273t568 -250q145 -194 145 -512z" />
    <glyph glyph-name="uni0231" unicode="&#x231;" 
d="M254 1595h641v-118h-641v118zM483 1407h189v-209h-189v209zM59 522q-1 260 137 420t356 160t362 -138t143 -402q0 -263 -126 -432t-390 -169q-221 0 -352 150q-130 151 -130 411zM868 553q0 391 -309 391q-166 0 -241 -126q-74 -126 -74 -300t74 -288t246 -114
q171 0 238 136q66 135 66 301z" />
    <glyph glyph-name="uni0232" unicode="&#x232;" horiz-adv-x="1366" 
d="M391 1651h641v-117h-641v117zM797 0h-199v592l-555 876h231l422 -704l422 704h234l-555 -876v-592z" />
    <glyph glyph-name="uni0233" unicode="&#x233;" horiz-adv-x="1024" 
d="M207 1327h639v-117h-639v117zM231 -281q68 0 105 58q15 20 82 192l-398 1102h205l287 -872l289 872h198q-37 -101 -151 -423t-226 -614q-110 -292 -175 -382t-220 -90q-50 0 -108 12v166q71 -21 112 -21z" />
    <glyph glyph-name="uni0237" unicode="&#x237;" horiz-adv-x="454" 
d="M6 -252h37q57 0 78 32q20 32 20 114v1165h174v-1194q-1 -141 -69 -206t-185 -65q-49 0 -90 9v149q20 -4 35 -4z" />
    <glyph glyph-name="uni0238" unicode="&#x238;" horiz-adv-x="1906" 
d="M588 119q125 0 200 99t84 259v117q-12 158 -88 249t-204 91q-129 0 -214 -104t-85 -292t72 -304q73 -115 235 -115zM1630 537q0 181 -72 291t-203 110q-132 0 -227 -90q-74 -76 -88 -230v-149q6 -98 35 -168q72 -176 264 -176q147 0 220 116q71 116 71 296zM90 506
q0 242 120 413t343 171q123 -1 189 -42t124 -114v541h181v-535q121 160 321 160q199 0 323 -138t124 -400t-123 -429q-123 -168 -340 -168q-123 0 -207 60q-49 35 -105 108v-133h-168v139q-118 -178 -340 -178q-180 0 -311 151q-131 152 -131 394z" />
    <glyph glyph-name="uni0239" unicode="&#x239;" horiz-adv-x="1847" 
d="M548 121q183 0 255 176q25 61 33 145v193q-10 82 -37 141q-74 160 -258 160q-117 0 -201 -101t-84 -315q0 -137 41 -231q68 -168 251 -168zM1303 121q125 -1 209 105t83 317q0 127 -36 219q-70 176 -256 176q-250 0 -289 -334v-194q43 -289 289 -289zM510 -35
q-170 0 -305 134q-135 135 -135 401t126 431t326 165q133 0 226 -68q45 -33 88 -96v135h8v4h170v-143q127 168 319 169q191 1 319 -139t128 -399q0 -350 -185 -500q-115 -96 -253 -96t-220 53q-47 31 -106 105v-547h-182v549q-99 -158 -324 -158z" />
    <glyph glyph-name="uni023A" unicode="&#x23a;" horiz-adv-x="1366" 
d="M866 1669h152l-119 -449l442 -1220h-219l-147 440h-282l-169 -641h-151l169 641h-149l-160 -440h-202l553 1468h225l2 -7zM736 602h173l-98 285zM585 602l141 534l-40 115l-235 -649h134z" />
    <glyph glyph-name="uni023B" unicode="&#x23b;" horiz-adv-x="1478" 
d="M293 717q0 -258 121 -420q39 -51 90 -86l276 1124h-4q-217 1 -350 -152t-133 -466zM90 750q0 326 172 532q186 227 512 227q27 0 49 -2l43 172h152l-47 -192q141 -35 237 -125q154 -147 170 -334h-192q-35 141 -133 225q-51 43 -125 64l-287 -1165q61 -14 131 -15
q346 0 426 404h195q-27 -233 -172 -389q-174 -190 -471 -191q-80 0 -152 16l-45 -188h-154l58 236q-74 35 -138 92q-229 205 -229 633z" />
    <glyph glyph-name="uni023C" unicode="&#x23c;" horiz-adv-x="1024" 
d="M545 940q-172 0 -246 -168q-47 -110 -47 -270t67 -269q20 -35 50 -59l241 762q-30 4 -65 4zM59 506q-1 284 137 440t349 156q61 0 114 -10l58 178h151l-71 -228q152 -79 180 -331h-176q-14 90 -62 151l-233 -737q12 -2 26 -2q113 1 179 69t90 187h176q-59 -408 -459 -410
q-31 0 -61 4l-56 -174h-151l67 213q-76 39 -133 111q-125 154 -125 383z" />
    <glyph glyph-name="uni023D" unicode="&#x23d;" 
d="M-25 850h181v618h198v-618h324v-158h-324v-518h746v-174h-944v694l-181 2v154z" />
    <glyph glyph-name="uni023E" unicode="&#x23e;" horiz-adv-x="1251" 
d="M729 1294v-143l51 143h-51zM1225 1468v-174h-293l-203 -573v-721h-201v147l-127 -358h-151l278 789v716h-495v174h809l73 211h152l-74 -211h232z" />
    <glyph glyph-name="uni0241" unicode="&#x241;" 
d="M156 1010q0 215 122 347t327 132q206 0 324 -113t118 -289q0 -106 -43 -172t-177 -192q-96 -94 -124 -159t-27 -564h-178q0 516 33 604q34 88 149 201l80 80q37 33 57 69q41 66 41 150t-58 156t-194 71q-168 0 -231 -123q-35 -70 -41 -198h-178z" />
    <glyph glyph-name="uni0242" unicode="&#x242;" 
d="M156 623q0 217 122 348t327 131q206 0 324 -113t118 -287q0 -106 -43 -172t-158 -176t-143 -175t-27 -179h-178q0 131 33 218q34 87 149 202l80 78q37 35 57 71q41 66 41 150q0 83 -58 155t-194 72q-168 0 -231 -125q-35 -68 -41 -198h-178z" />
    <glyph glyph-name="uni0243" unicode="&#x243;" horiz-adv-x="1482" 
d="M836 848q305 0 305 233q0 143 -117 195q-66 27 -197 27h-354v-455h363zM1212 438q0 248 -344 248h-395v-188h215v-144h-215v-184h428q184 0 262 106q49 66 49 162zM47 354v144h232v970h630q258 0 367 -153q63 -90 63 -219t-77 -219q-41 -47 -119 -86q113 -43 170 -97
q98 -96 98 -252t-88 -270q-133 -172 -424 -172h-620v354h-232z" />
    <glyph glyph-name="uni0244" unicode="&#x244;" horiz-adv-x="1734" 
d="M856 135q254 0 344 172q49 94 49 254v195h-751v-195q0 -160 59 -266q88 -160 299 -160zM45 756v141h250v571h203v-571h751v571h203v-571h234v-141h-234v-113q0 -270 -74 -416q-133 -266 -505 -266t-504 266q-74 145 -74 416v113h-250z" />
    <glyph glyph-name="uni0245" unicode="&#x245;" horiz-adv-x="1366" 
d="M51 0l537 1468h211l534 -1468h-223l-416 1251l-422 -1251h-221z" />
    <glyph glyph-name="uni0246" unicode="&#x246;" horiz-adv-x="1366" 
d="M369 174h127l122 500h-249v-500zM369 844h290l111 444h-401v-444zM174 1468h639l53 211h152l-51 -211h278v-180h-323l-111 -444h369v-170h-410l-123 -500h615v-174h-658l-51 -211h-154l54 211h-279v1468z" />
    <glyph glyph-name="uni0247" unicode="&#x247;" 
d="M864 621q-10 117 -44 175t-75 89l-83 -264h202zM264 477q7 -195 107 -295l94 295h-201zM567 938q-125 0 -209 -89t-88 -228h240l100 315q-20 2 -43 2zM565 119q141 0 226 92q47 53 67 125h176q-6 -59 -46 -132t-89 -118q-128 -125 -348 -125q-49 0 -94 10l-56 -172h-151
l69 221q-59 33 -108 86q-139 146 -139 406t140 422t366 162q41 0 79 -9l60 183h151l-71 -228l2 -2q194 -97 234 -310q17 -91 18 -253h-435l-112 -354q29 -4 61 -4z" />
    <glyph glyph-name="uni0248" unicode="&#x248;" horiz-adv-x="1110" 
d="M221 369q0 -242 221 -242q158 0 207 111q31 66 31 251v435h-160v143h160v401h197v-401h151v-143h-151v-486q0 -186 -56 -288q-100 -188 -387 -189q-166 0 -282 89t-117 319v104h186v-104z" />
    <glyph glyph-name="uni0249" unicode="&#x249;" horiz-adv-x="454" 
d="M311 1262h-180v206h180v-206zM35 -432q-25 0 -74 6v156q123 4 147 21t23 110v563h-147v141h147v502h180v-502h178v-141h-178v-584q0 -117 -37 -174q-63 -98 -239 -98z" />
    <glyph glyph-name="uni024A" unicode="&#x24a;" horiz-adv-x="1761" 
d="M238 764q0 -252 118 -440t388 -188t387 158q117 159 129 372v94q-10 270 -148 421t-370 151t-368 -158t-136 -410zM1694 -293q8 0 8 -84v-82q-287 0 -387 189q-55 102 -55 288v125q-190 -186 -500 -186q-362 0 -559 256q-166 217 -166 535t145 512q186 250 576 249
q317 0 504 -198v157h196v-1398q0 -186 31 -252q49 -111 207 -111z" />
    <glyph glyph-name="uni024B" unicode="&#x24b;" horiz-adv-x="1257" 
d="M530 944q-311 0 -311 -399q0 -158 67 -293q68 -135 238 -135q170 -1 246 113t76 288t-76 300t-240 126zM848 -160v217q-121 -96 -299 -96q-264 0 -390 169t-126 432q0 264 142 402t343 138t330 -113v78h178v-1206q0 -91 25 -109t145 -22v-156q-47 -6 -72 -6
q-176 0 -239 98q-37 57 -37 174z" />
    <glyph glyph-name="uni024C" unicode="&#x24c;" horiz-adv-x="1599" 
d="M1268 1055q0 246 -277 243h-485v-501h459q141 0 222 55t81 203zM1526 0h-244q-19 35 -27 166l-12 244q-6 145 -106 192q-57 29 -179 29h-452v-631h-201v631h-258v166h258v671h680q168 0 279 -49q206 -93 206 -343t-206 -353q86 -37 129 -93t49 -186l6 -196
q4 -183 78 -215v-33z" />
    <glyph glyph-name="uni024D" unicode="&#x24d;" horiz-adv-x="798" 
d="M705 905q-137 0 -210 -88t-73 -201v-118h244v-144h-244v-354h-180v354h-215v144h215v573h172v-184q20 53 102 131t189 78q13 0 59 -6v-191q-24 6 -59 6z" />
    <glyph glyph-name="uni024E" unicode="&#x24e;" horiz-adv-x="1581" 
d="M801 764l174 291h-350zM25 1055v141h292l-172 272h234l162 -272h518l164 272h231l-172 -272h272v-141h-360l-295 -463v-592h-199v592l-292 463h-383z" />
    <glyph glyph-name="uni024F" unicode="&#x24f;" horiz-adv-x="1257" 
d="M639 199l152 456h-302zM359 -281q69 0 106 58q24 48 80 192l-246 686h-250v142h199l-98 274h202l90 -274h396l92 274h198q-27 -72 -100 -274h211v-142h-260q-11 -27 -65 -178t-164 -443t-174 -382t-222 -90q-46 0 -108 12v166q71 -21 113 -21z" />
    <glyph glyph-name="uni0250" unicode="&#x250;" 
d="M205 1083q94 0 135 -65q23 -37 31 -100q55 72 158 124t240 54q137 0 231 -90t94 -232t-94 -225q-94 -82 -242 -103l-289 -34q-94 -12 -94 -121q0 -176 254 -176q139 0 198 75q33 43 43 125h168q-4 -197 -128 -275t-300 -77q-176 0 -293 72t-116 223v619q0 61 -62 61
q-32 0 -57 -6v133q61 18 123 18zM706 942q-87 0 -176 -43q-150 -74 -149 -240v-145q57 40 186 55l109 15q98 14 147 41q82 47 82 138t-56 135t-143 44z" />
    <glyph glyph-name="uni0251" unicode="&#x251;" horiz-adv-x="1202" 
d="M547 942q-143 0 -229 -99t-87 -309q0 -210 86 -311q85 -100 229 -100t230 99t86 309q0 211 -86 311t-229 100zM57 532q0 246 125 405t346 159t351 -181v160h163v-837q0 -84 14 -92t97 -17v-129q-17 -10 -99 -10q-83 0 -122 41t-51 123q-127 -185 -349 -185
q-223 0 -349 159q-126 158 -126 404z" />
    <glyph glyph-name="uni0252" unicode="&#x252;" horiz-adv-x="1202" 
d="M664 123q143 0 229 99t86 308q0 210 -86 310t-229 100q-144 0 -230 -99t-86 -309t86 -309q86 -100 230 -100zM680 1096q221 0 347 -160t126 -405t-125 -405t-345 -159q-220 0 -351 183v-160h-164v835q0 83 -13 93t-98 18v129q20 8 101 8q80 0 120 -41t52 -123
q129 187 350 187z" />
    <glyph glyph-name="uni0253" unicode="&#x253;" 
d="M283 547q0 -422 303 -422q145 0 218 116t73 296q0 181 -73 291t-204 110t-224 -91t-93 -300zM612 1100q199 0 324 -138t125 -400t-123 -429q-123 -168 -340 -168q-123 0 -207 60q-49 35 -106 112v-137h-166v782h-4v455q0 119 37 176q63 98 239 98q24 0 74 -6v-155
q-123 -4 -147 -22t-23 -109v-277q118 158 317 158z" />
    <glyph glyph-name="uni0254" unicode="&#x254;" horiz-adv-x="1024" 
d="M975 563q0 -281 -137 -439t-334 -157q-198 0 -310 88t-137 303h176q17 -98 73 -164t183 -65q172 0 246 168q47 109 47 269t-67 271q-68 110 -213 109q-216 0 -269 -256h-176q59 410 469 412q198 0 324 -154q125 -154 125 -385z" />
    <glyph glyph-name="uni0256" unicode="&#x256;" horiz-adv-x="1243" 
d="M553 119q125 -1 206 107t81 310t-83 300t-212 98t-214 -104t-85 -292t72 -304q73 -115 235 -115zM821 -160v279q-114 -158 -309 -158q-194 0 -326 151q-131 152 -131 394t120 413t341 171q123 0 207 -52q47 -31 108 -104v541h175v-1475h-5v-139q0 -91 25 -109t145 -22
v-156q-46 -6 -71 -6q-176 0 -240 98q-39 57 -39 174z" />
    <glyph glyph-name="uni0257" unicode="&#x257;" horiz-adv-x="1212" 
d="M553 119q125 -1 206 107t81 310t-83 300t-212 98t-214 -104t-85 -292t72 -304q73 -115 235 -115zM1102 1507q26 0 74 -6v-155q-121 -4 -146 -22t-24 -110v-1214h-162v150q-119 -189 -346 -189q-180 0 -312 151q-131 152 -131 394t120 413t341 171q123 0 207 -52
q45 -29 102 -98v295q0 117 37 174q63 98 240 98z" />
    <glyph glyph-name="uni0258" unicode="&#x258;" 
d="M555 938q-172 0 -248 -129q-39 -72 -51 -188h596q-4 139 -88 228t-209 89zM562 119q146 0 218 98t76 260h-784q0 162 18 253t71 174q54 83 162 137t222 55q225 0 365 -162t140 -421t-138 -405q-140 -146 -351 -146t-340 124q-49 45 -88 118t-47 132h178q20 -72 68 -125
q84 -92 230 -92z" />
    <glyph glyph-name="uni0259" unicode="&#x259;" horiz-adv-x="1120" 
d="M560 131q128 0 212 87t90 212h-608q8 -127 93 -213t213 -86zM532 932q-231 0 -274 -207h-172q35 180 154 269t299 89q245 0 377 -152q131 -152 131 -397t-141 -401t-357 -156q-255 0 -384 207q-107 172 -95 400h792q7 233 -180 319q-63 29 -150 29z" />
    <glyph glyph-name="uni025A" unicode="&#x25a;" horiz-adv-x="1689" 
d="M303 358q110 -294 371 -229q119 33 177 141t28 242zM1348 611q0 -43 12 -73t47 -40t61 -4q78 18 117 104q13 -12 25 -20t22 -16t22 -14q12 -7 23 -20q-57 -141 -231 -153q-109 -11 -170 56q-62 67 -64 198q-68 -16 -151 -47q31 -199 -45 -357q-94 -190 -314 -250
q-108 -29 -226 -5q-215 44 -312 255q-35 68 -76 226l758 202q-46 156 -142 233t-236 39t-198 -151q-33 -63 -34 -137l-170 -45q-8 57 11 138q47 201 222 294q59 33 137 53q195 51 361 -49t235 -328q97 26 309 95q11 -45 9 -93t-2 -91z" />
    <glyph glyph-name="uni025B" unicode="&#x25b;" horiz-adv-x="1067" 
d="M307 801q0 -164 221 -164h105v-143h-119q-114 0 -182 -45t-68 -143t75 -142q75 -43 189 -43q239 0 281 209h170q0 -152 -127 -251q-126 -99 -326 -99t-322 84t-122 225q0 106 63 178t170 102q-90 41 -135 99t-45 170t110 185t275 73q230 0 324 -111t94 -219h-170
q-34 178 -248 178q-213 0 -213 -143z" />
    <glyph glyph-name="uni025C" unicode="&#x25c;" horiz-adv-x="1067" 
d="M254 330q44 -209 280 -209q112 0 189 43q76 44 76 142t-69 143t-181 45h-121v143h107q219 0 221 164q0 143 -214 143t-247 -178h-170q0 110 92 220t326 110q165 0 275 -73t110 -185t-45 -170q-45 -57 -135 -99q106 -31 170 -102q63 -72 63 -178q0 -141 -123 -225
t-297 -84q-223 0 -350 99t-127 251h170z" />
    <glyph glyph-name="uni025D" unicode="&#x25d;" horiz-adv-x="1622" 
d="M231 330q49 -209 282 -209q113 0 188 43q75 44 75 142t-68 143q-69 45 -182 45h-118v143h104q221 0 221 164q0 143 -213 143t-248 -178h-170q0 110 94 220t324 110q166 0 277 -72q45 -33 71 -72l164 49q121 37 238 72q10 -45 8 -92t-2 -89q0 -98 60 -115t106 17
q44 29 71 85q21 -21 39 -32q19 -11 30 -19t24 -19q-60 -144 -234 -156q-107 -12 -170 60q-63 71 -63 194q-71 -14 -136 -38q-65 -25 -98 -35v-7q0 -102 -45 -159t-135 -99q106 -31 170 -102q63 -72 63 -178q0 -141 -121 -226q-122 -84 -296 -83q-225 0 -353 99
q-127 99 -127 251h170z" />
    <glyph glyph-name="uni025E" unicode="&#x25e;" horiz-adv-x="1021" 
d="M737 801q0 68 -53 104q-47 37 -158 39v-4q-172 0 -245 -168q-47 -110 -47 -270t67 -269q33 -55 84 -81q55 -23 87 -26t42 -4t64 -1t128 43q74 44 74 142t-68 143q-69 45 -182 45l-14 143q221 0 221 164zM199 985q66 80 202 100l125 11q164 0 274 -73t110 -185t-46 -170
q-45 -57 -135 -99q106 -31 170 -102q63 -72 64 -178q0 -141 -122 -225t-296 -84q-23 0 -43 2q-150 28 -220 70t-145 144t-75 336q0 232 137 453z" />
    <glyph glyph-name="uni025F" unicode="&#x25f;" horiz-adv-x="569" 
d="M90 -266q82 0 98 43t17 217h-178v141h180v924h178v-924h150v-141h-150v-168q-4 -113 -39 -166q-63 -90 -244 -90q-29 0 -75 4v164q58 -4 63 -4z" />
    <glyph glyph-name="uni0260" unicode="&#x260;" horiz-adv-x="1239" 
d="M543 932q-297 0 -297 -428q0 -180 73 -276q74 -95 197 -95q195 0 275 176q43 98 43 232q0 199 -82 295t-209 96zM1096 1286q26 0 73 -6v-156q-121 -4 -143 -19t-27 -75v-944q0 -203 -59 -322q-113 -217 -424 -217q-172 0 -290 77t-132 243h182q14 -72 54 -111
q59 -59 190 -59q207 0 273 145q37 86 34 308q-55 -82 -131 -122t-200 -40q-174 0 -305 123q-130 123 -130 400q-1 277 131 428t318 151q127 0 219 -62q45 -31 90 -84v70q0 117 37 174q63 98 240 98z" />
    <glyph glyph-name="uni0261" unicode="&#x261;" 
d="M543 932q-297 0 -297 -428q0 -180 73 -276q74 -95 197 -95q195 0 275 176q43 98 43 232q0 199 -82 295t-209 96zM834 1061h165v-975q0 -203 -59 -322q-113 -217 -424 -217q-172 0 -290 77t-132 243h182q14 -72 54 -111q59 -59 190 -59q207 0 273 145q37 86 34 308
q-55 -82 -131 -122t-200 -40q-174 0 -305 123q-130 123 -130 400q-1 277 131 428t318 151q127 -1 219 -62q51 -35 105 -102v135z" />
    <glyph glyph-name="uni0265" unicode="&#x265;" 
d="M1004 -426h-181v547q-63 -80 -114 -115q-86 -55 -217 -55q-233 0 -316 162q-45 90 -45 247v687h184v-674q0 -119 31 -174q49 -88 172 -88q123 1 214 77t91 291v568h181v-1473z" />
    <glyph glyph-name="uni0266" unicode="&#x266;" 
d="M408 1542q24 0 71 -6v-156q-121 -4 -145 -21t-25 -110v-96h2v-227q66 82 115 114q88 57 217 58q233 0 318 -164q45 -88 45 -248v-686h-187v676q0 117 -28 172q-49 88 -173 88t-216 -77q-91 -77 -91 -292v-567h-180v813h-2v457q0 117 39 174q63 98 240 98z" />
    <glyph glyph-name="uni0267" unicode="&#x267;" horiz-adv-x="1239" 
d="M821 -160v160h-2v676q0 117 -28 172q-49 88 -173 88t-216 -77q-91 -77 -91 -292v-567h-180v813h-2v457q0 117 39 174q63 98 240 98q24 0 71 -6v-156q-121 -4 -145 -21t-25 -110v-96h2v-227q66 82 115 114q88 57 217 58q233 0 318 -164q45 -88 45 -248v-686h-5v-139
q0 -91 25 -109t145 -22v-156q-46 -6 -71 -6q-176 0 -240 98q-39 57 -39 174z" />
    <glyph glyph-name="uni0268" unicode="&#x268;" horiz-adv-x="698" 
d="M272 1468h183v-202h-183v202zM35 760h237v307h183v-307h221v-119h-221v-641h-183v641h-237v119z" />
    <glyph glyph-name="uni0269" unicode="&#x269;" horiz-adv-x="514" 
d="M328 -12q-90 0 -142 57q-51 57 -51 145v885h164v-837q0 -55 25 -79t100 -24h41v-135q-9 -4 -69 -8t-68 -4z" />
    <glyph glyph-name="uni026A" unicode="&#x26a;" horiz-adv-x="577" 
d="M35 184h158v695h-158v186h158v2h182v-2h162v-186h-162v-695h162v-184h-502v184z" />
    <glyph glyph-name="uni026B" unicode="&#x26b;" horiz-adv-x="755" 
d="M240 913q20 0 47 -6v561h180v-620q25 -10 69 -10t62 26t25 66h104q-19 -127 -79 -175t-132 -48q-20 0 -49 6v-713h-180v770q-28 14 -74 14q-72 0 -88 -92h-98q40 221 213 221z" />
    <glyph glyph-name="uni026D" unicode="&#x26d;" horiz-adv-x="546" 
d="M412 -432q-176 0 -240 98q-39 57 -39 174v457h4v1171h180v-1468h-4v-139q0 -91 25 -109t145 -22v-156q-47 -6 -71 -6z" />
    <glyph glyph-name="uni026F" unicode="&#x26f;" horiz-adv-x="1705" 
d="M131 381v713h186v-744q1 -106 55 -146t145 -40t168 70t77 237v623h182v-699q0 -109 27 -159q41 -74 147 -74t191 79q84 79 84 285v568h180v-1071h-178v151q-66 -78 -117 -115q-88 -59 -209 -59t-199 61q-45 37 -79 107q-119 -168 -329 -168q-331 0 -331 381z" />
    <glyph glyph-name="uni0270" unicode="&#x270;" horiz-adv-x="1705" 
d="M131 381v713h186v-744q1 -106 55 -146t145 -40t168 70t77 237v623h182v-699q0 -109 27 -159q41 -74 147 -74t191 79q84 79 84 285v568h180v-1520h-178v600q-66 -78 -117 -115q-88 -59 -209 -59t-199 61q-45 37 -79 107q-119 -168 -329 -168q-331 0 -331 381z" />
    <glyph glyph-name="uni0271" unicode="&#x271;" horiz-adv-x="1705" 
d="M1296 -432q-27 0 -73 6v156q121 4 145 21t25 110v139h-7v743q0 109 -53 149t-145 40t-169 -72t-77 -237v-623h-182v698q0 111 -27 160q-41 76 -147 76t-190 -80t-85 -287v-567h-180v1071h178v-151q66 78 117 114q88 62 209 62q194 1 278 -170q121 170 324 170
q336 0 336 -383v-873q0 -117 -37 -174q-63 -98 -240 -98z" />
    <glyph glyph-name="uni0272" unicode="&#x272;" 
d="M31 -432q-24 0 -74 6v156q123 4 147 21t23 110v1206h4v4h172v-4h4v-141q143 170 358 170t296 -160q45 -86 45 -250v-686h-185v676q0 258 -203 258q-146 0 -235 -103q-43 -53 -57 -109t-15 -161v-561h-4v-160q0 -117 -37 -174q-63 -98 -239 -98z" />
    <glyph glyph-name="uni0273" unicode="&#x273;" horiz-adv-x="1234" 
d="M821 -160v836q0 258 -203 258q-146 0 -235 -103q-43 -53 -57 -109t-15 -161v-561h-180v1071h172v-151q142 176 360 176q217 0 298 -160q45 -86 45 -250v-686h-5v-139q0 -91 25 -109t145 -22v-156q-46 -6 -71 -6q-176 0 -240 98q-39 57 -39 174z" />
    <glyph glyph-name="uni0274" unicode="&#x274;" horiz-adv-x="1118" 
d="M84 1071h235l527 -792v792h188v-1071h-223l-537 791v-791h-190v1071z" />
    <glyph glyph-name="uni0275" unicode="&#x275;" 
d="M246 467q10 -139 78 -245t240 -106q171 0 239 136q49 98 61 215h-618zM569 944q-176 0 -250 -125q-61 -100 -71 -233h620q-4 127 -47 211q-76 147 -252 147zM59 522q-1 260 137 420t356 160t362 -138t143 -402q0 -263 -126 -432t-390 -169q-221 0 -352 150
q-130 151 -130 411z" />
    <glyph glyph-name="uni0276" unicode="&#x276;" horiz-adv-x="1933" 
d="M885 524q0 222 -88 320q-87 98 -223 98t-227 -105t-91 -307t89 -310t230 -107q113 0 211 95q98 94 99 316zM1659 616q-22 322 -301 322q-90 0 -166 -53q-119 -82 -137 -269h604zM72 506q0 264 133 429t373 165q170 0 280 -82q61 -45 117 -129q63 98 165 153
q102 56 228 56q249 1 383 -193q61 -88 82 -203q10 -72 12 -225h-792q4 -131 45 -213q76 -154 268 -153q135 0 215 92q43 49 74 133h180q-43 -176 -171 -278t-300 -101q-119 0 -222 47t-188 170q-124 -215 -391 -215q-207 0 -349 142q-142 141 -142 405z" />
    <glyph glyph-name="uni0278" unicode="&#x278;" horiz-adv-x="1478" 
d="M276 553q0 -171 96 -279t275 -114v794q-371 -33 -371 -401zM647 1446h184v-332q269 -2 417 -161t151 -421q-4 -244 -165 -386t-403 -146v-418h-184v418q-240 4 -399 147q-164 141 -168 385q0 262 150 421t417 161v332zM831 160q180 6 277 112q94 109 94 281
q-2 369 -371 401v-794z" />
    <glyph glyph-name="uni0279" unicode="&#x279;" horiz-adv-x="681" 
d="M195 188q137 0 209 88t73 201v617h180v-1071h-172v186q-20 -55 -102 -132t-188 -77h-17q-12 0 -43 4v191q28 -7 60 -7z" />
    <glyph glyph-name="uni027A" unicode="&#x27a;" horiz-adv-x="681" 
d="M195 188q137 0 209 88t73 201v991h180v-1445h-172v186q-20 -55 -102 -132t-188 -77h-17q-12 0 -43 4v191q28 -7 60 -7z" />
    <glyph glyph-name="uni027B" unicode="&#x27b;" horiz-adv-x="903" 
d="M477 -160v350q-25 -50 -101 -120t-181 -70h-17q-12 0 -43 4v191q28 -7 60 -7q137 0 209 88t73 201v617h180v-1233q0 -91 25 -109t145 -22v-156q-46 -6 -71 -6q-176 0 -240 98q-39 57 -39 174z" />
    <glyph glyph-name="uni027C" unicode="&#x27c;" horiz-adv-x="681" 
d="M598 905q-135 0 -208 -88t-73 -201v-923h-180v1378h170v-184q23 53 105 131t188 78q14 0 57 -6v-191q-24 6 -59 6z" />
    <glyph glyph-name="uni027D" unicode="&#x27d;" horiz-adv-x="681" 
d="M412 -432q-176 0 -240 98q-39 57 -39 174v457h4v774h170v-184q23 53 105 131t188 78q14 0 57 -6v-191q-24 6 -59 6q-135 0 -208 -88t-73 -201v-616h-4v-139q0 -91 25 -109t145 -22v-156q-47 -6 -71 -6z" />
    <glyph glyph-name="uni027E" unicode="&#x27e;" horiz-adv-x="454" 
d="M221 774v-774h-178v793q0 117 37 176q63 98 278 67q28 0 74 -6v-156q-162 27 -186 10t-25 -110z" />
    <glyph glyph-name="uni027F" unicode="&#x27f;" horiz-adv-x="454" 
d="M432 793v-793h-180v774q0 92 -25 110t-184 -10v156q46 6 72 6q217 31 278 -67q39 -59 39 -176z" />
    <glyph glyph-name="uni0280" unicode="&#x280;" horiz-adv-x="1077" 
d="M981 787q0 -179 -152 -261q63 -53 95 -95t34 -107l7 -144q2 -59 12 -100t45 -55v-25h-236q-15 36 -18 121l-8 178q-6 78 -78 113q-43 18 -131 18h-219v-430h-201v1071h496q123 0 202 -37q152 -68 152 -247zM555 580q102 0 162 41q59 41 59 147q0 59 -82 100
q-45 23 -119 23h-243v-311h223z" />
    <glyph glyph-name="uni0281" unicode="&#x281;" horiz-adv-x="1077" 
d="M981 285q0 -180 -152 -248q-80 -37 -202 -37h-496v1071h201v-432h219q88 0 131 20q72 35 78 113l8 178q3 85 18 121h236v-24q-35 -13 -45 -55t-12 -101l-7 -143q-4 -66 -34 -108t-95 -95q152 -80 152 -260zM332 492v-312h243q74 0 119 23q82 41 82 100q0 105 -59 147
t-162 42h-223z" />
    <glyph glyph-name="uni0283" unicode="&#x283;" horiz-adv-x="825" 
d="M115 -258q84 0 127 76t55 280l51 883q17 262 62 373q76 190 274 190q73 0 147 -26l-14 -162q-81 32 -117 33q-90 1 -122 -91t-46 -317l-32 -682q-18 -365 -94 -542t-281 -177q-68 0 -127 25l12 166q56 -29 105 -29z" />
    <glyph glyph-name="uni0284" unicode="&#x284;" horiz-adv-x="825" 
d="M115 -258q84 0 127 76q31 55 45 182h-221v119h231l51 862q16 262 62 373q76 190 274 190q73 0 147 -26l-14 -162q-81 32 -117 33q-90 1 -122 -91t-46 -317l-32 -682q-4 -98 -15 -180h220v-119h-234q-25 -147 -65 -244q-76 -176 -281 -176q-68 0 -127 25l12 166
q56 -29 105 -29z" />
    <glyph glyph-name="uni0285" unicode="&#x285;" horiz-adv-x="872" 
d="M164 1069q198 0 276 -104q45 -61 62 -205l51 -486q12 -112 54 -154t128 -42q40 0 103 14l14 -90q-87 -12 -127 -12q-205 0 -283 96q-76 98 -94 297l-33 377q-10 125 -44 174t-124 49q-42 0 -114 -18l-17 90q72 14 148 14z" />
    <glyph glyph-name="uni0287" unicode="&#x287;" horiz-adv-x="569" 
d="M160 1368q127 0 172 -64t45 -167v-709h143v-147h-143v-299h-182v299h-172v147h172v698q0 57 -39 76q-20 10 -70 10h-29q-14 0 -34 -2v142q50 16 137 16z" />
    <glyph glyph-name="uni0288" unicode="&#x288;" horiz-adv-x="569" 
d="M383 -444q-125 0 -170 64t-45 167v1137h-145v147h145v299h182v-299h170v-147h-170v-1127q0 -55 37 -74t133 -8v-141q-56 -18 -137 -18z" />
    <glyph glyph-name="uni0289" unicode="&#x289;" horiz-adv-x="1320" 
d="M401 360q0 -231 205 -231q293 0 293 416v80h-498v-265zM217 342v283h-170v141h170v305h184v-305h498v305h180v-305h197v-141h-197v-625h-170l2 158q-107 -187 -336 -187q-358 0 -358 371z" />
    <glyph glyph-name="uni028A" unicode="&#x28a;" horiz-adv-x="1126" 
d="M560 156q171 0 259 90t88 254q0 276 -254 430v141h410v-141h-272q90 -35 181 -143t91 -287q0 -220 -129 -360t-373 -140t-373 139t-129 361q-1 180 91 288t182 142h-273v141h410v-141q-252 -151 -254 -430q0 -164 87 -254t258 -90z" />
    <glyph glyph-name="uni028C" unicode="&#x28c;" horiz-adv-x="1024" 
d="M793 0l-287 870l-299 -870h-197l404 1069h192l395 -1069h-208z" />
    <glyph glyph-name="uni028D" unicode="&#x28d;" horiz-adv-x="1478" 
d="M1243 0l-207 844l-209 -844h-200l-211 838l-219 -838h-181l312 1069h186l219 -827l211 827h186l310 -1069h-197z" />
    <glyph glyph-name="uni028E" unicode="&#x28e;" horiz-adv-x="1024" 
d="M789 1352q-68 0 -105 -58q-33 -66 -82 -192l397 -1102h-204l-287 872l-289 -872h-199q38 102 152 424t226 614t175 382t220 89q57 0 108 -14v-164q-71 21 -112 21z" />
    <glyph glyph-name="uni028F" unicode="&#x28f;" horiz-adv-x="1015" 
d="M606 0h-198v432l-377 639h231l246 -516l244 516h233l-379 -639v-432z" />
    <glyph glyph-name="uni0292" unicode="&#x292;" horiz-adv-x="1024" 
d="M47 901v166h893v-166l-360 -311q152 -27 256 -148q137 -158 137 -440q0 -228 -150 -332t-348 -104t-304 108q-105 109 -134 322h174q25 -119 76 -198t162 -79q147 1 239 61t92 221t-60 299t-233 138l-98 -10h-231l551 473h-662z" />
    <glyph glyph-name="uni0294" unicode="&#x294;" 
d="M156 1010q0 215 122 347t327 132q206 0 324 -113t118 -289q0 -106 -43 -172t-177 -192q-96 -94 -124 -159t-27 -564h-178q0 516 33 604q34 88 149 201l80 80q37 33 57 69q41 66 41 150t-58 156t-194 71q-168 0 -231 -123q-35 -70 -41 -198h-178z" />
    <glyph glyph-name="uni0295" unicode="&#x295;" 
d="M599 1489q206 0 328 -132t122 -347h-179q-6 129 -41 198q-63 123 -231 123q-135 0 -194 -71q-58 -72 -58 -156q0 -132 98 -219l80 -80q115 -113 149 -201t34 -604h-179q0 500 -28 564t-123 159q-133 127 -176 193t-43 171q0 176 117 289q118 113 324 113z" />
    <glyph glyph-name="uni0296" unicode="&#x296;" 
d="M1047 399q0 -175 -118 -287t-324 -112q-205 0 -327 131t-122 348h178q6 -131 41 -198q63 -125 231 -125q135 0 194 71q58 72 58 157t-41 148q-20 37 -57 72l-80 78q-115 115 -149 202t-33 605h178q0 -503 28 -567t142 -174t158 -176q44 -67 43 -173z" />
    <glyph glyph-name="uni0297" unicode="&#x297;" horiz-adv-x="1028" 
d="M975 -10q-59 -410 -469 -410q-198 0 -324 193q-125 193 -125 549q-1 356 137 568t351 212q179 0 293 -88t137 -303h-174q-15 100 -73 165t-183 64q-172 0 -246 -287q-49 -199 -49 -359t68 -361q68 -200 214 -199q111 0 177 68t92 188h174z" />
    <glyph glyph-name="uni0298" unicode="&#x298;" horiz-adv-x="1593" 
d="M686 848h209v-219h-209v219zM803 135q270 1 388 189t118 440q-1 252 -137 410t-367 158t-375 -156q-143 -156 -143 -461q0 -246 123 -413t393 -167zM1511 748q0 -318 -165 -535q-196 -256 -548 -256t-544 223q-174 216 -174 530t147 527q189 273 571 273t568 -250
q145 -194 145 -512z" />
    <glyph glyph-name="uni029A" unicode="&#x29a;" horiz-adv-x="1021" 
d="M287 801q0 -164 221 -164l-14 -143q-113 0 -182 -45q-68 -45 -68 -143t74 -142q74 -43 127 -43t63 1t42 4t87 26q51 27 86 81q68 109 68 270t-50 269q-74 168 -245 168v4q-209 -4 -209 -143zM479 -20q-174 0 -296 84t-122 225q-1 106 63 178t171 102q-90 41 -135 99
t-45 170t108 186q109 72 273 72l127 -11q134 -20 200 -100q139 -221 139 -453t-75 -335q-76 -101 -146 -145t-221 -70q-18 -2 -41 -2z" />
    <glyph glyph-name="uni029C" unicode="&#x29c;" horiz-adv-x="1220" 
d="M162 1071h200v-412h484v412h201v-1071h-201v502h-484v-502h-200v1071z" />
    <glyph glyph-name="uni029E" unicode="&#x29e;" horiz-adv-x="1024" 
d="M1016 -397h-172v852l-463 -455h-229l409 401l-434 670h231l334 -541l152 140v401h172v-1468z" />
    <glyph glyph-name="uni029F" unicode="&#x29f;" horiz-adv-x="1007" 
d="M156 1071h198v-897h545v-174h-743v1071z" />
    <glyph glyph-name="uni02A0" unicode="&#x2a0;" horiz-adv-x="1234" 
d="M540 121q183 0 253 176q39 95 39 241t-44 238q-72 160 -256 160q-116 0 -200 -101t-84 -315q0 -137 39 -231q70 -168 253 -168zM1100 1364q26 0 74 -6v-156q-121 -4 -146 -21t-24 -110h2v-1497h-183v549q-99 -158 -321 -158q-172 0 -307 134q-135 135 -135 401t126 431
q127 165 325 165t312 -158v152q0 117 37 176q63 98 240 98z" />
    <glyph glyph-name="uni02A1" unicode="&#x2a1;" 
d="M270 367h234q8 188 26 237q35 88 150 201l80 80q37 33 57 69q41 66 41 150t-58 156t-194 71q-168 0 -231 -123q-35 -70 -41 -198h-178q0 215 122 347t328 132t323 -113q118 -113 118 -289q0 -106 -43 -172t-177 -192q-96 -94 -125 -160q-14 -35 -20 -196h229v-119h-233
q-2 -106 -2 -248h-178q0 139 2 248h-230v119z" />
    <glyph glyph-name="uni02A2" unicode="&#x2a2;" 
d="M932 248h-227q2 -109 2 -248h-179q0 141 -2 248h-233v119h229q-8 162 -22 196q-28 67 -142 177t-158 176t-44 171q0 176 118 289q119 113 324 113t327 -132t122 -347h-179q-4 129 -41 198q-63 123 -229 123q-135 0 -195 -71q-59 -72 -59 -156t32 -136t66 -83l80 -80
q117 -113 150 -201q20 -49 28 -237h232v-119z" />
    <glyph glyph-name="uni02A3" unicode="&#x2a3;" horiz-adv-x="1906" 
d="M1006 909v-690l571 690h-571zM553 119q125 -1 206 107t81 310t-83 300t-212 98t-214 -104t-85 -292t72 -304q73 -115 235 -115zM55 506q0 242 120 413t341 171q123 -1 207 -52q47 -31 108 -104v541h175v-404h813v-147l-631 -762h649v-162h-993v150q-119 -189 -346 -189
q-180 0 -312 151q-131 152 -131 394z" />
    <glyph glyph-name="uni02A4" unicode="&#x2a4;" horiz-adv-x="1910" 
d="M520 119q125 -1 206 107t81 310t-84 300t-212 98t-213 -104t-85 -292q1 -188 73 -304t234 -115zM23 506q0 242 119 413q120 171 341 171q123 0 207 -52q47 -31 109 -104v541h174v-408h866v-166l-358 -311q150 -27 256 -148q137 -158 137 -440q0 -228 -151 -332t-349 -104
t-303 108q-104 109 -135 322h174q27 -119 77 -198t179 -79q129 1 222 61t93 221t-61 299t-234 138l-98 -10h-231l551 473h-635v-901h-162v150q-119 -189 -346 -189q-180 0 -311 151q-131 152 -131 394z" />
    <glyph glyph-name="uni02A6" unicode="&#x2a6;" horiz-adv-x="1376" 
d="M879 111q100 0 176 44q75 44 75 124t-61 114q-39 23 -154 51l-143 37q-135 33 -201 76q-117 74 -116 203q0 92 41 164h-146v-699q0 -55 30 -70t79 -16h20q-49 86 -53 197h172q8 -90 45 -137q68 -88 236 -88zM383 -16q-125 0 -170 64t-45 167v709h-145v147h145v299h182
v-299h170v-110q20 23 43 45q111 94 295 94q244 0 350 -144q68 -90 66 -192h-170q-6 59 -43 110q-63 70 -215 70q-102 0 -154 -39t-53 -105q0 -109 186 -153l119 -29q195 -47 260 -92q104 -68 104 -213t-108 -249q-110 -104 -340 -105q-230 0 -330 109q-4 6 -10 12v-80
q-62 -16 -137 -16z" />
    <glyph glyph-name="uni02A7" unicode="&#x2a7;" horiz-adv-x="1081" 
d="M350 225q0 -55 30 -70t79 -16h47l45 785h-201v-699zM383 -16q-125 0 -170 64t-45 167v709h-145v147h145v299h182v-299h211q18 193 55 283q76 190 277 190q71 0 145 -26l-14 -162q-81 31 -117 33q-90 1 -123 -91t-45 -317l-32 -682q-19 -365 -95 -542t-280 -177
q-68 0 -127 25l12 166q56 -29 105 -29q84 0 127 76q31 55 45 176q-45 -10 -111 -10z" />
    <glyph glyph-name="uni02A9" unicode="&#x2a9;" horiz-adv-x="1486" 
d="M1116 -432q-24 0 -72 6v156q121 4 146 21t24 110v139h-4v676q0 258 -202 258q-63 0 -121 -18t-109 -78t-64 -116t-14 -161v-561h-180v924h-166v-924h-178v924h-147v143h147v168q4 111 39 164q63 92 244 92q30 0 76 -4v-164l-64 2q-82 0 -98 -43t-17 -215h164v4h172v-151
q142 176 360 176q217 0 298 -160q45 -86 45 -250v-846q0 -117 -39 -174q-63 -98 -240 -98z" />
    <glyph glyph-name="uni02AA" unicode="&#x2aa;" horiz-adv-x="1218" 
d="M715 111q100 0 176 44t76 124t-62 114q-39 23 -153 51l-144 37q-137 33 -199 74t-92 94v-313h117q8 -90 45 -137q68 -88 236 -88zM137 1468h180v-575q27 63 82 113q111 94 295 94q244 0 350 -144q66 -90 66 -192h-172q-4 59 -43 110q-61 70 -213 70q-102 0 -156 -39
t-53 -105q0 -109 189 -153l118 -29q195 -47 260 -92q104 -68 104 -213t-108 -249q-109 -104 -339 -105q-230 0 -330 109q-29 31 -50 67v-135h-180v1468z" />
    <glyph glyph-name="uni02AB" unicode="&#x2ab;" horiz-adv-x="1208" 
d="M317 909v-669l555 669h-555zM137 1468h180v-397h797v-147l-631 -762h650v-162h-996v1468z" />
    <glyph glyph-name="uni02AC" unicode="&#x2ac;" horiz-adv-x="878" 
d="M127 1468l123 -501l125 501h121l122 -497l132 497h106l-184 -637h-111l-131 494l-125 -494h-110l-185 637h117zM127 637l123 -502l125 502h121l122 -500l132 500h106l-184 -637h-111l-131 494l-125 -494h-110l-185 637h117z" />
    <glyph glyph-name="uni02AD" unicode="&#x2ad;" horiz-adv-x="1361" 
d="M1247 1427v-604h-110v477h-922v-477h-111v604h1143zM1247 602v-602h-110v475h-922v-475h-111v602h1143z" />
    <glyph glyph-name="uni02AE" unicode="&#x2ae;" horiz-adv-x="1208" 
d="M123 1329q176 0 239 -96q37 -59 37 -176v-10h7v-674q0 -119 30 -174q48 -88 172 -88q124 1 214 77t91 291v568h181v-1473h-181v547q-63 -80 -114 -115q-86 -55 -217 -55q-233 0 -316 162q-45 90 -45 247v242h-2v436q0 92 -24 110q-25 17 -146 21v156q66 4 74 4z" />
    <glyph glyph-name="uni02AF" unicode="&#x2af;" horiz-adv-x="1323" 
d="M911 -160v279q-61 -80 -112 -113q-86 -55 -217 -55q-233 0 -316 162q-45 90 -45 247v242h-2v436q0 92 -24 110q-25 17 -146 21v156q66 4 74 4q176 0 239 -96q37 -59 37 -176v-10h7v-674q0 -119 30 -174q48 -88 172 -88q124 1 214 77t91 291v568h181v-1205h-2
q2 -76 26 -92t144 -20v-156q-46 -6 -72 -6q-176 0 -240 98q-39 57 -39 174z" />
    <glyph glyph-name="uni02B0" unicode="&#x2b0;" horiz-adv-x="569" 
d="M322 1280q182 0 182 -207v-344h-94v338q0 59 -15 86q-25 45 -86 45t-107 -39t-46 -145v-285h-90v737h90v-272q33 41 57 55q43 31 109 31z" />
    <glyph glyph-name="uni02B1" unicode="&#x2b1;" horiz-adv-x="569" 
d="M156 1356v-162q33 41 57 55q43 31 109 31q182 0 182 -207v-344h-94v338q0 59 -15 86q-25 45 -86 45t-107 -39t-46 -145v-285h-90v637q0 57 18 86q33 49 121 49l35 -2v-78q-60 -2 -72 -11t-12 -54z" />
    <glyph glyph-name="uni02B2" unicode="&#x2b2;" horiz-adv-x="227" 
d="M66 1264h90v-615q0 -57 -19 -86q-31 -49 -119 -49h-14q-8 0 -22 2v78q61 2 72 11t12 54v605zM156 1362h-90v102h90v-102z" />
    <glyph glyph-name="uni02B3" unicode="&#x2b3;" horiz-adv-x="342" 
d="M299 1184q-67 0 -103 -44t-36 -102v-309h-90v537h84v-92q12 28 53 66t92 38h10q6 0 21 -2v-96q-16 4 -31 4z" />
    <glyph glyph-name="uni02B4" unicode="&#x2b4;" horiz-adv-x="342" 
d="M82 825h16q68 0 105 43t37 101v309h90v-537h-86v93q-10 -27 -51 -66t-97 -39l-28 2v96q8 -2 14 -2z" />
    <glyph glyph-name="uni02B5" unicode="&#x2b5;" horiz-adv-x="452" 
d="M82 825h16q68 0 105 43t37 101v309h90v-619q0 -45 12 -54t72 -11v-78q-14 -2 -23 -2h-12q-88 0 -121 49q-18 29 -18 86v176q-14 -25 -51 -61t-93 -35l-28 2v96q8 -2 14 -2z" />
    <glyph glyph-name="uni02B6" unicode="&#x2b6;" horiz-adv-x="765" 
d="M92 709v759h144v-305h155q139 0 148 94l6 127q3 55 14 84h166v-16q-25 -10 -32 -39t-9 -72l-2 -102q-4 -45 -27 -75t-65 -68q108 -59 107 -187q-1 -127 -107 -174q-57 -27 -146 -26h-352zM236 1059v-221h172q53 0 86 16q59 29 59 70q0 76 -43 106t-115 29h-159z" />
    <glyph glyph-name="uni02B7" unicode="&#x2b7;" horiz-adv-x="739" 
d="M109 1266l102 -422l104 422h101l104 -420l111 420h90l-156 -537h-94l-109 416l-106 -416h-92l-156 537h101z" />
    <glyph glyph-name="uni02B8" unicode="&#x2b8;" horiz-adv-x="512" 
d="M59 598q50 -8 69 -8t35 23t46 102l-199 551h103l143 -437l145 437h99q-116 -329 -180 -498q-64 -168 -96 -213t-109 -45q-33 0 -56 6v82z" />
    <glyph glyph-name="uni02B9" unicode="&#x2b9;" horiz-adv-x="342" 
d="M299 1464l-133 -577h-70l92 577h111z" />
    <glyph glyph-name="uni02BA" unicode="&#x2ba;" horiz-adv-x="634" 
d="M549 1464l-133 -577h-70l92 577h111zM299 1464l-133 -577h-70l92 577h111z" />
    <glyph glyph-name="uni02BB" unicode="&#x2bb;" horiz-adv-x="454" 
d="M233 1204q0 -11 5 -24h108v-217h-215v200q0 119 50 212t165 108v-94q-55 -7 -84 -61t-29 -124z" />
    <glyph glyph-name="uni02BC" unicode="&#x2bc;" horiz-adv-x="454" 
d="M283 1227q0 8 -4 24h-109v217h213v-200q0 -127 -52 -217t-161 -103v94q55 8 84 62t29 123z" />
    <glyph glyph-name="uni02BD" unicode="&#x2bd;" horiz-adv-x="454" 
d="M170 1268v200h213v-217h-109q-2 -8 -2 -14v-10q0 -70 29 -123t82 -62v-94q-105 12 -159 102t-54 218z" />
    <glyph glyph-name="uni02BE" unicode="&#x2be;" horiz-adv-x="425" 
d="M137 1208v82q53 0 90 38t37 89t-37 88t-90 37v84q85 0 147 -61t62 -147t-62 -148t-147 -62z" />
    <glyph glyph-name="uni02BF" unicode="&#x2bf;" horiz-adv-x="425" 
d="M346 1208q-86 0 -147 62t-62 147t61 147t148 62v-84q-51 0 -88 -37t-37 -88t37 -89t88 -38v-82z" />
    <glyph glyph-name="uni02C0" unicode="&#x2c0;" horiz-adv-x="569" 
d="M303 1397q-130 0 -135 -162h-90q0 109 62 175t163 65t161 -57t60 -144q0 -53 -22 -86t-79 -88t-71 -87t-14 -284h-88q0 260 16 303t74 101l41 38q47 53 47 102q0 50 -29 87t-96 37z" />
    <glyph glyph-name="uni02C1" unicode="&#x2c1;" horiz-adv-x="569" 
d="M299 1475q101 0 163 -66t62 -174h-90q-2 66 -18 98q-33 63 -109 63q-75 0 -105 -36q-30 -37 -30 -79q0 -43 16 -67t33 -43l41 -38q56 -57 74 -101t18 -303h-90q0 252 -14 284t-71 87t-78 88q-22 33 -21 86q0 88 58 144t161 57z" />
    <glyph glyph-name="uni02C2" unicode="&#x2c2;" horiz-adv-x="598" 
d="M14 1032l584 230v-91l-477 -180l477 -180v-90l-584 229v82z" />
    <glyph glyph-name="uni02C3" unicode="&#x2c3;" horiz-adv-x="598" 
d="M598 948l-584 -227v90l478 180l-478 180v91l584 -230v-84z" />
    <glyph glyph-name="uni02C4" unicode="&#x2c4;" horiz-adv-x="598" 
d="M348 1284l230 -586h-91l-180 480l-180 -480h-90l229 586h82z" />
    <glyph glyph-name="uni02C5" unicode="&#x2c5;" horiz-adv-x="598" 
d="M264 698l-227 586h90l180 -477l180 477h91l-230 -586h-84z" />
    <glyph glyph-name="circumflex" unicode="&#x2c6;" horiz-adv-x="454" 
d="M131 1497h191l213 -293h-173l-141 197l-143 -197h-156z" />
    <glyph glyph-name="caron" unicode="&#x2c7;" horiz-adv-x="454" 
d="M324 1204h-191l-211 293h170l141 -197l144 197h158z" />
    <glyph glyph-name="uni02C8" unicode="&#x2c8;" horiz-adv-x="391" 
d="M121 1458h100v-311h-100v311z" />
    <glyph glyph-name="uni02C9" unicode="&#x2c9;" horiz-adv-x="454" 
d="M-121 1397h699v-113h-699v113z" />
    <glyph glyph-name="uni02CA" unicode="&#x2ca;" horiz-adv-x="681" 
d="M598 1501l-266 -289h-139l184 289h221z" />
    <glyph glyph-name="uni02CB" unicode="&#x2cb;" horiz-adv-x="681" 
d="M463 1212h-137l-269 289h224z" />
    <glyph glyph-name="uni02CC" unicode="&#x2cc;" horiz-adv-x="391" 
d="M121 -141h100v-312h-100v312z" />
    <glyph glyph-name="uni02CD" unicode="&#x2cd;" horiz-adv-x="681" 
d="M8 -201h639v-116h-639v116z" />
    <glyph glyph-name="uni02CE" unicode="&#x2ce;" horiz-adv-x="681" 
d="M463 -387h-137l-269 289h224z" />
    <glyph glyph-name="uni02CF" unicode="&#x2cf;" horiz-adv-x="681" 
d="M598 -98l-266 -289h-139l184 289h221z" />
    <glyph glyph-name="uni02D0" unicode="&#x2d0;" horiz-adv-x="425" 
d="M403 954v-59l-155 -311h-62l-153 311v59h370zM33 -16v59l155 311h62l153 -311v-59h-370z" />
    <glyph glyph-name="uni02D1" unicode="&#x2d1;" horiz-adv-x="425" 
d="M403 655v-59l-155 -313h-62l-153 313v59h370z" />
    <glyph glyph-name="uni02D2" unicode="&#x2d2;" horiz-adv-x="425" 
d="M137 408v84q53 0 90 36t37 89q0 51 -37 89t-90 37v82q85 0 147 -61q62 -62 62 -148t-62 -147t-147 -61z" />
    <glyph glyph-name="uni02D3" unicode="&#x2d3;" horiz-adv-x="425" 
d="M346 408q-86 0 -147 61t-62 147t61 148t148 61v-82q-51 -1 -88 -37t-37 -88t37 -90q37 -37 88 -36v-84z" />
    <glyph glyph-name="uni02D4" unicode="&#x2d4;" horiz-adv-x="598" 
d="M45 0v84h219v438h84v-438h219v-84h-522z" />
    <glyph glyph-name="uni02D5" unicode="&#x2d5;" horiz-adv-x="598" 
d="M567 522v-84h-219v-438h-84v438h-219v84h522z" />
    <glyph glyph-name="uni02D6" unicode="&#x2d6;" horiz-adv-x="598" 
d="M45 219v84h219v219h84v-219h219v-84h-219v-219h-84v219h-219z" />
    <glyph glyph-name="uni02D7" unicode="&#x2d7;" horiz-adv-x="681" 
d="M86 532h502v-94h-502v94z" />
    <glyph glyph-name="breve" unicode="&#x2d8;" horiz-adv-x="454" 
d="M240 1327q88 0 130 46t72 124h105q-23 -131 -106 -207t-221 -76q-269 0 -310 283h100q49 -170 230 -170z" />
    <glyph glyph-name="dotaccent" unicode="&#x2d9;" horiz-adv-x="454" 
d="M319 1212h-184v213h184v-213z" />
    <glyph glyph-name="ring" unicode="&#x2da;" horiz-adv-x="454" 
d="M88 1356q0 -60 40 -100t99 -40t100 40q40 40 40 100t-40 99q-39 40 -99 40t-100 -40t-40 -99zM-2 1357q0 94 67 162t162 68t162 -67t69 -163q1 -95 -67 -163t-164 -69t-163 69q-66 69 -66 163z" />
    <glyph glyph-name="ogonek" unicode="&#x2db;" horiz-adv-x="454" 
d="M471 6q-176 -146 -176 -239t79 -93t126 62l65 -37q-72 -127 -221 -127q-120 0 -166 73q-37 54 -18 124t85 131t144 106h82z" />
    <glyph glyph-name="tilde" unicode="&#x2dc;" horiz-adv-x="454" 
d="M584 1456q-30 -227 -226 -227q-46 0 -135 41q-100 38 -136 38q-36 1 -69 -23t-28 -62h-107q28 104 62 146q65 79 140 79t137 -28q60 -28 94 -40q34 -14 67 -14q64 0 94 90h107z" />
    <glyph glyph-name="hungarumlaut" unicode="&#x2dd;" horiz-adv-x="454" 
d="M68 1497h215l-246 -293h-133zM387 1497h215l-246 -293h-135z" />
    <glyph glyph-name="uni02DE" unicode="&#x2de;" horiz-adv-x="847" 
d="M496 622q0 -42 12 -73t47 -41q56 -16 105 14t73 86q18 -18 47 -35l23 -16q10 -6 22 -18q-58 -144 -231 -156q-110 -8 -171 59t-63 197q-52 -12 -164 -51t-178 -49v120l471 146q11 -45 9 -93t-2 -90z" />
    <glyph glyph-name="uni02DF" unicode="&#x2df;" horiz-adv-x="598" 
d="M57 1182l60 59l188 -190l191 190l61 -59l-190 -191l190 -188l-61 -62l-191 191l-188 -191l-60 62l191 188z" />
    <glyph glyph-name="uni02E0" unicode="&#x2e0;" horiz-adv-x="569" 
d="M342 528h-92v238l-158 354q-14 41 -24 60q-20 23 -60 10v74q18 8 56 9q68 2 102 -93l129 -310l158 394h96l-207 -498v-238z" />
    <glyph glyph-name="uni02E1" unicode="&#x2e1;" horiz-adv-x="227" 
d="M68 1464h90v-735h-90v735z" />
    <glyph glyph-name="uni02E2" unicode="&#x2e2;" horiz-adv-x="512" 
d="M244 1202q-105 0 -105 -72q-1 -35 27 -51t67 -26l60 -15q96 -24 139 -52t43 -100t-54 -125q-54 -52 -170 -52t-165 54t-53 134h88q4 -43 20 -68q35 -45 101 -45q142 0 143 90q0 35 -29 54q-20 10 -77 24l-72 19q-68 16 -101 37q-59 38 -59 108t55 117t162 47t162 -72
q33 -45 31 -98h-84q-2 32 -28 62t-101 30z" />
    <glyph glyph-name="uni02E3" unicode="&#x2e3;" horiz-adv-x="512" 
d="M14 1266h117l125 -189l123 189l110 -2l-182 -260l191 -275h-115l-133 203l-129 -203h-115l189 275z" />
    <glyph glyph-name="uni02E4" unicode="&#x2e4;" horiz-adv-x="569" 
d="M299 1475q101 0 163 -66t62 -174h-90q-2 66 -18 98q-33 63 -109 63q-75 0 -105 -36q-30 -37 -30 -79q0 -43 16 -67t33 -43l41 -38q56 -57 74 -101t18 -303h-90q0 252 -14 284t-71 87t-78 88q-22 33 -21 86q0 88 58 144t161 57z" />
    <glyph glyph-name="uni02E5" unicode="&#x2e5;" horiz-adv-x="843" 
d="M612 0v1323h-612v145h784v-1468h-172z" />
    <glyph glyph-name="uni02E6" unicode="&#x2e6;" horiz-adv-x="843" 
d="M612 0v991h-612v148h612v329h172v-1468h-172z" />
    <glyph glyph-name="uni02E7" unicode="&#x2e7;" horiz-adv-x="843" 
d="M612 0v662h-612v147h612v659h172v-1468h-172z" />
    <glyph glyph-name="uni02E8" unicode="&#x2e8;" horiz-adv-x="843" 
d="M784 1468v-1468h-172v330h-612v147h612v991h172z" />
    <glyph glyph-name="uni02E9" unicode="&#x2e9;" horiz-adv-x="843" 
d="M784 1468v-1468h-784v147h612v1321h172z" />
    <glyph glyph-name="uni02EA" unicode="&#x2ea;" horiz-adv-x="630" 
d="M59 1071h84v-997h488v-74h-572v1071z" />
    <glyph glyph-name="uni02EB" unicode="&#x2eb;" horiz-adv-x="630" 
d="M59 1071h84v-500h488v-73h-488v-498h-84v1071z" />
    <glyph glyph-name="uni02EC" unicode="&#x2ec;" horiz-adv-x="681" 
d="M424 -387h-191l-202 289h162l135 -193l135 193h164z" />
    <glyph glyph-name="uni02ED" unicode="&#x2ed;" horiz-adv-x="681" 
d="M-8 1169h702v-116h-702v116zM-8 1401h702v-119h-702v119z" />
    <glyph glyph-name="uni02EE" unicode="&#x2ee;" horiz-adv-x="681" 
d="M78 1251v217h213v-200q0 -119 -49 -211t-164 -109v94q76 14 100 109q14 57 8 100h-108zM414 1251v217h215v-200q0 -119 -49 -212t-166 -108v94q76 14 98 109q14 57 10 100h-108z" />
    <glyph glyph-name="uni02EF" unicode="&#x2ef;" horiz-adv-x="598" 
d="M264 -502l-227 586h90l180 -477l180 477h91l-230 -586h-84z" />
    <glyph glyph-name="uni02F0" unicode="&#x2f0;" horiz-adv-x="598" 
d="M348 84l230 -586h-91l-180 479l-180 -479h-90l229 586h82z" />
    <glyph glyph-name="uni02F1" unicode="&#x2f1;" horiz-adv-x="598" 
d="M14 -168l584 229v-90l-477 -180l477 -180v-90l-584 229v82z" />
    <glyph glyph-name="uni02F2" unicode="&#x2f2;" horiz-adv-x="598" 
d="M598 -252l-584 -227v90l478 180l-478 180v90l584 -229v-84z" />
    <glyph glyph-name="uni02F3" unicode="&#x2f3;" horiz-adv-x="681" 
d="M328 27q86 1 147 -61t61 -148t-60 -148q-62 -62 -148 -61q-86 0 -147 61q-60 62 -60 148q1 86 61 148t146 61zM329 -309q52 0 89 37t37 89t-37 89t-89 37t-89 -37t-37 -89t37 -89t89 -37z" />
    <glyph glyph-name="uni02F4" unicode="&#x2f4;" horiz-adv-x="681" 
d="M463 594h-137l-269 289h224z" />
    <glyph glyph-name="uni02F5" unicode="&#x2f5;" horiz-adv-x="681" 
d="M735 592h-127l-225 291h215zM401 592h-127l-223 291h213z" />
    <glyph glyph-name="uni02F6" unicode="&#x2f6;" horiz-adv-x="681" 
d="M188 883h215l-227 -291h-125zM520 883h215l-223 -291h-129z" />
    <glyph glyph-name="uni02F7" unicode="&#x2f7;" horiz-adv-x="681" 
d="M188 221q71 0 189 -51q135 -50 171 2q18 26 23 66h107q-23 -128 -82 -176t-116 -48t-130 27l-53 18q-97 33 -133 33q-74 0 -88 -92h-99q12 80 43 129q57 92 168 92z" />
    <glyph glyph-name="uni02F8" unicode="&#x2f8;" horiz-adv-x="569" 
d="M227 631h209v-219h-209v219zM227 1468h209v-217h-209v217z" />
    <glyph glyph-name="uni02F9" unicode="&#x2f9;" horiz-adv-x="681" 
d="M190 1468h302v-73h-218v-488h-84v561z" />
    <glyph glyph-name="uni02FA" unicode="&#x2fa;" horiz-adv-x="681" 
d="M492 907h-84v488h-218v73h302v-561z" />
    <glyph glyph-name="uni02FB" unicode="&#x2fb;" horiz-adv-x="681" 
d="M190 561h84v-487h218v-74h-302v561z" />
    <glyph glyph-name="uni02FC" unicode="&#x2fc;" horiz-adv-x="681" 
d="M492 0h-302v74h218v487h84v-561z" />
    <glyph glyph-name="uni02FD" unicode="&#x2fd;" horiz-adv-x="681" 
d="M59 -16v301h74v-217h416v217h74v-301h-564z" />
    <glyph glyph-name="uni02FE" unicode="&#x2fe;" horiz-adv-x="681" 
d="M59 -16v301h74v-217h490v-84h-564z" />
    <glyph glyph-name="uni02FF" unicode="&#x2ff;" horiz-adv-x="1159" 
d="M602 289h549v-119h-549v-170l-584 229v2l584 230v-172z" />
    <glyph glyph-name="gravecmb" unicode="&#x300;" horiz-adv-x="0" 
d="M-494 1497h222l176 -293h-131z" />
    <glyph glyph-name="acutecmb" unicode="&#x301;" horiz-adv-x="0" 
d="M-170 1497h223l-268 -293h-131z" />
    <glyph glyph-name="circumflexcmb" unicode="&#x302;" horiz-adv-x="0" 
d="M-317 1497h190l213 -293h-172l-141 197l-144 -197h-155z" />
    <glyph glyph-name="tildecmb" unicode="&#x303;" horiz-adv-x="0" 
d="M-66 1366q65 0 95 90h106q-12 -92 -63 -164q-59 -63 -162 -63q-48 0 -135 41q-100 38 -136 38q-36 1 -69 -23t-29 -62h-106q28 106 62 147q64 78 141 78q76 0 136 -28t94 -40q34 -14 66 -14z" />
    <glyph glyph-name="macroncmb" unicode="&#x304;" horiz-adv-x="0" 
d="M-567 1382h696v-112h-696v112z" />
    <glyph glyph-name="uni0305" unicode="&#x305;" horiz-adv-x="0" 
d="M-922 1401h705v-119h-705v119z" />
    <glyph glyph-name="brevecmb" unicode="&#x306;" horiz-adv-x="0" 
d="M-209 1327q88 0 130 46t73 124h104q-24 -131 -106 -207t-220 -76q-268 0 -311 283h101q49 -170 229 -170z" />
    <glyph glyph-name="dotaccentcmb" unicode="&#x307;" horiz-adv-x="0" 
d="M-129 1212h-184v213h184v-213z" />
    <glyph glyph-name="dieresiscmb" unicode="&#x308;" horiz-adv-x="0" 
d="M-121 1425h184v-213h-184v213zM-504 1425h182v-213h-182v213z" />
    <glyph glyph-name="uni0309" unicode="&#x309;" horiz-adv-x="0" 
d="M-606 1620q100 0 153 -80q23 -34 23 -82q0 -101 -131 -133l-4 -43h-88v76q59 6 92 36t33 65t-41 63q-29 18 -62 18t-74 -6l-4 80q69 6 103 6z" />
    <glyph glyph-name="ringcmb" unicode="&#x30a;" horiz-adv-x="0" 
d="M-360 1356q0 -59 39 -100q39 -40 99 -40t100 40t40 100t-40 99q-40 40 -99 40t-99 -40t-40 -99zM-451 1356q0 93 67 162t162 69q96 0 164 -68t68 -163t-67 -162t-164 -69q-96 -1 -163 69q-67 69 -67 162z" />
    <glyph glyph-name="hungarumlautcmb" unicode="&#x30b;" horiz-adv-x="0" 
d="M-381 1497h215l-246 -293h-133zM-61 1497h215l-246 -293h-135z" />
    <glyph glyph-name="caroncmb" unicode="&#x30c;" horiz-adv-x="0" 
d="M-125 1204h-190l-211 293h170l141 -197l143 197h158z" />
    <glyph glyph-name="uni030D" unicode="&#x30d;" horiz-adv-x="0" 
d="M-621 1458h103v-311h-103v311z" />
    <glyph glyph-name="uni030E" unicode="&#x30e;" horiz-adv-x="0" 
d="M-516 1458h102v-311h-102v311zM-725 1458h100v-311h-100v311z" />
    <glyph glyph-name="uni030F" unicode="&#x30f;" horiz-adv-x="0" 
d="M-227 1210h-127l-228 291h217zM-561 1210h-127l-223 291h213z" />
    <glyph glyph-name="uni0310" unicode="&#x310;" horiz-adv-x="0" 
d="M-662 1675h189v-209h-189v209zM-784 1499q16 -63 47 -96q55 -59 169 -59t169 59q31 33 47 96h98q-20 -145 -103 -211t-227 -65q-176 0 -254 118q-39 63 -49 158h103z" />
    <glyph glyph-name="uni0311" unicode="&#x311;" horiz-adv-x="0" 
d="M-572 1378q-114 0 -167 -57q-31 -35 -47 -98h-101q38 278 330 276q176 0 254 -119q41 -61 49 -157h-102q-16 63 -47 98q-55 57 -169 57z" />
    <glyph glyph-name="uni0312" unicode="&#x312;" horiz-adv-x="0" 
d="M-463 1180v-217h-215v200q0 119 50 212t165 108v-94q-55 -7 -84 -61t-28 -124q0 -8 4 -24h108z" />
    <glyph glyph-name="uni0313" unicode="&#x313;" horiz-adv-x="0" 
d="M-565 1227v10q0 6 -2 14h-111v217h215v-200q0 -127 -53 -217t-162 -103v94q55 8 84 62t29 123z" />
    <glyph glyph-name="uni0314" unicode="&#x314;" horiz-adv-x="0" 
d="M-575 1227q1 -70 29 -123t83 -62v-94q-109 12 -162 102t-53 218v200h215v-217h-108q-4 -16 -4 -24z" />
    <glyph glyph-name="uni0315" unicode="&#x315;" horiz-adv-x="0" 
d="M-565 1227v10q0 6 -2 14h-111v217h215v-200q0 -127 -53 -217t-162 -103v94q55 8 84 62t29 123z" />
    <glyph glyph-name="uni0316" unicode="&#x316;" horiz-adv-x="0" 
d="M-367 -387h-137l-268 289h223z" />
    <glyph glyph-name="uni0317" unicode="&#x317;" horiz-adv-x="0" 
d="M-367 -98l-268 -289h-137l182 289h223z" />
    <glyph glyph-name="uni0318" unicode="&#x318;" horiz-adv-x="0" 
d="M-393 -383h-436v86h436v217h84v-520h-84v217z" />
    <glyph glyph-name="uni0319" unicode="&#x319;" horiz-adv-x="0" 
d="M-745 -600h-84v520h84v-217h436v-86h-436v-217z" />
    <glyph glyph-name="uni031A" unicode="&#x31a;" horiz-adv-x="0" 
d="M-309 1401v-299h-84v215h-436v84h520z" />
    <glyph glyph-name="uni031B" unicode="&#x31b;" horiz-adv-x="0" 
d="M-786 1133q37 -59 124 -43q50 4 78 15q27 11 31 17l-41 101l201 84l82 -199l-187 -78q-109 -45 -211 -40t-118 44z" />
    <glyph glyph-name="uni031C" unicode="&#x31c;" horiz-adv-x="0" 
d="M-465 -391q-86 0 -147 61q-62 62 -62 148t62 147t147 62v-84q-51 0 -89 -37t-38 -89t38 -89t89 -37v-82z" />
    <glyph glyph-name="uni031D" unicode="&#x31d;" horiz-adv-x="0" 
d="M-612 -516v436h86v-436h217v-84h-522v84h219z" />
    <glyph glyph-name="uni031E" unicode="&#x31e;" horiz-adv-x="0" 
d="M-831 -164v84h522v-84h-217v-436h-86v436h-219z" />
    <glyph glyph-name="uni031F" unicode="&#x31f;" horiz-adv-x="0" 
d="M-831 -381v84h219v219h86v-219h217v-84h-217v-219h-86v219h-219z" />
    <glyph glyph-name="uni0320" unicode="&#x320;" horiz-adv-x="0" 
d="M-891 -201h641v-116h-641v116z" />
    <glyph glyph-name="uni0321" unicode="&#x321;" horiz-adv-x="0" 
d="M-571 12h90v-370q0 -59 -21 -88q-31 -49 -119 -50h-14q-6 0 -22 2v78q59 2 72 12t14 54v362z" />
    <glyph glyph-name="uni0322" unicode="&#x322;" horiz-adv-x="0" 
d="M-504 -496h-14q-88 0 -121 50q-18 29 -18 88v370h90v-362q0 -45 12 -54t74 -12v-78q-16 -2 -23 -2z" />
    <glyph glyph-name="uni0323" unicode="&#x323;" horiz-adv-x="0" 
d="M-664 -156h189v-206h-189v206z" />
    <glyph glyph-name="uni0324" unicode="&#x324;" horiz-adv-x="0" 
d="M-827 -156h186v-206h-186v206zM-498 -156h187v-206h-187v206z" />
    <glyph glyph-name="uni0325" unicode="&#x325;" horiz-adv-x="0" 
d="M-569 27q86 1 147 -61q62 -62 62 -148t-62 -148t-147 -61q-86 0 -148 61q-61 62 -61 148t62 148t147 61zM-569 -309q51 0 88 37t37 89t-37 89t-88 37t-88 -37t-37 -89t37 -89t88 -37z" />
    <glyph glyph-name="uni0326" unicode="&#x326;" horiz-adv-x="0" 
d="M-565 -375v15q0 4 -2 12h-111v217h215v-201q0 -129 -53 -218t-162 -101v94q55 8 84 61t29 121z" />
    <glyph glyph-name="cedillacmb" unicode="&#x327;" horiz-adv-x="0" 
d="M-150 -257q0 24 -27 41q-28 17 -68 17t-85 -16l-35 57l125 158h86l-86 -106l4 -5q20 15 77 15t110 -37t53 -101q0 -107 -84 -154q-67 -40 -159 -40q-91 0 -199 39l37 90q87 -35 148 -27t82 27q21 18 21 42z" />
    <glyph glyph-name="ogonekcmb" unicode="&#x328;" horiz-adv-x="0" 
d="M23 6q-177 -147 -177 -239q0 -93 79 -93t126 62l66 -37q-72 -127 -221 -127q-189 0 -189 168q0 79 110 179q46 42 124 87h82z" />
    <glyph glyph-name="uni0329" unicode="&#x329;" horiz-adv-x="0" 
d="M-621 -141h103v-312h-103v312z" />
    <glyph glyph-name="uni032A" unicode="&#x32a;" horiz-adv-x="0" 
d="M-188 -14v-303h-74v217h-615v-217h-73v303h762z" />
    <glyph glyph-name="uni032B" unicode="&#x32b;" horiz-adv-x="0" 
d="M-843 -256q114 0 167 57q29 33 45 90q0 4 -2 9h103q16 -66 47 -99q57 -57 170 -57t168 57q31 35 47 99h98q-20 -147 -103 -212t-227 -65q-176 0 -254 119v2q-73 -121 -263 -121q-189 0 -265 119q-41 61 -49 158h100q16 -66 47 -99q57 -57 171 -57z" />
    <glyph glyph-name="uni032C" unicode="&#x32c;" horiz-adv-x="0" 
d="M-475 -387h-191l-202 289h163l136 -193l135 193h164z" />
    <glyph glyph-name="uni032D" unicode="&#x32d;" horiz-adv-x="0" 
d="M-475 -98l205 -289h-164l-135 192l-136 -192h-163l202 289h191z" />
    <glyph glyph-name="uni032E" unicode="&#x32e;" horiz-adv-x="0" 
d="M-568 -256q114 0 169 57q31 35 47 99h98q-20 -147 -103 -212t-227 -65q-274 0 -303 277h103q16 -66 47 -99q55 -57 169 -57z" />
    <glyph glyph-name="uni032F" unicode="&#x32f;" horiz-adv-x="0" 
d="M-887 -379q38 279 330 279q176 0 254 -119q41 -63 49 -160h-102q-16 66 -47 98q-55 59 -169 59t-167 -59q-31 -33 -47 -98h-101z" />
    <glyph glyph-name="uni0330" unicode="&#x330;" horiz-adv-x="0" 
d="M-413 -223q47 1 65 27t22 65h107q-23 -127 -82 -175t-117 -48t-129 26l-53 19q-99 34 -133 35q-74 0 -88 -95h-99q12 80 43 129q57 92 168 93q65 0 157 -38q93 -38 139 -38z" />
    <glyph glyph-name="uni0331" unicode="&#x331;" horiz-adv-x="0" 
d="M-891 -201h641v-116h-641v116z" />
    <glyph glyph-name="uni0332" unicode="&#x332;" horiz-adv-x="0" 
d="M-922 -201h705v-116h-705v116z" />
    <glyph glyph-name="uni0333" unicode="&#x333;" horiz-adv-x="0" 
d="M-922 -430h705v-119h-705v119zM-922 -201h705v-116h-705v116z" />
    <glyph glyph-name="uni0334" unicode="&#x334;" horiz-adv-x="0" 
d="M-733 524q-74 0 -88 -92h-99q12 80 43 129q57 92 168 92q71 0 189 -51q65 -24 109 -24q45 0 63 26t22 66h107q-23 -127 -82 -175t-129 -49q-33 0 -117 25l-53 21q-94 32 -133 32z" />
    <glyph glyph-name="uni0335" unicode="&#x335;" horiz-adv-x="0" 
d="M-891 600h641v-119h-641v119z" />
    <glyph glyph-name="uni0336" unicode="&#x336;" horiz-adv-x="0" 
d="M-922 600h705v-119h-705v119z" />
    <glyph glyph-name="uni0337" unicode="&#x337;" horiz-adv-x="0" 
d="M-414 1085h154l-467 -735h-152z" />
    <glyph glyph-name="soliduslongoverlaycmb" unicode="&#x338;" horiz-adv-x="0" 
d="M-106 1497h149l-606 -1530h-148z" />
    <glyph glyph-name="uni0339" unicode="&#x339;" horiz-adv-x="0" 
d="M-674 -391v82q51 0 88 37t37 89t-37 89t-88 37v84q86 1 148 -61t61 -148q0 -86 -61 -148q-62 -61 -148 -61z" />
    <glyph glyph-name="uni033A" unicode="&#x33a;" horiz-adv-x="0" 
d="M-950 -317v303h73v-217h615v217h74v-303h-762z" />
    <glyph glyph-name="uni033B" unicode="&#x33b;" horiz-adv-x="0" 
d="M-393 -479v375h-352v-375h352zM-831 -31h522v-522h-522v522z" />
    <glyph glyph-name="uni033C" unicode="&#x33c;" horiz-adv-x="0" 
d="M-334 -100q143 0 184 -179q-56 59 -168 59t-169 -59q-27 -31 -35 -63t-8 -35h-107q-12 68 -43 98q-55 59 -169 59t-167 -59q41 178 182 179q174 0 250 -113q78 113 250 113z" />
    <glyph glyph-name="uni033D" unicode="&#x33d;" horiz-adv-x="0" 
d="M-819 1581l59 59l189 -190l190 190l62 -59l-191 -188l191 -191l-62 -59l-190 188l-189 -188l-59 59l188 191z" />
    <glyph glyph-name="uni033E" unicode="&#x33e;" horiz-adv-x="0" 
d="M-688 1106q92 9 92 81q0 52 -38 141t-38 161q0 111 92 168q49 31 129 43v-98q-94 -16 -94 -89q0 -36 35 -133l18 -53q27 -73 27 -130t-48 -116t-175 -82v107z" />
    <glyph glyph-name="uni033F" unicode="&#x33f;" horiz-adv-x="0" 
d="M-922 1169h705v-116h-705v116zM-922 1401h705v-119h-705v119z" />
    <glyph glyph-name="uni0340" unicode="&#x340;" horiz-adv-x="0" 
d="M-367 1212h-137l-268 289h223z" />
    <glyph glyph-name="uni0341" unicode="&#x341;" horiz-adv-x="0" 
d="M-367 1501l-268 -289h-137l182 289h223z" />
    <glyph glyph-name="uni0342" unicode="&#x342;" horiz-adv-x="0" 
d="M-572 1378q-114 0 -167 -57q-31 -35 -47 -98h-101q38 278 330 276q176 0 254 -119q41 -61 49 -157h-102q-16 63 -47 98q-55 57 -169 57z" />
    <glyph glyph-name="uni0343" unicode="&#x343;" horiz-adv-x="0" 
d="M-565 1227v10q0 6 -2 14h-111v217h215v-200q0 -127 -53 -217t-162 -103v94q55 8 84 62t29 123z" />
    <glyph glyph-name="uni0344" unicode="&#x344;" horiz-adv-x="0" 
d="M-602 1206h-100l102 258h178zM-379 1409h123v-125h-123v125zM-883 1284v125h123v-125h-123z" />
    <glyph glyph-name="uni0345" unicode="&#x345;" horiz-adv-x="0" 
d="M-743 0h184v-367q-2 -51 76 -49q53 0 86 4v-71q-45 -4 -155 -4t-157 32q-34 27 -34 84v371z" />
    <glyph glyph-name="uni0346" unicode="&#x346;" horiz-adv-x="0" 
d="M-188 1585v-303h-74v217h-615v-217h-73v303h762z" />
    <glyph glyph-name="uni0347" unicode="&#x347;" horiz-adv-x="0" 
d="M-891 -440h641v-117h-641v117zM-891 -201h641v-116h-641v116z" />
    <glyph glyph-name="uni0348" unicode="&#x348;" horiz-adv-x="0" 
d="M-516 -141h102v-312h-102v312zM-725 -141h100v-312h-100v312z" />
    <glyph glyph-name="uni0349" unicode="&#x349;" horiz-adv-x="0" 
d="M-422 -14v-303h-74v217h-223v86h297z" />
    <glyph glyph-name="uni034A" unicode="&#x34a;" horiz-adv-x="0" 
d="M-670 891q-51 0 -88 37t-37 89t37 89t88 37t88 -37t37 -89t-37 -89t-88 -37zM-469 1591q-51 0 -89 37t-38 89t38 89t89 37t88 -37t37 -89t-37 -89t-88 -37zM-413 1376q77 0 87 92h107q-23 -127 -82 -175t-119 -48t-127 27l-53 18q-91 35 -133 35q-74 0 -88 -92h-99
q34 219 211 219q75 0 162 -38q88 -38 134 -38z" />
    <glyph glyph-name="uni034B" unicode="&#x34b;" horiz-adv-x="0" 
d="M-413 1227q47 1 65 27t22 65h107q-23 -127 -82 -175t-117 -48t-129 26l-53 19q-99 34 -133 35q-74 0 -88 -95h-99q12 80 43 129q57 92 168 93q65 0 157 -38q93 -38 139 -38zM-416 1528q50 0 68 26t22 66h107q-23 -127 -82 -175t-120 -48t-126 24l-53 21q-92 31 -133 33
q-74 0 -88 -93h-99q34 220 211 222q68 0 156 -38t137 -38z" />
    <glyph glyph-name="uni034C" unicode="&#x34c;" horiz-adv-x="0" 
d="M-690 1382q43 0 126 -36t118 -37q74 0 137 71v-96q-67 -55 -135 -55q-51 0 -132 36t-120 38q-71 0 -133 -72v92q39 35 67 47t72 12zM-696 1513q-68 0 -133 -71v92q39 35 67 47t72 12q43 0 126 -37q83 -36 125 -36t78 25t52 46v-96q-71 -56 -135 -55q-28 0 -54 7t-94 37
q-67 30 -104 29z" />
    <glyph glyph-name="uni034D" unicode="&#x34d;" horiz-adv-x="0" 
d="M-852 -211h563v170l586 -229l-586 -230v170h-563v-170l-586 230v2l586 227v-170z" />
    <glyph glyph-name="uni034E" unicode="&#x34e;" horiz-adv-x="0" 
d="M-512 -387v-250h-117v250h-172l232 285l229 -285h-172z" />
    <glyph glyph-name="uni034F" unicode="&#x34f;" horiz-adv-x="0" 
 />
    <glyph glyph-name="uni0350" unicode="&#x350;" horiz-adv-x="0" 
d="M-276 948l-586 -227v90l477 180l-477 180v91l586 -230v-84z" />
    <glyph glyph-name="uni0351" unicode="&#x351;" horiz-adv-x="0" 
d="M-465 1208q-86 0 -147 62t-62 147q0 85 62 147t147 62v-84q-51 0 -89 -37t-38 -88t38 -89t89 -38v-82z" />
    <glyph glyph-name="uni0352" unicode="&#x352;" horiz-adv-x="0" 
d="M-662 1432h189v-209h-189v209zM-568 1554q-114 0 -169 -59q-31 -33 -47 -96h-103q29 276 303 276q143 0 227 -65q83 -66 103 -211h-98q-16 63 -47 96q-55 59 -169 59z" />
    <glyph glyph-name="uni0353" unicode="&#x353;" horiz-adv-x="0" 
d="M-819 -18l59 59l189 -191l190 191l62 -59l-191 -191l191 -188l-62 -62l-190 191l-189 -191l-59 62l188 188z" />
    <glyph glyph-name="uni0354" unicode="&#x354;" horiz-adv-x="0" 
d="M-862 -168l586 229v-90l-480 -180l480 -180v-90l-586 229v82z" />
    <glyph glyph-name="uni0355" unicode="&#x355;" horiz-adv-x="0" 
d="M-276 -252l-586 -227v90l477 180l-477 180v90l586 -229v-84z" />
    <glyph glyph-name="uni0356" unicode="&#x356;" horiz-adv-x="0" 
d="M-248 84l230 -586h-91l-180 479l-180 -479h-90l229 586h82zM-537 -252l-585 -227v90l479 180l-479 180v90l585 -229v-84z" />
    <glyph glyph-name="uni0357" unicode="&#x357;" horiz-adv-x="0" 
d="M-674 1208v82q51 0 88 38t37 89t-37 88t-88 37v84q86 0 148 -61t61 -147q1 -86 -61 -148t-148 -62z" />
    <glyph glyph-name="uni0358" unicode="&#x358;" horiz-adv-x="0" 
d="M-362 1446h186v-209h-186v209z" />
    <glyph glyph-name="uni0359" unicode="&#x359;" horiz-adv-x="0" 
d="M-510 -31v-223l217 76l41 -111l-217 -71l133 -189l-98 -69l-131 194l-131 -194l-103 69l137 189l-221 71l41 111l215 -78v225h117z" />
    <glyph glyph-name="uni035A" unicode="&#x35a;" horiz-adv-x="0" 
d="M-734 -309q52 0 84 32t40 68q-2 11 -2 25t2 28q-8 35 -40 67t-84 32t-89 -37t-37 -89t37 -89t89 -37zM-405 -309q52 0 90 37q37 37 37 89t-37 89t-89 37t-85 -32q-32 -32 -37 -69v-51q6 -35 38 -67t83 -33zM-406 27q86 1 148 -61t61 -148q0 -86 -61 -148
q-62 -62 -148 -61q-86 0 -147 61l-16 21q-8 -12 -19 -21q-61 -61 -147 -61t-147 61q-60 62 -60 148t60 147t150 61t163 -81l16 20q61 62 147 62z" />
    <glyph glyph-name="uni035B" unicode="&#x35b;" horiz-adv-x="0" 
d="M-864 1448l315 317l57 -57l-229 -229l393 -6l54 -54l-295 -295l-58 58l209 209l-397 8z" />
    <glyph glyph-name="uni035C" unicode="&#x35c;" horiz-adv-x="0" 
d="M-1526 -43q311 -158 453 -205q215 -70 504 -70t528 82q150 49 426 197v-121q-246 -154 -303 -186t-170 -76q-215 -82 -490 -83q-276 -1 -507 93q-150 59 -441 244v125z" />
    <glyph glyph-name="uni035D" unicode="&#x35d;" horiz-adv-x="0" 
d="M-569 1282q289 0 528 82q150 49 426 197v-121q-246 -154 -303 -187t-170 -75q-222 -84 -494 -84t-503 94q-150 59 -441 246v125q311 -160 453 -205q215 -72 504 -72z" />
    <glyph glyph-name="uni035E" unicode="&#x35e;" horiz-adv-x="0" 
d="M-1530 1401h1919v-119h-1919v119z" />
    <glyph glyph-name="uni035F" unicode="&#x35f;" horiz-adv-x="0" 
d="M-1530 -201h1919v-116h-1919v116z" />
    <glyph glyph-name="uni0360" unicode="&#x360;" horiz-adv-x="0" 
d="M-23 1280q-137 0 -428 55l-407 78q-168 31 -314 31q-145 0 -239 -66q-57 -37 -115 -129h-233q33 84 72 143q40 58 141 132q161 98 407 98q184 0 342 -35l445 -86q230 -45 364 -45q135 0 238 57q102 57 137 142h234q-51 -141 -197 -258t-447 -117z" />
    <glyph glyph-name="uni0361" unicode="&#x361;" horiz-adv-x="0" 
d="M385 1098q-309 158 -451 205q-216 69 -504 69t-530 -82q-147 -49 -426 -196v120q246 154 304 187t171 76q215 82 490 83q276 1 508 -94q150 -59 438 -243v-125z" />
    <glyph glyph-name="uni0362" unicode="&#x362;" horiz-adv-x="0" 
d="M203 170h-2151v119h2151v172l583 -232l-583 -229v170z" />
    </font>
</defs>
</svg>
